<svg id="Layer_1" data-name="Layer 1" xmlns="http://www.w3.org/2000/svg" xmlns:xlink="http://www.w3.org/1999/xlink" viewBox="0 0 195.16 167.48"><defs><style>.cls-1,.cls-13,.cls-16,.cls-18{fill:none;}.cls-2{font-size:21px;}.cls-10,.cls-11,.cls-2,.cls-3,.cls-4,.cls-5,.cls-6,.cls-7,.cls-8,.cls-9{fill:#231f20;font-family:DINCondensed-Bold, DIN Condensed;font-weight:700;}.cls-3{font-size:21px;}.cls-4{font-size:21px;}.cls-5{font-size:21px;}.cls-6{font-size:21px;}.cls-7{font-size:21px;}.cls-8{font-size:21px;}.cls-9{font-size:21px;}.cls-10{font-size:21px;}.cls-11{font-size:21px;}.cls-12{clip-path:url(#clip-path);}.cls-13,.cls-16,.cls-18{stroke:#231f20;stroke-width:2px;}.cls-14{fill:#d9bb27;}.cls-15{fill:#e28e72;}.cls-16{stroke-linejoin:round;}.cls-17{fill:#fff;}.cls-18{stroke-linecap:round;stroke-linejoin:bevel;}</style><clipPath id="clip-path" transform="translate(-11.03 -19.13)"><rect class="cls-1" x="-25.57" y="-18.78" width="268.15" height="272.28"/></clipPath></defs><text class="cls-2" transform="matrix(0.62, -0.79, 0.79, 0.62, 33.69, 56.16)">B</text><text class="cls-3" transform="matrix(0.77, -0.64, 0.64, 0.77, 44.24, 42.85)">O</text><text class="cls-4" transform="translate(57.12 32.2) rotate(-29.1)">T</text><text class="cls-5" transform="translate(70.22 24.9) rotate(-18.35)">T</text><text class="cls-6" transform="translate(84.19 20.15) rotate(-7.34)">O</text><text class="cls-7" transform="translate(101.08 17.84) rotate(7.03)">M</text><text class="cls-8" transform="translate(120.59 20.54) rotate(20.6)">S</text><text class="cls-9" transform="translate(135.96 26.64) rotate(32.94)"> </text><text class="cls-6" transform="matrix(0.72, 0.69, -0.69, 0.72, 146.11, 32.95)">U</text><text class="cls-10" transform="matrix(0.55, 0.84, -0.84, 0.55, 158.28, 44.79)">P</text><text class="cls-11" transform="translate(166.88 58.9) rotate(65.52)">!</text><g class="cls-12"><path class="cls-13" d="M123.75,117.09c5.86-5.39,9.61-10.88,8.37-12.26s-7,1.86-12.86,7.25-9.32,9.52-8.08,10.9S117.89,122.47,123.75,117.09Z" transform="translate(-11.03 -19.13)"/><path class="cls-13" d="M112.16,125.14s22.21,29.93,34.2,18.58-13-36.76-13-36.76S126.74,120.58,112.16,125.14Z" transform="translate(-11.03 -19.13)"/><path class="cls-14" d="M118.72,129.29s20.5,21.46,26.95,11.52c5.09-7.84-.76-12.82-.76-12.82s-9.45-1-10.27,1.74-9.11,1.74-9.11,1.74-6.7-3.65-6.81-2.18" transform="translate(-11.03 -19.13)"/><path class="cls-13" d="M118.72,129.29s20.5,21.46,26.95,11.52c5.09-7.84-.76-12.82-.76-12.82s-9.45-1-10.27,1.74-9.11,1.74-9.11,1.74S118.83,127.82,118.72,129.29Z" transform="translate(-11.03 -19.13)"/><path class="cls-13" d="M95.48,107.36c7.35,3.06,13.89,4.16,14.6,2.45s-4.65-5.56-12-8.62-14.84-6.48-15.56-4.78S88.13,104.3,95.48,107.36Z" transform="translate(-11.03 -19.13)"/><path class="cls-13" d="M82,97.62s-15,29.88.69,40.64c15.08,5.78,25.23-22.72,27.17-25.95S98.64,115.54,82,97.62Z" transform="translate(-11.03 -19.13)"/><path class="cls-13" d="M72.63,159.57l-1.5,3.68L64,165.2l-5,1.67s14.06,9.77,24.06,9.32c-4.51-4.92-11-11.91-11-11.91l1.71-4.87Z" transform="translate(-11.03 -19.13)"/><path class="cls-15" d="M77.92,120.18s-1.61,13.08,5.47,15.46S97,136.45,104.57,119l-3.19.41s-1.45-.21-8-.64c-7.07,2.42-4.89,3.33-15.46,1.41" transform="translate(-11.03 -19.13)"/><path class="cls-16" d="M77.92,120.18s-1.61,13.08,5.47,15.46S97,136.45,104.57,119l-3.19.41s-1.45-.21-8-.64C86.31,121.19,88.49,122.1,77.92,120.18Z" transform="translate(-11.03 -19.13)"/></g><path class="cls-13" d="M185.82,144.16" transform="translate(-11.03 -19.13)"/><g class="cls-12"><path class="cls-17" d="M187.62,143.57" transform="translate(-11.03 -19.13)"/></g><path class="cls-18" d="M187.62,143.57" transform="translate(-11.03 -19.13)"/><g class="cls-12"><path class="cls-18" d="M143.39,148.36s-1.4,1.22,2,3.65,5.43,4,7.12,3-2.66-4.62-2.66-4.62-3.92-.27-4.08-3.64C143.61,148.07,143.83,147.78,143.39,148.36Z" transform="translate(-11.03 -19.13)"/><path class="cls-18" d="M146.94,155.22s-.54,1.93.39,2.76,7.08,2,7.08,2,1.67.33,5.8-1.12-4.93-2.25-5.77-2.39S153.4,158.64,146.94,155.22Z" transform="translate(-11.03 -19.13)"/><path class="cls-18" d="M152,161.39s-.85,2.69,5.29,2.25,4.14,0,4.14,0a7.91,7.91,0,0,0,7.33-4.59c-1.93-1.91-7.77,1.57-7.77,1.57S155.16,162.28,152,161.39Z" transform="translate(-11.03 -19.13)"/><path class="cls-18" d="M157.9,165.17s.5,1.57,5.35,1,10.41-3.72,10.41-3.72,1.08-2-5-.84C164.09,164.48,162.34,165.61,157.9,165.17Z" transform="translate(-11.03 -19.13)"/><path class="cls-18" d="M181,140.14c-5.2,1.44-11.91,3.74-15.36,4.17s-8-.71-9.11-.57-10.19,1.53-9.3,1.7c0,0,1.24,5.86,8.84,3.77a16.69,16.69,0,0,0,9.44.82l-2.8.92s2.78,3.27,5.17,3.91,12.52,8.83,25.52,6.5c5.29-.64,9.34-1.12,11.78-5.69" transform="translate(-11.03 -19.13)"/><path class="cls-18" d="M12,147.84c3.58,8.06,7.42,12.09,17.51,16.11s26.94,3.78,33.72-.6,7.92-4.52,7.92-4.52,3.9-1.67,4.62-2.94-4.77-.56-4.77-.56,6.14-.2,8.33-1.36,1.44-2.53,1.44-2.53l-8.69-1.52s16.67,4.32,14.06-2.38c-12.85-4.23-14.15-5.23-14.57-6.21s4.65,4.25,15.69,5.77c2.41-1.77-2.72-5.22-2.72-5.22s-1.62-1.26-7.43-3.16-5.54-4.47-12.06-2.56c-11.29,6.64-19.6,2.28-22.76,1-8.49-3.4-10.08-9.33-10.08-9.33" transform="translate(-11.03 -19.13)"/></g><line class="cls-16" x1="60.74" y1="51.84" x2="66.05" y2="72.09"/><line class="cls-16" x1="103.14" y1="79.78" x2="106.03" y2="51.73"/><line class="cls-16" x1="134.35" y1="79.7" x2="147.19" y2="62.1"/><g class="cls-12"><path class="cls-13" d="M165.56,167.24l1.27,1.17s4.47,4.83-.93,17.13c2.37.75,7.45-4.06,10.8-7.12,8.45-7.74,8.6-13.42,8.6-13.42s-12.05,7-17.22,2.28A12.67,12.67,0,0,0,165.56,167.24Z" transform="translate(-11.03 -19.13)"/></g></svg>