<?xml version="1.0" encoding="utf-8"?>
<!-- Generator: Adobe Illustrator 26.0.3, SVG Export Plug-In . SVG Version: 6.00 Build 0)  -->
<svg version="1.1" id="Layer_1" xmlns="http://www.w3.org/2000/svg" xmlns:xlink="http://www.w3.org/1999/xlink" x="0px" y="0px"
	 viewBox="0 0 1500 500" style="enable-background:new 0 0 1500 500;" xml:space="preserve">
<style type="text/css">
	.st0{fill:#F7EADE;}
	.st1{clip-path:url(#SVGID_00000062870589968937066940000000874956595061288344_);fill:#3C3048;}
	.st2{clip-path:url(#SVGID_00000062870589968937066940000000874956595061288344_);fill:#FFA303;}
	.st3{clip-path:url(#SVGID_00000062870589968937066940000000874956595061288344_);fill:#1C60B5;}
	.st4{clip-path:url(#SVGID_00000062870589968937066940000000874956595061288344_);fill:#FE9B7C;}
	.st5{clip-path:url(#SVGID_00000062870589968937066940000000874956595061288344_);fill:#FF9A7E;}
	.st6{clip-path:url(#SVGID_00000062870589968937066940000000874956595061288344_);fill:#3A1B20;}
	.st7{fill:#F0947D;}
	.st8{fill:none;stroke:#D36147;}
	.st9{clip-path:url(#SVGID_00000182514440148970572370000004503411347423029172_);fill:#FFFFFF;}
	.st10{clip-path:url(#SVGID_00000182514440148970572370000004503411347423029172_);fill:#231F20;}
	.st11{clip-path:url(#SVGID_00000182514440148970572370000004503411347423029172_);fill:none;stroke:#231F20;}
	.st12{clip-path:url(#SVGID_00000182514440148970572370000004503411347423029172_);fill:#FF9A7E;}
	.st13{clip-path:url(#SVGID_00000182514440148970572370000004503411347423029172_);fill:#3C3048;}
	.st14{clip-path:url(#SVGID_00000182514440148970572370000004503411347423029172_);fill:#1C60B5;}
	.st15{clip-path:url(#SVGID_00000182514440148970572370000004503411347423029172_);fill:#FFA303;}
	.st16{clip-path:url(#SVGID_00000182514440148970572370000004503411347423029172_);fill:#B44F31;}
	.st17{clip-path:url(#SVGID_00000169528427663984844390000010112668301255737019_);fill:#FFFFFF;}
	.st18{clip-path:url(#SVGID_00000169528427663984844390000010112668301255737019_);fill:#DBE0FE;}
	.st19{clip-path:url(#SVGID_00000169528427663984844390000010112668301255737019_);fill:#B44F31;}
	.st20{clip-path:url(#SVGID_00000169528427663984844390000010112668301255737019_);fill:none;stroke:#FFFFFF;}
	.st21{fill:#DEFFFF;}
	.st22{fill:#FFA303;}
	.st23{clip-path:url(#SVGID_00000142163882079307877930000007584900141592041353_);fill:#DEFFFF;}
	.st24{clip-path:url(#SVGID_00000142163882079307877930000007584900141592041353_);fill:#1C60B5;}
	.st25{clip-path:url(#SVGID_00000142163882079307877930000007584900141592041353_);fill:#3C3048;}
	.st26{clip-path:url(#SVGID_00000142163882079307877930000007584900141592041353_);fill:#D65011;}
	.st27{clip-path:url(#SVGID_00000142163882079307877930000007584900141592041353_);fill:none;stroke:#FFFFFF;}
	.st28{clip-path:url(#SVGID_00000142163882079307877930000007584900141592041353_);fill:#FD9D77;}
	.st29{clip-path:url(#SVGID_00000132809530991111060950000006482206371250921089_);fill:#FFFFFF;}
	.st30{clip-path:url(#SVGID_00000132809530991111060950000006482206371250921089_);fill:#FF934B;}
	.st31{clip-path:url(#SVGID_00000132809530991111060950000006482206371250921089_);fill:#231F20;}
	.st32{clip-path:url(#SVGID_00000132809530991111060950000006482206371250921089_);fill:none;stroke:#231F20;}
	.st33{clip-path:url(#SVGID_00000132809530991111060950000006482206371250921089_);fill:#FD9D77;}
	.st34{clip-path:url(#SVGID_00000132809530991111060950000006482206371250921089_);fill:none;stroke:#FFFFFF;}
	.st35{clip-path:url(#SVGID_00000132809530991111060950000006482206371250921089_);fill:#766FA7;}
	.st36{clip-path:url(#SVGID_00000132809530991111060950000006482206371250921089_);fill:#DEFFFF;}
	.st37{clip-path:url(#SVGID_00000132809530991111060950000006482206371250921089_);fill:#A80C17;}
	.st38{fill:none;stroke:#231F20;}
	.st39{clip-path:url(#SVGID_00000106855447955148241010000015554238595074932384_);fill:#7DB258;}
	.st40{clip-path:url(#SVGID_00000106855447955148241010000015554238595074932384_);fill:none;stroke:#FFFFFF;}
	.st41{clip-path:url(#SVGID_00000106855447955148241010000015554238595074932384_);fill:#FC9665;}
	.st42{clip-path:url(#SVGID_00000106855447955148241010000015554238595074932384_);fill:#230552;}
	.st43{clip-path:url(#SVGID_00000106855447955148241010000015554238595074932384_);fill:#FFFFFF;}
	.st44{clip-path:url(#SVGID_00000039841561058447913480000003120408656599777436_);fill:none;stroke:#231F20;}
	.st45{clip-path:url(#SVGID_00000039841561058447913480000003120408656599777436_);fill:#FC9665;}
	.st46{fill:none;stroke:#FFFFFF;}
	.st47{clip-path:url(#SVGID_00000178883446143163845170000000681651848695407236_);fill:#FFA303;}
	.st48{clip-path:url(#SVGID_00000178883446143163845170000000681651848695407236_);fill:#3C3048;}
	.st49{clip-path:url(#SVGID_00000178883446143163845170000000681651848695407236_);fill:#7DB258;}
	.st50{clip-path:url(#SVGID_00000178883446143163845170000000681651848695407236_);fill:#C36B2E;}
	.st51{clip-path:url(#SVGID_00000178883446143163845170000000681651848695407236_);fill:#02B1AC;}
	.st52{fill:#00B2AE;}
	.st53{clip-path:url(#SVGID_00000009580168862722340940000002927809591473997245_);fill:#029A91;}
	.st54{clip-path:url(#SVGID_00000009580168862722340940000002927809591473997245_);fill:#C36B2E;}
	.st55{clip-path:url(#SVGID_00000009580168862722340940000002927809591473997245_);fill:#231F20;}
	.st56{clip-path:url(#SVGID_00000009580168862722340940000002927809591473997245_);fill:none;stroke:#231F20;}
	.st57{clip-path:url(#SVGID_00000078733429266711279330000000209832998533692334_);fill:#FFFFFF;}
	.st58{clip-path:url(#SVGID_00000078733429266711279330000000209832998533692334_);fill:#3A1B20;}
	.st59{clip-path:url(#SVGID_00000078733429266711279330000000209832998533692334_);fill:#C36B2E;}
	.st60{clip-path:url(#SVGID_00000078733429266711279330000000209832998533692334_);fill:#02B1AC;}
	.st61{clip-path:url(#SVGID_00000078733429266711279330000000209832998533692334_);fill:#DEFFFF;}
	.st62{clip-path:url(#SVGID_00000078733429266711279330000000209832998533692334_);fill:#A80C17;}
	.st63{clip-path:url(#SVGID_00000078733429266711279330000000209832998533692334_);fill:#FFD0BE;}
	.st64{clip-path:url(#SVGID_00000078733429266711279330000000209832998533692334_);fill:none;stroke:#FFCFC1;}
	.st65{fill:#FFB598;}
	.st66{fill:none;stroke:#EAA68C;}
	.st67{clip-path:url(#SVGID_00000173158214748279757350000011520790324106008228_);fill:#FFFFFF;}
	.st68{clip-path:url(#SVGID_00000173158214748279757350000011520790324106008228_);fill:#2C355C;}
	.st69{clip-path:url(#SVGID_00000173158214748279757350000011520790324106008228_);fill:#231F20;}
	.st70{clip-path:url(#SVGID_00000173158214748279757350000011520790324106008228_);fill:none;stroke:#231F20;}
	.st71{clip-path:url(#SVGID_00000173158214748279757350000011520790324106008228_);fill:#FFD0BE;}
	.st72{clip-path:url(#SVGID_00000173158214748279757350000011520790324106008228_);fill:none;stroke:#FFCFC1;}
	.st73{clip-path:url(#SVGID_00000103246042438790011140000004350989893465832371_);fill:#FFD0BE;}
	.st74{clip-path:url(#SVGID_00000103246042438790011140000004350989893465832371_);fill:none;stroke:#FFCFC1;}
	.st75{clip-path:url(#SVGID_00000103246042438790011140000004350989893465832371_);fill:#88DCA8;}
	.st76{clip-path:url(#SVGID_00000103246042438790011140000004350989893465832371_);fill:none;stroke:#DEFFFF;stroke-width:3;}
	.st77{clip-path:url(#SVGID_00000103246042438790011140000004350989893465832371_);fill:#B14545;}
	.st78{fill:#1C60B5;}
	.st79{clip-path:url(#SVGID_00000154404560383735170280000014755999954891119551_);fill:#B14545;}
	.st80{clip-path:url(#SVGID_00000154404560383735170280000014755999954891119551_);fill:#FC9665;}
	.st81{clip-path:url(#SVGID_00000154404560383735170280000014755999954891119551_);fill:#3C3048;}
	.st82{clip-path:url(#SVGID_00000154404560383735170280000014755999954891119551_);fill:#766FA7;}
	.st83{clip-path:url(#SVGID_00000154404560383735170280000014755999954891119551_);fill:#FD9A70;}
	.st84{clip-path:url(#SVGID_00000058572773329040105480000010393005492311531139_);fill:#FFFFFF;}
	.st85{clip-path:url(#SVGID_00000058572773329040105480000010393005492311531139_);fill:#231F20;}
	.st86{clip-path:url(#SVGID_00000058572773329040105480000010393005492311531139_);fill:none;stroke:#231F20;}
	.st87{clip-path:url(#SVGID_00000058572773329040105480000010393005492311531139_);fill:#270A1E;}
	.st88{fill:#FF1E1E;}
	.st89{clip-path:url(#SVGID_00000052087920295889838750000008037267083807875250_);fill:#FF9669;}
	.st90{clip-path:url(#SVGID_00000052087920295889838750000008037267083807875250_);fill:#88DCA8;}
	.st91{clip-path:url(#SVGID_00000052087920295889838750000008037267083807875250_);fill:none;stroke:#DEFFFF;stroke-width:3;}
	.st92{clip-path:url(#SVGID_00000052087920295889838750000008037267083807875250_);fill:#B14545;}
	.st93{clip-path:url(#SVGID_00000052087920295889838750000008037267083807875250_);fill:#231F20;}
	.st94{clip-path:url(#SVGID_00000052087920295889838750000008037267083807875250_);fill:none;stroke:#231F20;}
	.st95{clip-path:url(#SVGID_00000078037341441704344800000004471759902582866058_);fill:#F5C2A7;}
	.st96{clip-path:url(#SVGID_00000078037341441704344800000004471759902582866058_);fill:#986529;}
	.st97{clip-path:url(#SVGID_00000078037341441704344800000004471759902582866058_);fill:none;stroke:#986529;}
	.st98{clip-path:url(#SVGID_00000078037341441704344800000004471759902582866058_);fill:#231F20;}
	.st99{clip-path:url(#SVGID_00000078037341441704344800000004471759902582866058_);fill:#FFFFFF;}
	.st100{clip-path:url(#SVGID_00000078037341441704344800000004471759902582866058_);fill:none;stroke:#FFFFFF;}
	.st101{fill:#F8A181;}
	.st102{fill:#C6D9EB;}
	.st103{clip-path:url(#SVGID_00000084495904485542319650000010868338681547937177_);fill:#A9BFE8;}
	.st104{clip-path:url(#SVGID_00000084495904485542319650000010868338681547937177_);fill:#FFFFFF;}
	.st105{clip-path:url(#SVGID_00000084495904485542319650000010868338681547937177_);fill:#3C3048;}
	.st106{clip-path:url(#SVGID_00000046302283151990111060000003537605338181790370_);fill:#4D5363;}
	.st107{clip-path:url(#SVGID_00000059282803052218164660000011255349293164053388_);fill:#F5C2A7;}
	.st108{clip-path:url(#SVGID_00000059282803052218164660000011255349293164053388_);fill:#88DCA8;}
	.st109{clip-path:url(#SVGID_00000059282803052218164660000011255349293164053388_);fill:none;stroke:#DEFFFF;stroke-width:3;}
	.st110{fill:#231F20;}
	.st111{font-family:'KohinoorDevanagari-Bold';}
	.st112{font-size:10px;}
	.st113{clip-path:url(#SVGID_00000075865335065654040400000003949123221661432200_);fill:#F5C2A7;}
	.st114{clip-path:url(#SVGID_00000075865335065654040400000003949123221661432200_);fill:#DEFFFF;}
	.st115{clip-path:url(#SVGID_00000075865335065654040400000003949123221661432200_);fill:#FC9665;}
	.st116{fill:#FFCE95;}
	.st117{clip-path:url(#SVGID_00000036962644437324865250000013754045846784193962_);fill:#FFFFFF;}
	.st118{clip-path:url(#SVGID_00000036962644437324865250000013754045846784193962_);fill:#231F20;}
	.st119{clip-path:url(#SVGID_00000036962644437324865250000013754045846784193962_);fill:none;stroke:#231F20;}
	.st120{clip-path:url(#SVGID_00000036962644437324865250000013754045846784193962_);fill:#3E1115;}
	.st121{clip-path:url(#SVGID_00000086682644443676568250000012630996022279299745_);fill:#3C3048;}
	.st122{clip-path:url(#SVGID_00000086682644443676568250000012630996022279299745_);fill:#7C9092;}
	.st123{clip-path:url(#SVGID_00000086682644443676568250000012630996022279299745_);fill:#D6E5B3;}
	.st124{clip-path:url(#SVGID_00000086682644443676568250000012630996022279299745_);fill:none;stroke:#FFFFFF;}
	.st125{clip-path:url(#SVGID_00000086682644443676568250000012630996022279299745_);fill:#FC9665;}
	.st126{clip-path:url(#SVGID_00000086682644443676568250000012630996022279299745_);fill:#DEFFFF;}
	.st127{clip-path:url(#SVGID_00000086682644443676568250000012630996022279299745_);fill:#A80C17;}
	.st128{clip-path:url(#SVGID_00000086682644443676568250000012630996022279299745_);fill:#FCB482;}
	.st129{fill:#FC9665;}
	.st130{clip-path:url(#SVGID_00000103245898043966500650000005214046054182891146_);fill:#FFFFFF;}
	.st131{clip-path:url(#SVGID_00000103245898043966500650000005214046054182891146_);fill:#B17133;}
	.st132{clip-path:url(#SVGID_00000103245898043966500650000005214046054182891146_);fill:#231F20;}
	.st133{clip-path:url(#SVGID_00000103245898043966500650000005214046054182891146_);fill:none;stroke:#231F20;}
	.st134{clip-path:url(#SVGID_00000103245898043966500650000005214046054182891146_);fill:#FCB482;}
	.st135{clip-path:url(#SVGID_00000047036246332633772860000000391022896448006311_);fill:#FFFFFF;}
	.st136{clip-path:url(#SVGID_00000047036246332633772860000000391022896448006311_);fill:#3C3048;}
	.st137{clip-path:url(#SVGID_00000047036246332633772860000000391022896448006311_);fill:#D47617;}
	.st138{clip-path:url(#SVGID_00000047036246332633772860000000391022896448006311_);fill:none;stroke:#FFFFFF;}
	.st139{clip-path:url(#SVGID_00000047036246332633772860000000391022896448006311_);fill:#FE9B7C;}
	.st140{fill:#D47617;}
	.st141{clip-path:url(#SVGID_00000043429828279334894650000008539285192444428210_);fill:#7DB258;}
	.st142{clip-path:url(#SVGID_00000043429828279334894650000008539285192444428210_);fill:#02B1AC;}
	.st143{clip-path:url(#SVGID_00000043429828279334894650000008539285192444428210_);fill:#3C3048;}
	.st144{clip-path:url(#SVGID_00000043429828279334894650000008539285192444428210_);fill:#5D89B8;}
	.st145{clip-path:url(#SVGID_00000043429828279334894650000008539285192444428210_);fill:#3A728D;}
	.st146{clip-path:url(#SVGID_00000043429828279334894650000008539285192444428210_);fill:#FC9665;}
	.st147{clip-path:url(#SVGID_00000043429828279334894650000008539285192444428210_);fill:#231F20;}
	.st148{clip-path:url(#SVGID_00000043429828279334894650000008539285192444428210_);fill:none;stroke:#231F20;}
	.st149{clip-path:url(#SVGID_00000043429828279334894650000008539285192444428210_);fill:#FFFFFF;}
	.st150{clip-path:url(#SVGID_00000121266648135750122580000008398100684206939313_);fill:#B57A42;}
	.st151{clip-path:url(#SVGID_00000121266648135750122580000008398100684206939313_);fill:#FC9665;}
	.st152{clip-path:url(#SVGID_00000121266648135750122580000008398100684206939313_);fill:#DEFFFF;}
	.st153{clip-path:url(#SVGID_00000121266648135750122580000008398100684206939313_);fill:#B14545;}
	.st154{clip-path:url(#SVGID_00000121266648135750122580000008398100684206939313_);fill:#1C60B5;}
	.st155{clip-path:url(#SVGID_00000121266648135750122580000008398100684206939313_);fill:none;stroke:#FFFFFF;}
</style>
<rect x="1.1" y="0" class="st0" width="1500" height="500"/>
<g>
	<defs>
		<rect id="SVGID_1_" x="1.1" y="0" width="1500" height="500"/>
	</defs>
	<clipPath id="SVGID_00000106138159933306314580000016056630977992258948_">
		<use xlink:href="#SVGID_1_"  style="overflow:visible;"/>
	</clipPath>
	<path style="clip-path:url(#SVGID_00000106138159933306314580000016056630977992258948_);fill:#3C3048;" d="M1028.9,315.4
		l-4.3,54.4l7.5,60.9l17.5-0.6l-3-59.4l9-41.2l15.7,97.2l21.3-0.2l-14.3-113.3C1078.2,313.3,1052.2,307.7,1028.9,315.4"/>
	<path style="clip-path:url(#SVGID_00000106138159933306314580000016056630977992258948_);fill:#FFA303;" d="M1075.9,428.6
		l-0.9,11.3l26-0.3c0,0,6.2-5.2-12.9-9l-0.3-3.6L1075.9,428.6z"/>
	<path style="clip-path:url(#SVGID_00000106138159933306314580000016056630977992258948_);fill:#FFA303;" d="M1046.7,431.7l2.7,11
		l-25.7,3.6c0,0-7-4.2,11.3-10.9l-0.3-3.6L1046.7,431.7z"/>
	<path style="clip-path:url(#SVGID_00000106138159933306314580000016056630977992258948_);fill:#1C60B5;" d="M959.4,170.5
		c10,19.6,28.7,52.4,76.2,57.3c5,0-2.5,3.9,6.2,3.9s7.4-4.3,7.4-4.3s22.5-8.1,45,13.9c22.5,22.1,33.8,44.3,33.8,44.3l-13.7,8.6
		l-35-40.4l12.5,53.9c0,0-22.5,13.5-25,12.3c-2.5-1.2-38.7,8.6-47.4-3.7c-8.7-12.3-7.5-40.4-7.5-40.4l-10-31.9
		c0,0-44.9,6.1-58.7-66.2C959.4,171.8,959.4,170.5,959.4,170.5"/>
	<path style="clip-path:url(#SVGID_00000106138159933306314580000016056630977992258948_);fill:#FE9B7C;" d="M944.8,177.1l-1.6-8.8
		l-9-9.6l2-7.2l-5.4-8c0,0-4.3-6.6,11.8,7.4c-0.2-9.9,0.1-12.3,0.1-12.3s3.6,1.6,5.8,16.6c6,3.1,4.1,9,4.1,9l-0.5,4.9l0.9,3.8
		L944.8,177.1z"/>
	<path style="clip-path:url(#SVGID_00000106138159933306314580000016056630977992258948_);fill:#FF9A7E;" d="M1029.2,194.8l-0.6,8.6
		c0,0-3.6-3.3-6.2,1.2c-2.5,4.3,1.1,6.1,5.6,6.1c6.2,0-2.5,1.8,8.7,8.6c1.2,0,0,8.6,0,8.6s1.6,5.7,10,2.5c3.1-1.2,0-9.8,1.2-11
		c3.7,0,7.5-8.6,7.5-8.6s6.3,5.2,7.5-1.8c1.2-7.4-5-6.7-6.2-4.3c-1.2,2.5-2.5-11-2.5-11s-1.2-4.9-5-4.9
		C1045.5,188.7,1050.5,193.6,1029.2,194.8"/>
	<path style="clip-path:url(#SVGID_00000106138159933306314580000016056630977992258948_);fill:#3A1B20;" d="M1024.3,193.6l1.2,8
		l3.1,0.6l0.6-8c0,0,15.3,0.6,19-6.1c4.3-1.2,8,1.8,8,15.3c2.5-0.6,2.5-1.2,2.5-1.2s6.8-24.5-8-21.5c-1.2-2.5-6.1-13.5-22.1-8
		c-3.7,1.8-1.2,9.2-1.2,9.2s-9.8-4.9-12.3,0C1012.6,186.8,1015.7,189.9,1024.3,193.6"/>
</g>
<polygon class="st7" points="1041.8,200.4 1041.3,205 1043.3,205 "/>
<polygon class="st8" points="1041.8,200.4 1041.3,205 1043.3,205 "/>
<g>
	<defs>
		<rect id="SVGID_00000003103447021865505120000015715652159320465289_" x="1.1" y="0" width="1500" height="500"/>
	</defs>
	<clipPath id="SVGID_00000180340589196206887550000002558894818833962396_">
		<use xlink:href="#SVGID_00000003103447021865505120000015715652159320465289_"  style="overflow:visible;"/>
	</clipPath>
	<path style="clip-path:url(#SVGID_00000180340589196206887550000002558894818833962396_);fill:#FFFFFF;" d="M1040.6,209l5.4,0.6
		C1046,209.6,1042.4,214.2,1040.6,209"/>
	<path style="clip-path:url(#SVGID_00000180340589196206887550000002558894818833962396_);fill:#231F20;" d="M1034,203.7
		c0.6,0,1.2-0.5,1.2-1.1c0-0.6-0.5-1.1-1.2-1.1c-0.6,0-1.2,0.5-1.2,1.1C1032.8,203.2,1033.4,203.7,1034,203.7"/>
	<path style="clip-path:url(#SVGID_00000180340589196206887550000002558894818833962396_);fill:none;stroke:#231F20;" d="
		M1034,203.7c0.6,0,1.2-0.5,1.2-1.1c0-0.6-0.5-1.1-1.2-1.1c-0.6,0-1.2,0.5-1.2,1.1C1032.8,203.2,1033.4,203.7,1034,203.7z"/>
	<path style="clip-path:url(#SVGID_00000180340589196206887550000002558894818833962396_);fill:#231F20;" d="M1050.9,201.3
		c0.6,0,1.2-0.5,1.2-1.1c0-0.6-0.5-1.1-1.2-1.1c-0.6,0-1.2,0.5-1.2,1.1C1049.7,200.8,1050.2,201.3,1050.9,201.3"/>
	<path style="clip-path:url(#SVGID_00000180340589196206887550000002558894818833962396_);fill:none;stroke:#231F20;" d="
		M1050.9,201.3c0.6,0,1.2-0.5,1.2-1.1c0-0.6-0.5-1.1-1.2-1.1c-0.6,0-1.2,0.5-1.2,1.1C1049.7,200.8,1050.2,201.3,1050.9,201.3z"/>
	<path style="clip-path:url(#SVGID_00000180340589196206887550000002558894818833962396_);fill:#FF9A7E;" d="M1115.9,292.5l2.4,9.3
		c0,0-1.6,8.6-0.3,9.1c1.3,0.5,3.6-6.2,3.6-6.2l3.3,14.2c0,0,2.1,1.5,2.3-1.1c0.2-2.6-0.7-8.3-0.7-8.3l2.9,8c0,0,0.3,1.3,0.5-1.3
		c0.2-2.6-0.9-5.7-0.9-5.7l2.6,5.9c0,0,1.2,1.4,0.9,0.1c-0.3-1.3-0.7-8.3-0.7-8.3s2.1,7.1,3,6.3c1-0.8-1.7-17.1-7.5-27.5
		C1127.3,287.7,1118,293.9,1115.9,292.5"/>
	<path style="clip-path:url(#SVGID_00000180340589196206887550000002558894818833962396_);fill:#3C3048;" d="M920.9,316.4l18.3,52
		l-18.9,62.2l-15.8-8.2l8.8-48.9l-10.1-20.9l1.3-19.7l-6.9,100.9l-15.8,1.9c0,0-18.3-111.7-10.1-116.7
		C880,313.9,903.9,312.6,920.9,316.4"/>
	<path style="clip-path:url(#SVGID_00000180340589196206887550000002558894818833962396_);fill:#1C60B5;" d="M905.4,425.8l-6.4,9.8
		l23.2,12.5c0,0,8.1-1.6-6.9-14.5l1.5-3.4L905.4,425.8z"/>
	<path style="clip-path:url(#SVGID_00000180340589196206887550000002558894818833962396_);fill:#FFA303;" d="M903.5,248
		c0,0,18.6,1.2,20.4,8.8c1.7,7.6,9.3,32.9,9.3,32.9s19.8-27.6,22.7-25.8c2.9,1.8,12.8,7.6,12.8,7.6s-26.2,45.2-32.6,46.3
		c-6.4,1.2-21.6-8.2-21.6-8.2l-7.6,14.7c0,0-33.8,2.3-37.3,0c-3.5-2.3-4.7-5.9-4.7-5.9s-36.7-10-32.6-27s11.7-46.9,26.8-49.3
		c15.1-2.3,22.7,1.8,22.7,1.8S886.6,259.1,903.5,248"/>
	<path style="clip-path:url(#SVGID_00000180340589196206887550000002558894818833962396_);fill:#B44F31;" d="M898.2,248
		c0,0-6.4,2.3-12.2-2.9c1.2-10,1.7-11.7,1.7-11.7s-7.6-2.9-7.6-10.6c-8.2-1.2-5.8-8.2-5.8-8.2s2.9-7,8.7,0.6
		c0-5.3,6.4-15.3,9.3-15.3c2.9,0,6.4,4.1,16.3-3.5c8.2-0.6,8.2,11.7,5.8,23.5c3.5,1.8,2.3,8.8-2.3,8.8c-3.5,5.9-9.9,7-12.2,6.5
		C898.8,245.6,898.2,248,898.2,248"/>
	<path style="clip-path:url(#SVGID_00000180340589196206887550000002558894818833962396_);fill:none;stroke:#231F20;" d="M897,214.4
		c0,0-3.9,1.1-6.2-2.6"/>
	<path style="clip-path:url(#SVGID_00000180340589196206887550000002558894818833962396_);fill:none;stroke:#231F20;" d="
		M912.6,214.7c0,0-1.1,1.9-5.6,1.4"/>
</g>
<polygon class="st7" points="902.7,211.7 902.7,220.2 900.8,220.2 "/>
<polygon class="st8" points="902.7,211.7 902.7,220.2 900.8,220.2 "/>
<g>
	<defs>
		<rect id="SVGID_00000017497462422751621980000014302363088087498893_" x="1.1" y="0" width="1500" height="500"/>
	</defs>
	<clipPath id="SVGID_00000180330253809734542480000013837552415597559697_">
		<use xlink:href="#SVGID_00000017497462422751621980000014302363088087498893_"  style="overflow:visible;"/>
	</clipPath>
	<path style="clip-path:url(#SVGID_00000180330253809734542480000013837552415597559697_);fill:#FFFFFF;" d="M903.3,225.7l-6.8-2.8
		C896.6,222.9,896,231.9,903.3,225.7"/>
	<path style="clip-path:url(#SVGID_00000180330253809734542480000013837552415597559697_);fill:#DBE0FE;" d="M927.4,193.4
		c0,0-5.2,8.2-11.7,4.7c-6.4-3.5-7-4.7-12.2,0c-5.2,4.7-9.9-0.6-11.7-0.6c-1.7,0-10.5,12.9-9.3,15.3c1.2,2.3-1.7-1.8-1.7-1.8
		s-4.1-21.7,0-21.7c4.1,0,5.2,0.6,5.2,0.6s-2.9-9.4,12.8-4.1c10.5,1.8,11.7-5.9,16.3,1.2c4.7,7,7.6,1.8,7.6,1.8l-1.2,2.3
		L927.4,193.4z"/>
	<path style="clip-path:url(#SVGID_00000180330253809734542480000013837552415597559697_);fill:#B44F31;" d="M967,268.5l-9.3-5.3
		c0,0-0.6-9.4,1.2-11.7c1.7-2.3,6.4-5.3,8.7-3.5c2.3,1.8-4.1,1.2-4.1,2.9c0,1.8,2.9,3.5,4.7,1.2c1.7-2.3,5.8-5.9,5.8-5.9
		s3.5-1.2,3.5,0c0,1.2-1.2,4.1-1.2,4.1s2.9-1.2,2.9,0v2.3c0,0,4.7-1.2,4.1,0.6c-0.6,1.8-2.9,3.5-2.9,3.5S981,260.3,967,268.5"/>
	<path style="clip-path:url(#SVGID_00000180330253809734542480000013837552415597559697_);fill:none;stroke:#FFFFFF;" d="
		M866.3,261.2c0,0-11.7,46.3,28.8,52.4c-2.2,11.1-5.7,12.3-5.7,12.3l-23.2-7.4"/>
	<path style="clip-path:url(#SVGID_00000180330253809734542480000013837552415597559697_);fill:#B44F31;" d="M896.1,315.6l-2.8,8.2
		c0,0,25.1,4.5,26.2,3.9c1.2-0.6-4.7-2.3-4.7-2.3l11-3.6c0,0-5.2-0.5-7-0.5c-1.7,0,8.1-7.7,8.1-7.7s-8.1,5.4-11.6,4.2
		c-3.5-1.1-1.2-5.3,5.2-5.9c-5.9-4.1-7.6,0.7-15.1,1.9C897.8,315,896.1,315.6,896.1,315.6"/>
</g>
<polygon class="st21" points="995.6,260.1 982.7,267.7 972.3,244.2 985.7,236 "/>
<polygon class="st22" points="993.2,259.5 983.9,265.3 977.5,251.3 986.8,244.8 "/>
<g>
	<defs>
		<rect id="SVGID_00000012456414961229242140000010822862963862195336_" x="1.1" y="0" width="1500" height="500"/>
	</defs>
	<clipPath id="SVGID_00000098934615811167954570000017296978396942988176_">
		<use xlink:href="#SVGID_00000012456414961229242140000010822862963862195336_"  style="overflow:visible;"/>
	</clipPath>
	<path style="clip-path:url(#SVGID_00000098934615811167954570000017296978396942988176_);fill:#DEFFFF;" d="M979.2,260.7
		c0,0-2.3,2.9-4.7-0.6c-2.3-3.5-4.7-7.6-4.7-7.6s-1.7-1.8,2.9-4.1c-0.6-1.2-0.6-1.8-0.6-1.8s-6.4,1.8-4.1,6.5
		c2.3,4.7,4.7,8.8,4.7,8.8s2.9,4.7,7,0.6L979.2,260.7z"/>
	<path style="clip-path:url(#SVGID_00000098934615811167954570000017296978396942988176_);fill:#1C60B5;" d="M884.2,436.4l-4.1,11
		l25.4,7c0,0,7.5-3.4-9.9-12.6l0.7-3.6L884.2,436.4z"/>
	<path style="clip-path:url(#SVGID_00000098934615811167954570000017296978396942988176_);fill:#3C3048;" d="M1395.5,296.3
		l-18.1,51.3l18.8,61.3l15.6-8.1l-8.8-48.1l10-20.6l-1.2-19.4l6.9,99.4l15.6,1.9c0,0,18.1-110,10-115
		C1436.2,293.8,1412.4,292.5,1395.5,296.3"/>
	<path style="clip-path:url(#SVGID_00000098934615811167954570000017296978396942988176_);fill:#D65011;" d="M1403.6,205.5
		c0,0,6.3,6.3,13.1-3.1c6.9-9.4,93.8,30.6,37.5,74.4l7.5,26.3c0,0-7.5,8.1-38.1,1.2c-31.9-0.6-37.5-1.2-37.5-1.2l2.5-18.8
		c0,0-20.6,0-23.1-39.4l9.4-5l7.5,8.1C1382.4,248,1386.1,213,1403.6,205.5"/>
	<path style="clip-path:url(#SVGID_00000098934615811167954570000017296978396942988176_);fill:none;stroke:#FFFFFF;" d="
		M1430,238.1c0,0,25.5,17.4-10.6,36.7c3.1,10,3.1,11.8,3.1,11.8l29.9-8.7"/>
	<path style="clip-path:url(#SVGID_00000098934615811167954570000017296978396942988176_);fill:#FD9D77;" d="M1405.5,198.6l-0.6,6.3
		c0,0,4.4,4.4,10.6-1.9c0-13.1-0.6-13.1-0.6-13.1s10,3.1,7.5-7.5c-1.2-5-7.5-2.5-8.8-0.6c-1.2,1.9-11.9-5-10.6-9.4
		c-8.1,6.3-13.1,6.3-13.1,6.3S1388.6,206.1,1405.5,198.6"/>
</g>
<polygon class="st7" points="1396.8,182.4 1396.4,184.8 1398.2,186.2 "/>
<polygon class="st8" points="1396.8,182.4 1396.4,184.8 1398.2,186.2 "/>
<g>
	<defs>
		<rect id="SVGID_00000049217839656212276830000010879718640408124319_" x="1.1" y="0" width="1500" height="500"/>
	</defs>
	<clipPath id="SVGID_00000150082321227397318000000007038366283150150822_">
		<use xlink:href="#SVGID_00000049217839656212276830000010879718640408124319_"  style="overflow:visible;"/>
	</clipPath>
	<path style="clip-path:url(#SVGID_00000150082321227397318000000007038366283150150822_);fill:#FFFFFF;" d="M1395.6,189.3l6.7-1.8
		C1402.3,187.5,1399.9,195.3,1395.6,189.3"/>
	<path style="clip-path:url(#SVGID_00000150082321227397318000000007038366283150150822_);fill:#FF934B;" d="M1389.3,178
		c0,0-3.8-16.9,18.1-16.9c15,1.9,13.8,15.6,13.8,15.6s23.8,7.5,11.9,21.3c-5,3.8-8.8,2.5-16.9,2.5c0.6-1.9,0-9.4,0-9.4
		s8.8,1,7.5-6.9c-1.7-10-9.4-4.4-10.6-3.1c-1.2,1.3-9.4-4.4-9.4-10C1402.4,170.5,1398.6,176.8,1389.3,178"/>
	<path style="clip-path:url(#SVGID_00000150082321227397318000000007038366283150150822_);fill:#FF934B;" d="M1391.1,194.3
		c0,0-3.8,5-3.1,8.1c0.6,3.1,16.3,0.6,16.3,0.6l0.6-3.1C1404.9,199.9,1396.8,203.6,1391.1,194.3"/>
	<path style="clip-path:url(#SVGID_00000150082321227397318000000007038366283150150822_);fill:#231F20;" d="M1402.9,183.4
		c0.7,0,1.3-0.5,1.3-1.2c0-0.6-0.6-1.2-1.3-1.2c-0.7,0-1.3,0.5-1.3,1.2C1401.6,182.8,1402.2,183.4,1402.9,183.4"/>
	<path style="clip-path:url(#SVGID_00000150082321227397318000000007038366283150150822_);fill:none;stroke:#231F20;" d="
		M1402.9,183.4c0.7,0,1.3-0.5,1.3-1.2c0-0.6-0.6-1.2-1.3-1.2c-0.7,0-1.3,0.5-1.3,1.2C1401.6,182.8,1402.2,183.4,1402.9,183.4z"/>
	<path style="clip-path:url(#SVGID_00000150082321227397318000000007038366283150150822_);fill:#231F20;" d="M1393.3,184
		c0.6,0,1.1-0.5,1.1-1.2c0-0.6-0.5-1.2-1.1-1.2c-0.6,0-1.1,0.5-1.1,1.2C1392.3,183.5,1392.8,184,1393.3,184"/>
	<path style="clip-path:url(#SVGID_00000150082321227397318000000007038366283150150822_);fill:none;stroke:#231F20;" d="
		M1393.3,184c0.6,0,1.1-0.5,1.1-1.2c0-0.6-0.5-1.2-1.1-1.2c-0.6,0-1.1,0.5-1.1,1.2C1392.3,183.5,1392.8,184,1393.3,184z"/>
	<path style="clip-path:url(#SVGID_00000150082321227397318000000007038366283150150822_);fill:#FD9D77;" d="M1419.2,277.8
		l-11.3-4.4c0,0-13.1,5.6-11.3,6.9c1.9,1.3,5.6-0.6,5.6-0.6s-4.4,2.5-5,5s6.9-2.5,6.9-2.5l-3.1,5c0,0-0.6,2.5,5-1.9
		c5.6-4.4-4.4,3.1-2.5,3.8c1.9,0.6,8.1-5,8.1-5s6.9,4.4,8.8,3.1s1.9-1.9,1.9-1.9L1419.2,277.8z"/>
	<path style="clip-path:url(#SVGID_00000150082321227397318000000007038366283150150822_);fill:#FD9D77;" d="M1367.9,230.9l3.1,5.6
		l-8.1,5.6l-10.6-14.4c0,0-5.6-6.3,3.1-11.3c4.4,0,3.8,3.1,3.8,3.1s-1.2-3.1,1.2-2.5s7.5,3.1,7.5,6.9V230.9z"/>
	<path style="clip-path:url(#SVGID_00000150082321227397318000000007038366283150150822_);fill:none;stroke:#FFFFFF;" d="
		M1352.4,223.9c0,0,1.8,3,3,2.4c1.2-0.6-1.2-3.6-1.2-3.6s1.2,1.8,3,1.2c1.8-0.6-1.2-3-1.2-3v-1.2c0,0,0.6,2.4,2.4,2.4
		c1.8,0,0.6-1.8,0.6-1.8"/>
	<path style="clip-path:url(#SVGID_00000150082321227397318000000007038366283150150822_);fill:none;stroke:#231F20;" d="
		M1360,219.7c0,0,0.6,1.8,2.8,1.8c2.3,0-0.6,4.9-0.6,4.9"/>
	<path style="clip-path:url(#SVGID_00000150082321227397318000000007038366283150150822_);fill:#766FA7;" d="M1419.2,414.5
		l-4.1,10.8l25.1,6.8c0,0,7.4-3.4-9.8-12.4l0.7-3.6L1419.2,414.5z"/>
	<path style="clip-path:url(#SVGID_00000150082321227397318000000007038366283150150822_);fill:#766FA7;" d="M1407.2,404l6.4,9.6
		l-22.9,12.3c0,0-8-1.6,6.8-14.3l-1.5-3.3L1407.2,404z"/>
	<path style="clip-path:url(#SVGID_00000150082321227397318000000007038366283150150822_);fill:#DEFFFF;" d="M1350.5,202.4
		c0,0,0,17.5,11.3,16.3c11.3-1.2,11.3-6.3,10.6-18.8L1350.5,202.4z"/>
	<path style="clip-path:url(#SVGID_00000150082321227397318000000007038366283150150822_);fill:#DEFFFF;" d="M1361.8,219.9l1.2,11.3
		c0,0-13.1,3.1-0.6,3.8c12.5,0.6,11.9-5,3.8-4.4l-1.9-11.3L1361.8,219.9z"/>
	<path style="clip-path:url(#SVGID_00000150082321227397318000000007038366283150150822_);fill:#A80C17;" d="M1353.7,211.1
		c0,0,1.9,6.2,9.3,5s8.1-6.8,8.1-11.8c-2.5-1.2-5.6,0-8.1,6.2C1361.1,211.7,1354.9,206.2,1353.7,211.1"/>
</g>
<path class="st38" d="M1238.3,265.3"/>
<g>
	<defs>
		<rect id="SVGID_00000018943964619544517640000006807902227849287353_" x="1.1" y="0" width="1500" height="500"/>
	</defs>
	<clipPath id="SVGID_00000082355087005844928340000002643730793936312987_">
		<use xlink:href="#SVGID_00000018943964619544517640000006807902227849287353_"  style="overflow:visible;"/>
	</clipPath>
	<path style="clip-path:url(#SVGID_00000082355087005844928340000002643730793936312987_);fill:#7DB258;" d="M1250,264.2
		c0,0-14.4-6.2-20.8,24.3c-6.4,30.6-4,45.8-4,45.8s21.4,11.9,46.2,1.7c4.6-23.8,4-24.9,4-24.9s6.4,5.7,11,2.3
		c4.6-3.4,34.7-30.6,34.7-30.6l-8.7-6.8c0,0-23.7,24.3-34.1,15.3c-5.2-4.5-3.5-3.4-3.5-3.4v-9.1c0,0,19.6,2.3,50.3-63.9
		c-5.8-5.7-6.4-5.7-6.4-5.7s-15,18.7-27.2,34.5c-12.1,15.8-28.9,15.8-28.9,15.8S1262.1,269.9,1250,264.2"/>
	<path style="clip-path:url(#SVGID_00000082355087005844928340000002643730793936312987_);fill:none;stroke:#FFFFFF;" d="
		M1250,264.2c0,0-14.4-6.2-20.8,24.3c-6.4,30.6-4,45.8-4,45.8s21.4,11.9,46.2,1.7c4.6-23.8,4-24.9,4-24.9s6.4,5.7,11,2.3
		c4.6-3.4,34.7-30.6,34.7-30.6l-8.7-6.8c0,0-23.7,24.3-34.1,15.3c-5.2-4.5-3.5-3.4-3.5-3.4v-9.1c0,0,19.6,2.3,50.3-63.9
		c-5.8-5.7-6.4-5.7-6.4-5.7s-15,18.7-27.2,34.5c-12.1,15.8-28.9,15.8-28.9,15.8S1262.1,269.9,1250,264.2z"/>
	<path style="clip-path:url(#SVGID_00000082355087005844928340000002643730793936312987_);fill:none;stroke:#FFFFFF;" d="
		M1237.3,287c0,0,31.8,22.5,38.1,24.2"/>
	<path style="clip-path:url(#SVGID_00000082355087005844928340000002643730793936312987_);fill:#FC9665;" d="M1314.2,276.1
		c0,0,3.5-7.4,5.2-7.9c1.7-0.6,15.1-2.3,16.2-1.7c1.2,0.6,3.5,1.7-9.3,3.4c10.4,1.1,11,1.1,11,1.1s1.7,1.1-0.6,1.7
		c-2.3,0.6-8.7,0.6-8.7,0.6l8.1,1.7c0,0,2.3,1.1-0.6,1.7c-2.9,0.6-9.3-0.6-9.3-0.6s5.2,3.4,4.6,4c-0.6,0.6-5.2-2.3-6.4-1.7
		c-1.2,0.6-2.3-0.6-2.3-0.6l-1.7,2.3L1314.2,276.1z"/>
	<path style="clip-path:url(#SVGID_00000082355087005844928340000002643730793936312987_);fill:#FC9665;" d="M1247.6,262.5
		c0,0,8.1,3.4,10.4,1.7c2.3-1.7,2.9-2.8,2.9-2.8v-10.8c0,0,13.3,1.1,14.5-6.8c1.2-7.9,0.6-23.8,0.6-23.8s-17.4,2.8-20.3-4
		c-4.1,8.5-11.6,10.2-11.6,10.2l-2.9,2.3l-1.7,1.7c0,0-5.8-6.2-7.5,3.4c-1.7,9.6,9.8,7.4,9.8,7.4s5.2,7.4,9.3,6.2
		C1248.2,261.9,1247.6,262.5,1247.6,262.5"/>
	<path style="clip-path:url(#SVGID_00000082355087005844928340000002643730793936312987_);fill:#230552;" d="M1256.3,214.9
		c0,0,1.7,7.9,20.3,2.8c2.9,24.9,0,28.9-1.7,30.6c-1.7,1.7-12.7,3.4-12.7,3.4v6.8c0,0,12.7-0.6,19.7-6.8c2.3-28.3,1.7-30,1.7-30
		s-3.5-24.9-38.8-19.8c-11,6.8-12.9,8.9-12.9,16.8c-3.5,4.5-9.1,6.4-7.4,19.4c-4.6,12.5-15.2,32.7,2.2,32.1
		c11,2.8,17.7-7.2,17.7-7.2l2.1-1.7l3.5-13c0,0-5.2,0-8.7-6.2c-8.1-0.6-12.2,0-10.4-10.8c4.1-7.4,7.5-3.4,8.1-2.8
		c0.6,0.6,4.1-2.8,4.1-2.8S1248.8,223.9,1256.3,214.9"/>
	<path style="clip-path:url(#SVGID_00000082355087005844928340000002643730793936312987_);fill:#FFFFFF;" d="M1262.7,239.2l6.9,0.6
		C1269.6,239.8,1265.6,247.2,1262.7,239.2"/>
</g>
<polygon class="st7" points="1266.7,226.2 1267.1,232.7 1265.3,233.3 "/>
<polygon class="st8" points="1266.7,226.2 1267.1,232.7 1265.3,233.3 "/>
<g>
	<defs>
		<rect id="SVGID_00000000939726261288955200000015530643614162189225_" x="1.1" y="0" width="1500" height="500"/>
	</defs>
	<clipPath id="SVGID_00000174588647164898533220000006787409407721819071_">
		<use xlink:href="#SVGID_00000000939726261288955200000015530643614162189225_"  style="overflow:visible;"/>
	</clipPath>
	<path style="clip-path:url(#SVGID_00000174588647164898533220000006787409407721819071_);fill:none;stroke:#231F20;" d="
		M1249.4,231c0,0,5.2,1.3,9.8,0"/>
	<path style="clip-path:url(#SVGID_00000174588647164898533220000006787409407721819071_);fill:none;stroke:#231F20;" d="
		M1270.3,230.4c0,0,2.2,2,5,0.4"/>
	<path style="clip-path:url(#SVGID_00000174588647164898533220000006787409407721819071_);fill:#FC9665;" d="M1320.6,208.6l4.6,4.5
		l1.2-1.1c0,0,3.5,1.7,6.4-0.6c2.9-2.3,6.9-3.4,6.9-3.4s0.6-2.3-6.4,0c-1.2-1.7,0-2.3,0-2.3l9.8-4.5c0,0,3.5-3.4-6.4,0.6
		c6.4-5.1,8.7-8.5,4.6-6.2c-4.1,2.3-6.9,4.5-6.9,4.5s4.1-4,4.6-5.1c0.6-1.1-4.1,1.7-6.4,4c-2.3,2.3,1.7-2.8,1.7-2.8
		S1322.3,204.1,1320.6,208.6"/>
</g>
<line class="st46" x1="1264.7" y1="276.8" x2="1275.4" y2="288.2"/>
<polygon class="st21" points="1321.2,258.3 1323.5,283.3 1332.7,283.3 1338,257.2 "/>
<g>
	<defs>
		<rect id="SVGID_00000072241571466282781390000002623353275005684111_" x="1.1" y="0" width="1500" height="500"/>
	</defs>
	<clipPath id="SVGID_00000078767171430811293230000014014007243459393710_">
		<use xlink:href="#SVGID_00000072241571466282781390000002623353275005684111_"  style="overflow:visible;"/>
	</clipPath>
	<path style="clip-path:url(#SVGID_00000078767171430811293230000014014007243459393710_);fill:#FFA303;" d="M1324.1,264l0.6,16.4
		l5.8,0.6l4.1-17C1334.5,264,1330.4,266.8,1324.1,264"/>
	<path style="clip-path:url(#SVGID_00000078767171430811293230000014014007243459393710_);fill:#3C3048;" d="M1271.7,336.6l3.9,49.9
		l-6.9,55.9l-16.1-0.5l2.7-54.5l-8.2-37.8l-14.4,89.2l-19.6-0.2l13.2-104C1226.4,334.6,1250.4,329.5,1271.7,336.6"/>
	<path style="clip-path:url(#SVGID_00000078767171430811293230000014014007243459393710_);fill:#7DB258;" d="M1222.6,440.4l0.8,10.3
		l-23.9-0.3c0,0-5.7-4.8,11.8-8.3l0.3-3.3L1222.6,440.4z"/>
	<path style="clip-path:url(#SVGID_00000078767171430811293230000014014007243459393710_);fill:#7DB258;" d="M1249.5,443.2
		l-2.5,10.1l23.7,3.3c0,0,6.4-3.8-10.4-10l0.2-3.3L1249.5,443.2z"/>
	<path style="clip-path:url(#SVGID_00000078767171430811293230000014014007243459393710_);fill:#C36B2E;" d="M176.8,190l-5.5-3.8
		c0,0-0.3-10-1.5-10.1c-1.2-0.1-1,5.9-1,5.9l-6.7-10.3c0,0-2.1-0.6-1.5,1.5s2.9,6.4,2.9,6.4L159,174c0,0-0.7-1-0.1,1.1
		c0.6,2.1,2.3,4.3,2.3,4.3l-3.8-3.9c0,0-1.4-0.8-0.7,0.2c0.6,1,2.9,6.4,2.9,6.4s-3.7-5-4.2-4.1c-0.5,0.9,7.1,11.8,14.7,18.4
		C170,195.7,176.9,195.1,176.8,190"/>
	<path style="clip-path:url(#SVGID_00000078767171430811293230000014014007243459393710_);fill:#02B1AC;" d="M232.7,189.8
		l-36.9,12.5l-20-15c0,0-1.2,6.3-5.6,8.8c-4.4,2.5,10.6,36.9,42.5,20.6c-1.9,41.3-5.2,92.9-5.2,92.9l71.2,4.1
		c0,0-3.4-125.1-22.8-121.3C250.9,202.3,240.9,203.5,232.7,189.8"/>
</g>
<polygon class="st52" points="270.2,216.6 275.2,222.9 272.1,225.4 "/>
<g>
	<defs>
		<rect id="SVGID_00000139272259862407816380000010445031930397942663_" x="1.1" y="0" width="1500" height="500"/>
	</defs>
	<clipPath id="SVGID_00000069369254768250014480000010241755002065336247_">
		<use xlink:href="#SVGID_00000139272259862407816380000010445031930397942663_"  style="overflow:visible;"/>
	</clipPath>
	<path style="clip-path:url(#SVGID_00000069369254768250014480000010241755002065336247_);fill:#029A91;" d="M238.4,189.8
		c0,0,8.3,11.2,15.2,1.2c3.1,1.9,0.4,2.5,0.4,2.5s-9.6,15-20.2-3.8C237.5,189.1,238.4,189.8,238.4,189.8"/>
	<path style="clip-path:url(#SVGID_00000069369254768250014480000010241755002065336247_);fill:#C36B2E;" d="M239.8,191.7
		c2.5,3.1,7.5,6.3,11.9,0c1.2-6.3,0.6-7.5,0.6-7.5s14.4,7.5,11.9-18.8l-12.5-8.8c0,0-5,11.3-11.3,11.3c-4,0-8.1-3.1-9.4,4.4
		c0,6.3,5,4.4,8.1,5.6C239.2,191.7,239.8,191.7,239.8,191.7"/>
	<path style="clip-path:url(#SVGID_00000069369254768250014480000010241755002065336247_);fill:#231F20;" d="M251.7,169.3
		c0.8,0,1.4-0.6,1.4-1.4c0-0.8-0.6-1.4-1.4-1.4c-0.8,0-1.4,0.6-1.4,1.4C250.3,168.7,250.9,169.3,251.7,169.3"/>
	<path style="clip-path:url(#SVGID_00000069369254768250014480000010241755002065336247_);fill:none;stroke:#231F20;" d="
		M251.7,169.3c0.8,0,1.4-0.6,1.4-1.4c0-0.8-0.6-1.4-1.4-1.4c-0.8,0-1.4,0.6-1.4,1.4C250.3,168.7,250.9,169.3,251.7,169.3z"/>
	<path style="clip-path:url(#SVGID_00000069369254768250014480000010241755002065336247_);fill:#231F20;" d="M261.7,169.3
		c0.8,0,1.4-0.6,1.4-1.4c0-0.8-0.6-1.4-1.4-1.4c-0.8,0-1.4,0.6-1.4,1.4C260.3,168.7,260.9,169.3,261.7,169.3"/>
	<path style="clip-path:url(#SVGID_00000069369254768250014480000010241755002065336247_);fill:none;stroke:#231F20;" d="
		M261.7,169.3c0.8,0,1.4-0.6,1.4-1.4c0-0.8-0.6-1.4-1.4-1.4c-0.8,0-1.4,0.6-1.4,1.4C260.3,168.7,260.9,169.3,261.7,169.3z"/>
</g>
<polygon class="st7" points="257.5,168 259.5,171 257.5,171.5 "/>
<polygon class="st8" points="257.5,168 259.5,171 257.5,171.5 "/>
<g>
	<defs>
		<rect id="SVGID_00000145052483752492512020000014193820501618542487_" x="1.1" y="0" width="1500" height="500"/>
	</defs>
	<clipPath id="SVGID_00000124124087285338526070000015146622484338748820_">
		<use xlink:href="#SVGID_00000145052483752492512020000014193820501618542487_"  style="overflow:visible;"/>
	</clipPath>
	<path style="clip-path:url(#SVGID_00000124124087285338526070000015146622484338748820_);fill:#FFFFFF;" d="M253,173.7l5.4,0.6
		C258.5,174.3,255.4,180.3,253,173.7"/>
	<path style="clip-path:url(#SVGID_00000124124087285338526070000015146622484338748820_);fill:#3A1B20;" d="M238.9,187.7
		c0,0-15.6,0-16.3-2.4c-0.6-2.4,3.1-40.7,28.8-39.4c16.3,3.6,14.4,9.7,16.3,12.1c2.4,3.1,2.5,30.3,2.5,30.3H252l-0.6-3
		c0,0,17.5,4.2,11.9-20.6c-12.5-7.9-13.1-10.9-12.5-9.1c0.6,1.8-4.4,14-10.6,12.7c-2.2-0.4-6.3-3.6-9.4,3c-3.9,8.4,8.8,7.3,8.8,7.3
		L238.9,187.7z"/>
	<path style="clip-path:url(#SVGID_00000124124087285338526070000015146622484338748820_);fill:#C36B2E;" d="M278.4,208.3
		c0,0,2.3-0.9,3.2-2.2s0.9-1.3-2.8-0.4c-3.7,0.9-5.1,6.7-5.1,6.7l-2.9,4.3l4.5,5.5c5.1-4,5.4-5.8,5.4-5.8s7.8-3.1,8.3-6.2
		c0.5-3.1-4.2-7.5-7.4-2.7c0.5,1.3,1.8,0.4,1.8,0.4s-2.3,0.9-1.4,1.8c0.9,0.9,2.8-0.4,2.8-0.4s-2.3,1.3-1.8,1.8
		c0.5,0.4,0.9,1.3,2.8,0.4"/>
	<path style="clip-path:url(#SVGID_00000124124087285338526070000015146622484338748820_);fill:#C36B2E;" d="M219.7,310l-6.3,75
		l-6.9,4.4c0,0-0.6,7.5,16.3-1.9c10.6-49.4,15-74.4,15-74.4l10.6-0.6l3.8,75.6c0,0,15.6,9.4,17.5,1.9c-5-5-6.3-5.6-6.3-5.6l6.3-70.6
		C269.7,313.8,222.2,311.3,219.7,310"/>
	<path style="clip-path:url(#SVGID_00000124124087285338526070000015146622484338748820_);fill:#02B1AC;" d="M205.2,391.1
		c0,0-8.5,4.4-6.5,5.5c2,1.1,26.2-1.2,26.2-1.2l-0.5-7.5C224.4,387.9,214.2,394.8,205.2,391.1"/>
	<path style="clip-path:url(#SVGID_00000124124087285338526070000015146622484338748820_);fill:#02B1AC;" d="M251.7,388.9l0.4,6.3
		l26.2,2.8c0,0-2.2-8.2-7.3-7.1C266,391.9,272,398.4,251.7,388.9"/>
	<path style="clip-path:url(#SVGID_00000124124087285338526070000015146622484338748820_);fill:#DEFFFF;" d="M280.6,188.2
		c0,0-5.6,16.3,6.3,20.6c11.9,4.4,15.6-10,14.4-16.3L280.6,188.2z"/>
	<path style="clip-path:url(#SVGID_00000124124087285338526070000015146622484338748820_);fill:#A80C17;" d="M282.6,193.3
		c1.2,0,2.5,0,6.2,7.4c3.7,7.4,6.2-1.2,7.4-1.2c1.2,0,2.5,1.9,2.5,1.9s-11.2,18.6-18.6-5.6C282,193.9,282.6,193.3,282.6,193.3"/>
	<path style="clip-path:url(#SVGID_00000124124087285338526070000015146622484338748820_);fill:#DEFFFF;" d="M286.3,210.1v9.4
		c0,0-8.8,1.2-5.6,2.5c3.1,1.2,6.3,1.9,6.3,1.9s13.8,1.9,1.9-3.8c0.6-8.8,0.6-9.4,0.6-9.4L286.3,210.1z"/>
	<path style="clip-path:url(#SVGID_00000124124087285338526070000015146622484338748820_);fill:#FFD0BE;" d="M385.1,225.3
		c0,0-7.1,7.9-13.8,0c-1.2-14.6-0.8-14-0.8-14s-14,3.9-13.6-20.5c1.2-7.3,15.8-13.5,19.4-16.5c0.6-1.2,6.1,9.2,12.7,9.2
		c2.4,8.5,3,7.9,3,7.9s6.7-2.4,6.1,5.5c-0.6,7.9-7.9,4.9-7.9,4.9s-2.4,5.5-7.3,7.3C384.9,222.4,385.1,225.3,385.1,225.3"/>
	<path style="clip-path:url(#SVGID_00000124124087285338526070000015146622484338748820_);fill:none;stroke:#FFCFC1;" d="
		M385.1,225.3c0,0-7.1,7.9-13.8,0c-1.2-14.6-0.8-14-0.8-14s-14,3.9-13.6-20.5c1.2-7.3,15.8-13.5,19.4-16.5c0.6-1.2,6.1,9.2,12.7,9.2
		c2.4,8.5,3,7.9,3,7.9s6.7-2.4,6.1,5.5c-0.6,7.9-7.9,4.9-7.9,4.9s-2.4,5.5-7.3,7.3C384.9,222.4,385.1,225.3,385.1,225.3z"/>
</g>
<polygon class="st65" points="371.8,196 369,196.6 366.8,188.4 "/>
<polygon class="st66" points="371.8,196 369,196.6 366.8,188.4 "/>
<g>
	<defs>
		<rect id="SVGID_00000012459223197229468860000018020651142931117747_" x="1.1" y="0" width="1500" height="500"/>
	</defs>
	<clipPath id="SVGID_00000074419216576351681970000000319994985089847188_">
		<use xlink:href="#SVGID_00000012459223197229468860000018020651142931117747_"  style="overflow:visible;"/>
	</clipPath>
	<path style="clip-path:url(#SVGID_00000074419216576351681970000000319994985089847188_);fill:#FFFFFF;" d="M375.7,198.7l-5.9,2.4
		C369.8,201.1,375.7,208.2,375.7,198.7"/>
	<path style="clip-path:url(#SVGID_00000074419216576351681970000000319994985089847188_);fill:#2C355C;" d="M369.2,213.1l0.6,12
		h-10.2c0,0-6.3,10.3-12.9-30.4c-0.3-11,5.6-30.1,25.9-29.4c18.3,0.7,26.8,9.6,27.4,16.1c0.6,6.6,5,10.7,4.4,14.9
		c-0.6,4.2-0.2,12.2,1.6,15.2c1.8,3,12.8,6.3,11.6,21.3c-1.2,15-1.2,9-1.2,9s-6-17.3-28.1-15.6l-2.4,0.6l-1.8-17.3
		c0,0,4.2-3.6,6-6.6c3.6,0.6,7.8-0.6,8.4-5.4s-3-7.8-6-7.2c-3,0.6-3-7.8-3-7.8s-6.5,2.2-11.3-6.2c-1.9-2.8-1.9-2.1-1.9-2.1
		s-21.5,12.6-20.3,15.6C357.3,192.8,352.7,207.5,369.2,213.1"/>
	<path style="clip-path:url(#SVGID_00000074419216576351681970000000319994985089847188_);fill:#231F20;" d="M374.8,189.7
		c-0.6,0-1.1-0.5-1.1-1.1c0-0.6,0.5-1.1,1.1-1.1c0.6,0,1.1,0.5,1.1,1.1C375.9,189.2,375.4,189.7,374.8,189.7"/>
	<path style="clip-path:url(#SVGID_00000074419216576351681970000000319994985089847188_);fill:none;stroke:#231F20;" d="
		M374.8,189.7c-0.6,0-1.1-0.5-1.1-1.1c0-0.6,0.5-1.1,1.1-1.1c0.6,0,1.1,0.5,1.1,1.1C375.9,189.2,375.4,189.7,374.8,189.7z"/>
	<path style="clip-path:url(#SVGID_00000074419216576351681970000000319994985089847188_);fill:#231F20;" d="M362,194
		c-0.6,0-1.1-0.5-1.1-1.1c0-0.6,0.5-1.1,1.1-1.1c0.6,0,1.1,0.5,1.1,1.1C363.1,193.5,362.6,194,362,194"/>
	<path style="clip-path:url(#SVGID_00000074419216576351681970000000319994985089847188_);fill:none;stroke:#231F20;" d="M362,194
		c-0.6,0-1.1-0.5-1.1-1.1c0-0.6,0.5-1.1,1.1-1.1c0.6,0,1.1,0.5,1.1,1.1C363.1,193.5,362.6,194,362,194z"/>
	<path style="clip-path:url(#SVGID_00000074419216576351681970000000319994985089847188_);fill:#FFD0BE;" d="M356.2,280.9l-1.2,7.8
		l-14.5-3l0.6-1.8l-1.2-1.8l0.6-1.8c0,0-9.1-3.6-9.7-7.8c-0.6-4.2,9.7,4.2,9.7,4.2l-4.8-9.1c0,0-1.8-6,13.9,10.9
		C355.6,280.9,356.2,280.9,356.2,280.9"/>
	<path style="clip-path:url(#SVGID_00000074419216576351681970000000319994985089847188_);fill:none;stroke:#FFCFC1;" d="
		M356.2,280.9l-1.2,7.8l-14.5-3l0.6-1.8l-1.2-1.8l0.6-1.8c0,0-9.1-3.6-9.7-7.8c-0.6-4.2,9.7,4.2,9.7,4.2l-4.8-9.1
		c0,0-1.8-6,13.9,10.9C355.6,280.9,356.2,280.9,356.2,280.9z"/>
</g>
<path class="st38" d="M305.7,234.6"/>
<g>
	<defs>
		<rect id="SVGID_00000137844864628289152290000007048531098625183158_" x="1.1" y="0" width="1500" height="500"/>
	</defs>
	<clipPath id="SVGID_00000172416571959853135760000000023723380133672853_">
		<use xlink:href="#SVGID_00000137844864628289152290000007048531098625183158_"  style="overflow:visible;"/>
	</clipPath>
	<path style="clip-path:url(#SVGID_00000172416571959853135760000000023723380133672853_);fill:#FFD0BE;" d="M323.2,234.5l-4.8,3.6
		l-1.8-2.4c0,0-2.4,3-12.7-9c-1.8-3.6,0.6-3.6,0.6-3.6s-0.6-1.8,0.6-2.4c1.2-0.6,1.2,0,1.2,0s-0.6-2.4,1.2-2.4c1.8,0,9.6,4.2,9.6,6
		c0,1.8,0.6,2.4,0,2.4c-0.6,0-3.6-3.6-4.2-2.4c-0.6,1.2,0.6,0.6,0,1.8c-0.6,1.2-1.2,1.2-1.2,1.2l0.6,1.2v1.2l1.2,0.6
		c0,0,1.8-0.6,2.4-0.6c0.6,0,2.4-0.6,2.4-2.4c0-1.8,1.2-3.6-0.6-4.8c-1.8-1.2-2.4-2.4-2.4-2.4s1.8-1.8,5.4,2.4c1.8,3,0,4.2,0.6,6
		C322,230.3,323.2,234.5,323.2,234.5"/>
	<path style="clip-path:url(#SVGID_00000172416571959853135760000000023723380133672853_);fill:none;stroke:#FFCFC1;" d="
		M323.2,234.5l-4.8,3.6l-1.8-2.4c0,0-2.4,3-12.7-9c-1.8-3.6,0.6-3.6,0.6-3.6s-0.6-1.8,0.6-2.4c1.2-0.6,1.2,0,1.2,0s-0.6-2.4,1.2-2.4
		c1.8,0,9.6,4.2,9.6,6c0,1.8,0.6,2.4,0,2.4c-0.6,0-3.6-3.6-4.2-2.4c-0.6,1.2,0.6,0.6,0,1.8c-0.6,1.2-1.2,1.2-1.2,1.2l0.6,1.2v1.2
		l1.2,0.6c0,0,1.8-0.6,2.4-0.6c0.6,0,2.4-0.6,2.4-2.4c0-1.8,1.2-3.6-0.6-4.8c-1.8-1.2-2.4-2.4-2.4-2.4s1.8-1.8,5.4,2.4
		c1.8,3,0,4.2,0.6,6C322,230.3,323.2,234.5,323.2,234.5z"/>
	<path style="clip-path:url(#SVGID_00000172416571959853135760000000023723380133672853_);fill:#88DCA8;" d="M318.9,207.5l-6.3,7.6
		l0.5,21.8c0,0,9,1.8,4.2,2.4c-4.8,0.6-9,0-9,0s-2.6-1.8,3.2-2.9c0-4.7-0.5-20.6-0.5-20.6l-6.3-7.6L318.9,207.5z"/>
	
		<path style="clip-path:url(#SVGID_00000172416571959853135760000000023723380133672853_);fill:none;stroke:#DEFFFF;stroke-width:3;" d="
		M318.9,207.5l-6.3,7.6l0.5,21.8c0,0,9,1.8,4.2,2.4c-4.8,0.6-9,0-9,0s-2.6-1.8,3.2-2.9c0-4.7-0.5-20.6-0.5-20.6l-6.3-7.6
		L318.9,207.5z"/>
	<path style="clip-path:url(#SVGID_00000172416571959853135760000000023723380133672853_);fill:#FFD0BE;" d="M402.1,345.2l2.2,59.5
		l5.7,4.4c0,0,0.4,7.3-13.6-2.1c-8.1-48.1-9.7-60.1-9.7-60.1l-11-0.2l-4.1,60.5c0,0-13.3,8.9-14.8,1.6c4.3-4.8,5.4-5.4,5.4-5.4
		l-3.4-57C358.7,346.5,400,346.4,402.1,345.2"/>
	<path style="clip-path:url(#SVGID_00000172416571959853135760000000023723380133672853_);fill:none;stroke:#FFCFC1;" d="
		M402.1,345.2l2.2,59.5l5.7,4.4c0,0,0.4,7.3-13.6-2.1c-8.1-48.1-9.7-60.1-9.7-60.1l-11-0.2l-4.1,60.5c0,0-13.3,8.9-14.8,1.6
		c4.3-4.8,5.4-5.4,5.4-5.4l-3.4-57C358.7,346.5,400,346.4,402.1,345.2z"/>
	<path style="clip-path:url(#SVGID_00000172416571959853135760000000023723380133672853_);fill:#B14545;" d="M411.2,410.9
		c0,0,7.1,4.4,5.4,5.4c-1.7,1.1-22.2-1.6-22.2-1.6l0.6-7.3C395,407.4,403.5,414.4,411.2,410.9"/>
	<path style="clip-path:url(#SVGID_00000172416571959853135760000000023723380133672853_);fill:#B14545;" d="M371.9,408.1l-0.5,6.1
		l-22.2,2.3c0,0,2-8,6.3-6.9C359.8,410.8,354.5,417,371.9,408.1"/>
</g>
<polygon class="st78" points="407,288.4 410.6,354 353.9,352 360.9,290.5 "/>
<g>
	<defs>
		<rect id="SVGID_00000013891777372571063750000014371401040508684968_" x="1.1" y="0" width="1500" height="500"/>
	</defs>
	<clipPath id="SVGID_00000039129495492558325910000004297381142386021564_">
		<use xlink:href="#SVGID_00000013891777372571063750000014371401040508684968_"  style="overflow:visible;"/>
	</clipPath>
	<path style="clip-path:url(#SVGID_00000039129495492558325910000004297381142386021564_);fill:#B14545;" d="M482.4,422.4l0.7,8.1
		l-18.6-0.3c0,0-4.4-3.7,9.2-6.5l0.2-2.6L482.4,422.4z"/>
	<path style="clip-path:url(#SVGID_00000039129495492558325910000004297381142386021564_);fill:#FC9665;" d="M560.9,207.1l7-6.7
		c0,0,3.3-8.1,4.7-7.9s-0.3,7.1-0.3,7.1l10.4-10.4c0,0,2.6-0.2,1.3,2.1c-1.2,2.3-5,6.7-5,6.7l6.8-5.4c0,0,1-1-0.2,1.3
		c-1.2,2.3-3.8,4.4-3.8,4.4l5.4-3.7c0,0,1.8-0.6,0.8,0.4c-1,1-5,6.7-5,6.7s5.6-5,6-3.9c0.4,1.2-10.7,13.7-21.2,19.7
		C568,217,563.4,206.9,560.9,207.1"/>
	<path style="clip-path:url(#SVGID_00000039129495492558325910000004297381142386021564_);fill:#3C3048;" d="M517.2,323
		c0,0,3.2,24.7,2.4,47.8c15.8-7.8,19.5-11.1,19.5-11.1l8.1,12.7c0,0-28.6,23-37.8,18.2c-9.2-4.8-18.2-50.8-18.2-50.8l2.3,15.3
		l-8.8,66.8l-15-1.2c0,0,3.7-95.3,5-93.3C479.1,334,509.9,336.1,517.2,323"/>
	<path style="clip-path:url(#SVGID_00000039129495492558325910000004297381142386021564_);fill:#766FA7;" d="M462,271.2
		c0,0-10,59.4,7.5,61.9c17.5,2.5,50.6-3.1,54.4-5c3.8-1.9,3.1-33.8-9.4-56.3c19.6-20.4,30.1-30.8,57.1-51.8
		c-6-11.2-9.7-16.5-9.7-16.5s-15,31.5-60.5,42.7c-6.3,12.5-21.3,3.8-20.6,1.2c0.6-2.5-1.2-4.4-1.2-4.4s-31.9-3.8-36.3-15
		c-4.4-11.3-7.3-43-11.3-38.1c-2.5,3.1,0,4.4-11.9,3.8c-11.9-0.6,10,68.8,43.8,71.9C463.3,268.7,462,271.2,462,271.2"/>
	<path style="clip-path:url(#SVGID_00000039129495492558325910000004297381142386021564_);fill:#FD9A70;" d="M482,240l0.6,7.5
		c0,0,5,6.9,13.8,1.9c-0.6-13.8-1.2-15.6-1.2-15.6s4.4-0.6,8.1-6.3c6.3,0.6,7.5-1.2,7.5-4.4c0-3.1-4.4-5.6-8.1-3.8
		c-3.8,1.9-3.8-0.6-3.8-0.6s14.4-25-13.8-21.3c-2.5-6.3-9.4-6.3-16.3,13.1C460.2,236.8,484.5,240.6,482,240"/>
</g>
<polygon class="st7" points="481.9,211.9 479.8,220.3 481.3,220.9 "/>
<polygon class="st8" points="481.9,211.9 479.8,220.3 481.3,220.9 "/>
<g>
	<defs>
		<rect id="SVGID_00000176042849142995159280000012717090704504018066_" x="1.1" y="0" width="1500" height="500"/>
	</defs>
	<clipPath id="SVGID_00000018228099976639979900000013196262018206461865_">
		<use xlink:href="#SVGID_00000176042849142995159280000012717090704504018066_"  style="overflow:visible;"/>
	</clipPath>
	<path style="clip-path:url(#SVGID_00000018228099976639979900000013196262018206461865_);fill:#FFFFFF;" d="M477.7,225
		c0,0,5.5-0.6,6.1,2.5C484.5,230.5,477.1,235.4,477.7,225"/>
	<path style="clip-path:url(#SVGID_00000018228099976639979900000013196262018206461865_);fill:#231F20;" d="M488.9,215.5
		c1,0,1.9-0.7,1.9-1.6c0-0.9-0.8-1.6-1.9-1.6c-1,0-1.9,0.7-1.9,1.6C487.1,214.8,487.9,215.5,488.9,215.5"/>
	<path style="clip-path:url(#SVGID_00000018228099976639979900000013196262018206461865_);fill:none;stroke:#231F20;" d="
		M488.9,215.5c1,0,1.9-0.7,1.9-1.6c0-0.9-0.8-1.6-1.9-1.6c-1,0-1.9,0.7-1.9,1.6C487.1,214.8,487.9,215.5,488.9,215.5z"/>
	<path style="clip-path:url(#SVGID_00000018228099976639979900000013196262018206461865_);fill:#270A1E;" d="M471.4,201.2
		c0,0-3.7-9.4,10.6-13.8c14.4-4.4,15.6,0.6,16.9,0.6c1.2,0,2.5,2.5,2.5,2.5s4.4-0.6,8.1,6.2c3.7,6.9,3.1,13.8-1.9,20.6
		c-5,1.2-8.1,1.2-8.1,1.2s15-25-13.1-22.5C482.7,192.5,480.2,188.7,471.4,201.2"/>
	<path style="clip-path:url(#SVGID_00000018228099976639979900000013196262018206461865_);fill:#270A1E;" d="M504.5,189.3
		c0,0,10,10.6,13.1,8.1c3.1-2.5,6.9-10-6.9-12.5C504.5,185,504.5,189.3,504.5,189.3"/>
</g>
<polygon class="st88" points="503.4,190.1 504,190.1 515.1,198.5 511.4,197.9 "/>
<polyline class="st38" points="503.4,190.1 504,190.1 515.1,198.5 511.4,197.9 503.4,190.1 "/>
<g>
	<defs>
		<rect id="SVGID_00000152257503658772284320000017646279945314133922_" x="1.1" y="0" width="1500" height="500"/>
	</defs>
	<clipPath id="SVGID_00000173140499983158384930000017003685500147266948_">
		<use xlink:href="#SVGID_00000152257503658772284320000017646279945314133922_"  style="overflow:visible;"/>
	</clipPath>
	<path style="clip-path:url(#SVGID_00000173140499983158384930000017003685500147266948_);fill:#FF9669;" d="M420.4,193.3l10.5-4.5
		c0,0,1.7-9.9,0.1-12.6c-1.6-2.7-6.2-6.3-8.9-4.7c-2.7,1.6,4.2,1.7,4,3.6c-0.2,1.9-3.5,3.4-5.1,0.7c-1.6-2.7-5.6-6.9-5.6-6.9
		s-3.6-1.6-3.7-0.4c-0.1,1.2,0.8,4.5,0.8,4.5s-3-1.6-3.1-0.3c-0.1,1.2-0.3,2.5-0.3,2.5s-4.8-1.8-4.4,0.2c0.4,1.9,2.7,4.1,2.7,4.1
		S406.4,183,420.4,193.3"/>
	<path style="clip-path:url(#SVGID_00000173140499983158384930000017003685500147266948_);fill:#88DCA8;" d="M415.4,161.8l6.6,7.8
		l-0.5,22.3c0,0-9.3,1.8-4.4,2.4c4.9,0.6,9.3,0,9.3,0s2.7-1.8-3.3-3c0-4.8,0.5-21.1,0.5-21.1l6.6-7.8L415.4,161.8z"/>
	
		<path style="clip-path:url(#SVGID_00000173140499983158384930000017003685500147266948_);fill:none;stroke:#DEFFFF;stroke-width:3;" d="
		M415.4,161.8l6.6,7.8l-0.5,22.3c0,0-9.3,1.8-4.4,2.4c4.9,0.6,9.3,0,9.3,0s2.7-1.8-3.3-3c0-4.8,0.5-21.1,0.5-21.1l6.6-7.8
		L415.4,161.8z"/>
	<path style="clip-path:url(#SVGID_00000173140499983158384930000017003685500147266948_);fill:#B14545;" d="M541.8,361.6l6.6-4.8
		l9.5,15.9c0,0-0.9,5.7-10.4-4.4l-2.3,1.2L541.8,361.6z"/>
	<path style="clip-path:url(#SVGID_00000173140499983158384930000017003685500147266948_);fill:#231F20;" d="M476,213.5
		c1,0,1.9-0.7,1.9-1.6c0-0.9-0.8-1.6-1.9-1.6c-1,0-1.9,0.7-1.9,1.6C474.2,212.7,475,213.5,476,213.5"/>
	<path style="clip-path:url(#SVGID_00000173140499983158384930000017003685500147266948_);fill:none;stroke:#231F20;" d="M476,213.5
		c1,0,1.9-0.7,1.9-1.6c0-0.9-0.8-1.6-1.9-1.6c-1,0-1.9,0.7-1.9,1.6C474.2,212.7,475,213.5,476,213.5z"/>
</g>
<path class="st38" d="M818.7,288.6"/>
<g>
	<defs>
		<rect id="SVGID_00000101819736901666503280000012346786448326542267_" x="1.1" y="0" width="1500" height="500"/>
	</defs>
	<clipPath id="SVGID_00000062882563854693817820000001641430216174522811_">
		<use xlink:href="#SVGID_00000101819736901666503280000012346786448326542267_"  style="overflow:visible;"/>
	</clipPath>
	<path style="clip-path:url(#SVGID_00000062882563854693817820000001641430216174522811_);fill:#F5C2A7;" d="M779.6,189.4l2.1-11.3
		c0,0,2.7-1.8,3-6.2c7.3-0.5,5.9-2.4,6.8-3.9c0.9-1.5-1.3-5.8-4.7-3.6c-3.4,2.2-3.5-0.6-3.5-0.6s2.6-16.8-2.7-14.3
		c-5.3,2.5-10.6,4.9-18.9,1.4c-7.3,3.8-13.5,29-1,33.2c-0.2,4.4,0,2.8,0,2.8v1.4l8.4,2.8L779.6,189.4z"/>
	<path style="clip-path:url(#SVGID_00000062882563854693817820000001641430216174522811_);fill:#986529;" d="M766.9,136.3
		c0,0-8.9-3.6-9.7,3.9c-0.8,7.6,1.3,9,2.4,9.2s10.9,5.6,21.2-1.5c2.5-0.7,2.8,1,2.8,1s2.8,7.1,0.1,14.9c2.4-0.2,3.9-1.6,3.9-1.6
		s5.9-3.8,2.2-15.5c-2.4-2.3-2.4-1.6-4.2-2.3c-3.1-1.2-4.4-2.5-13.2-2.9C769.4,141.7,766.9,136.3,766.9,136.3"/>
	<path style="clip-path:url(#SVGID_00000062882563854693817820000001641430216174522811_);fill:none;stroke:#986529;" d="
		M766.9,136.3c0,0-8.9-3.6-9.7,3.9c-0.8,7.6,1.3,9,2.4,9.2s10.9,5.6,21.2-1.5c2.5-0.7,2.8,1,2.8,1s2.8,7.1,0.1,14.9
		c2.4-0.2,3.9-1.6,3.9-1.6s5.9-3.8,2.2-15.5c-2.4-2.3-2.4-1.6-4.2-2.3c-3.1-1.2-4.4-2.5-13.2-2.9
		C769.4,141.7,766.9,136.3,766.9,136.3z"/>
	<path style="clip-path:url(#SVGID_00000062882563854693817820000001641430216174522811_);fill:#231F20;" d="M772.7,165.5
		c1.3,0.2,2.5-0.6,2.7-1.8c0.2-1.2-0.6-2.3-1.9-2.5c-1.3-0.2-2.5,0.6-2.7,1.8C770.5,164.2,771.4,165.3,772.7,165.5"/>
	<path style="clip-path:url(#SVGID_00000062882563854693817820000001641430216174522811_);fill:#231F20;" d="M762.1,164.3
		c1.3,0.2,2.5-0.6,2.7-1.8c0.2-1.2-0.6-2.3-1.9-2.5c-1.3-0.2-2.5,0.6-2.7,1.8C759.9,163,760.8,164.1,762.1,164.3"/>
	<path style="clip-path:url(#SVGID_00000062882563854693817820000001641430216174522811_);fill:#FFFFFF;" d="M764.1,172.4
		c0,0,4.2,1.6,6.1,0.9C772,172.7,765.9,177.6,764.1,172.4"/>
	<path style="clip-path:url(#SVGID_00000062882563854693817820000001641430216174522811_);fill:none;stroke:#FFFFFF;" d="
		M764.1,172.4c0,0,4.2,1.6,6.1,0.9C772,172.7,765.9,177.6,764.1,172.4z"/>
</g>
<polygon class="st101" points="767.7,160.2 765.6,168.2 768.2,170.3 "/>
<polygon class="st102" points="759.2,186.9 767.6,191 780.1,189.7 785.7,193.8 776,202.2 770.4,193.8 763.4,200.8 755.1,192.4 "/>
<g>
	<defs>
		<rect id="SVGID_00000021121844925779237310000016833098964908518575_" x="1.1" y="0" width="1500" height="500"/>
	</defs>
	<clipPath id="SVGID_00000126306416936177108440000010311076796536404364_">
		<use xlink:href="#SVGID_00000021121844925779237310000016833098964908518575_"  style="overflow:visible;"/>
	</clipPath>
	<path style="clip-path:url(#SVGID_00000126306416936177108440000010311076796536404364_);fill:#A9BFE8;" d="M753.7,191h-7
		l-18.8-25.5l-7.3-30.2h-16.5c0,0,5.5,37,8.3,42.6c2.8,5.6,24.5,45.2,24.5,45.2l-8.4,61.3c0,0,0,4.2,5.6,1.4
		c5.6-2.8,48.8-2.8,52.9,1.4c4.2,4.2,7,0,7-1.4s-4.2-62.7-4.2-62.7l31.8-28.6l25.5-39.9l-13.5-5.4l-22.5,34.6l-20,10h-4.2l-11.1,9.8
		l-5.6-8.4l-7,7L753.7,191z"/>
	<path style="clip-path:url(#SVGID_00000126306416936177108440000010311076796536404364_);fill:#FFFFFF;" d="M769.1,200.9
		c0.8,0,1.5-0.7,1.5-1.5c0-0.8-0.7-1.5-1.5-1.5c-0.8,0-1.5,0.7-1.5,1.5C767.6,200.3,768.2,200.9,769.1,200.9"/>
	<path style="clip-path:url(#SVGID_00000126306416936177108440000010311076796536404364_);fill:#FFFFFF;" d="M769.1,210.7
		c0.8,0,1.5-0.7,1.5-1.5c0-0.8-0.7-1.5-1.5-1.5c-0.8,0-1.5,0.7-1.5,1.5C767.6,210,768.2,210.7,769.1,210.7"/>
	<path style="clip-path:url(#SVGID_00000126306416936177108440000010311076796536404364_);fill:#3C3048;" d="M734.2,287.2
		c0,0-11.1,64.1-11.1,65.5c0,1.4,4.2,71,4.2,71h20.9l1.4-69.7l12.5-47.4l7,43.2l1.4,72.4l22.3,1.4l1.4-73.8l-7-59.9
		C787.1,290,777.3,281.6,734.2,287.2"/>
</g>
<polygon class="st102" points="703.4,134.3 704.1,129.3 721.5,127 721.5,133.2 "/>
<polygon class="st102" points="837.2,144.5 835.9,148.7 849.6,153.5 851.8,148.2 "/>
<g>
	<defs>
		<rect id="SVGID_00000035525232170170958030000005992796763017952696_" x="1.1" y="0" width="1500" height="500"/>
	</defs>
	<clipPath id="SVGID_00000042005648128873280440000009903595316729897396_">
		<use xlink:href="#SVGID_00000035525232170170958030000005992796763017952696_"  style="overflow:visible;"/>
	</clipPath>
	<path style="clip-path:url(#SVGID_00000042005648128873280440000009903595316729897396_);fill:#4D5363;" d="M728.6,425.1v4.2
		c0,0-15.3-2.8-16.7,8.4h32v-12.5H728.6z"/>
	<path style="clip-path:url(#SVGID_00000042005648128873280440000009903595316729897396_);fill:#4D5363;" d="M789.9,425.1v4.2
		c0,0,15.3-2.8,16.7,8.4h-32v-12.5H789.9z"/>
</g>
<polygon class="st21" points="874.7,133.4 862.7,142.3 849.8,120.1 862.3,110.5 "/>
<g>
	<defs>
		<rect id="SVGID_00000079469330468175223140000001904808382289771669_" x="1.1" y="0" width="1500" height="500"/>
	</defs>
	<clipPath id="SVGID_00000072983328965088159800000000182011878286073790_">
		<use xlink:href="#SVGID_00000079469330468175223140000001904808382289771669_"  style="overflow:visible;"/>
	</clipPath>
	<path style="clip-path:url(#SVGID_00000072983328965088159800000000182011878286073790_);fill:#F5C2A7;" d="M707,128.8l11-3.4
		c0,0,2.7-9.7,1.4-12.5c-1.3-2.8-5.6-6.9-8.4-5.6c-2.8,1.3,4,2.1,3.6,4c-0.4,1.8-3.8,3-5.2,0.2c-1.3-2.8-4.8-7.4-4.8-7.4
		s-3.4-2-3.7-0.8c-0.3,1.2,0.3,4.5,0.3,4.5s-2.8-1.9-3.1-0.6l-0.5,2.4c0,0-4.6-2.3-4.4-0.3c0.2,2,2.3,4.3,2.3,4.3
		S694.2,117.1,707,128.8"/>
	<path style="clip-path:url(#SVGID_00000072983328965088159800000000182011878286073790_);fill:#88DCA8;" d="M704.8,97l5.9,8.5
		l-2.8,22.1c0,0-9.7,0.8-4.7,1.9c5,1.1,9.5,1,9.5,1s3-1.5-3.1-3.4c0.5-4.8,2.7-20.9,2.7-20.9l7.5-7.1L704.8,97z"/>
	
		<path style="clip-path:url(#SVGID_00000072983328965088159800000000182011878286073790_);fill:none;stroke:#DEFFFF;stroke-width:3;" d="
		M704.8,97l5.9,8.5l-2.8,22.1c0,0-9.7,0.8-4.7,1.9c5,1.1,9.5,1,9.5,1s3-1.5-3.1-3.4c0.5-4.8,2.7-20.9,2.7-20.9l7.5-7.1L704.8,97z"/>
</g>
<line class="st46" x1="730" y1="279.1" x2="793.3" y2="279.6"/>
<line class="st46" x1="733.7" y1="251.6" x2="791" y2="252.1"/>
<line class="st46" x1="731.5" y1="269.8" x2="792.5" y2="270.3"/>
<line class="st46" x1="732.2" y1="263.8" x2="792.5" y2="264.2"/>
<line class="st46" x1="733.4" y1="257.7" x2="792.1" y2="258.2"/>
<line class="st46" x1="734.1" y1="245.5" x2="791.4" y2="246"/>
<line class="st46" x1="735.3" y1="240" x2="790.3" y2="240"/>
<line class="st46" x1="736.8" y1="234.1" x2="790.3" y2="234.6"/>
<line class="st46" x1="737.1" y1="227.8" x2="789.5" y2="228.3"/>
<line class="st46" x1="737.8" y1="221.9" x2="790.3" y2="222.4"/>
<line class="st46" x1="705.6" y1="137.5" x2="719.7" y2="137.5"/>
<line class="st46" x1="705.6" y1="142.4" x2="721.4" y2="142.4"/>
<line class="st46" x1="706.5" y1="146.3" x2="723.1" y2="145.8"/>
<line class="st46" x1="707.9" y1="150.8" x2="721.9" y2="150.3"/>
<line class="st46" x1="707.9" y1="156" x2="724.6" y2="155.5"/>
<line class="st46" x1="708.6" y1="160.1" x2="725.3" y2="159.4"/>
<line class="st46" x1="710.1" y1="164.2" x2="725.4" y2="163.5"/>
<line class="st46" x1="711.7" y1="170.1" x2="728.4" y2="167.4"/>
<line class="st46" x1="713.5" y1="176.3" x2="730.7" y2="171.7"/>
<line class="st46" x1="714.9" y1="180.8" x2="732.3" y2="175.4"/>
<line class="st46" x1="717" y1="184.5" x2="735.2" y2="178.2"/>
<line class="st46" x1="719.2" y1="188.2" x2="737.8" y2="181.4"/>
<line class="st46" x1="721.4" y1="192.7" x2="740.8" y2="183.9"/>
<line class="st46" x1="723.7" y1="197.9" x2="743.1" y2="188.4"/>
<line class="st46" x1="728.2" y1="204.7" x2="745.4" y2="192.1"/>
<line class="st46" x1="732.6" y1="213.8" x2="746" y2="194.6"/>
<line class="st46" x1="735.5" y1="218.3" x2="746.3" y2="195.2"/>
<line class="st46" x1="788" y1="218.9" x2="739.3" y2="218.6"/>
<line class="st46" x1="740.9" y1="213.1" x2="787.5" y2="213.1"/>
<line class="st46" x1="741.6" y1="209.3" x2="767.1" y2="209.3"/>
<line class="st46" x1="771.5" y1="208.9" x2="785.2" y2="208.9"/>
<line class="st46" x1="745.3" y1="205.2" x2="785.2" y2="205.2"/>
<line class="st46" x1="833" y1="152.5" x2="843.8" y2="156.7"/>
<line class="st46" x1="830.7" y1="155.9" x2="841.8" y2="160.5"/>
<line class="st46" x1="829.2" y1="159" x2="839.5" y2="163.7"/>
<line class="st46" x1="827" y1="162.3" x2="837.6" y2="166.8"/>
<line class="st46" x1="824.8" y1="165.4" x2="835.8" y2="170.4"/>
<line class="st46" x1="822.5" y1="168" x2="833.6" y2="173.3"/>
<line class="st46" x1="820.3" y1="171.7" x2="831.3" y2="176.6"/>
<line class="st46" x1="818" y1="175.4" x2="829.1" y2="180.1"/>
<line class="st46" x1="816.5" y1="178.8" x2="828" y2="183.3"/>
<line class="st46" x1="815.8" y1="181.5" x2="826.3" y2="187.9"/>
<line class="st46" x1="814.3" y1="184.8" x2="822.2" y2="191.6"/>
<line class="st46" x1="812.1" y1="186.2" x2="817.7" y2="196.4"/>
<line class="st46" x1="808.4" y1="186" x2="814.8" y2="199.4"/>
<line class="st46" x1="803.9" y1="189.9" x2="809.5" y2="200.9"/>
<line class="st46" x1="799.4" y1="191.3" x2="804.5" y2="208.4"/>
<line class="st46" x1="796.4" y1="193.2" x2="798.6" y2="212.7"/>
<line class="st46" x1="793.9" y1="195" x2="793.5" y2="216.4"/>
<line class="st46" x1="791.5" y1="195.4" x2="790.4" y2="218.8"/>
<line class="st46" x1="779" y1="202.2" x2="787.5" y2="202.2"/>
<line class="st46" x1="783.2" y1="198.5" x2="788" y2="198.5"/>
<line class="st46" x1="785.6" y1="195.5" x2="789.5" y2="195.5"/>
<line class="st46" x1="746.7" y1="201.9" x2="761.8" y2="201.9"/>
<line class="st46" x1="765.3" y1="201.9" x2="773.1" y2="201.9"/>
<line class="st46" x1="747.6" y1="196.7" x2="758.3" y2="196.7"/>
<polygon class="st22" points="872.7,132.5 864.1,139.3 856.2,126 864.8,118.6 "/>
<line class="st46" x1="747.6" y1="192.8" x2="753.4" y2="192.8"/>
<text transform="matrix(1 0 0 1 745.437 219.0791)" class="st110 st111 st112">JIM</text>
<g>
	<defs>
		<rect id="SVGID_00000025426325702411427960000010848652897790777984_" x="1.1" y="0" width="1500" height="500"/>
	</defs>
	<clipPath id="SVGID_00000021800819507929119410000004764772353810454934_">
		<use xlink:href="#SVGID_00000025426325702411427960000010848652897790777984_"  style="overflow:visible;"/>
	</clipPath>
	<path style="clip-path:url(#SVGID_00000021800819507929119410000004764772353810454934_);fill:#F5C2A7;" d="M850.1,147.7l-9.8-4.3
		c0,0-1.6-9.3-0.1-11.8c1.5-2.5,5.8-5.9,8.3-4.4c2.5,1.5-3.9,1.6-3.7,3.3c0.2,1.8,3.3,3.2,4.8,0.7c1.5-2.5,5.2-6.4,5.2-6.4
		s3.4-1.5,3.5-0.4c0.1,1.2-0.7,4.2-0.7,4.2s2.8-1.5,2.9-0.3c0.1,1.2,0.2,2.3,0.2,2.3s4.5-1.7,4.1,0.2c-0.4,1.8-2.5,3.8-2.5,3.8
		S863.2,138.1,850.1,147.7"/>
	<path style="clip-path:url(#SVGID_00000021800819507929119410000004764772353810454934_);fill:#DEFFFF;" d="M861.5,138.6
		c0,0-2,3.2-4.7-0.1c-2.7-3.3-5.4-7.1-5.4-7.1s-1.9-1.6,2.5-4.4c-0.7-1.1-0.8-1.7-0.8-1.7s-6.2,2.4-3.4,6.8c2.8,4.4,5.6,8.3,5.6,8.3
		s3.4,4.4,7-0.1L861.5,138.6z"/>
	<path style="clip-path:url(#SVGID_00000021800819507929119410000004764772353810454934_);fill:#FC9665;" d="M1137.3,255.2l3.2,10.6
		c0,0,8.6-0.2,14.5-2.4c-1.8-7.4-3.2-11.4-3.2-11.4s3.6-0.6,3.2-8.1c4-1.6,4.8-4.1,4.8-4.9c0-0.7,0.8-5.7-4.6-5.5
		c0.7-2.2,0-2.2,0-2.2s-13.9-2-18.7-10.2c-7.3,8.9-10.6,8.7-10.6,8.7l-2.2,1.5l0.7,2.2c0,0-4-1-4,3.6c0,3.7,0.9,5.6,4.6,6.5
		C1126.5,247.9,1125.4,254.3,1137.3,255.2"/>
</g>
<polygon class="st116" points="1137.4,236.2 1135.9,243.7 1139.8,243.6 "/>
<g>
	<defs>
		<rect id="SVGID_00000105426238839415459950000010973468347531752605_" x="1.1" y="0" width="1500" height="500"/>
	</defs>
	<clipPath id="SVGID_00000142888084061605026920000000390426226983532435_">
		<use xlink:href="#SVGID_00000105426238839415459950000010973468347531752605_"  style="overflow:visible;"/>
	</clipPath>
	<path style="clip-path:url(#SVGID_00000142888084061605026920000000390426226983532435_);fill:#FFFFFF;" d="M1134.9,245.7l6.7-0.8
		C1141.6,244.9,1139.3,252.5,1134.9,245.7"/>
	<path style="clip-path:url(#SVGID_00000142888084061605026920000000390426226983532435_);fill:#231F20;" d="M1129.6,237.8
		c0.8,0,1.4-0.8,1.4-1.7c0-0.9-0.6-1.7-1.4-1.7c-0.8,0-1.4,0.8-1.4,1.7C1128.2,237.1,1128.8,237.8,1129.6,237.8"/>
	<path style="clip-path:url(#SVGID_00000142888084061605026920000000390426226983532435_);fill:none;stroke:#231F20;" d="
		M1129.6,237.8c0.8,0,1.4-0.8,1.4-1.7c0-0.9-0.6-1.7-1.4-1.7c-0.8,0-1.4,0.8-1.4,1.7C1128.2,237.1,1128.8,237.8,1129.6,237.8z"/>
	<path style="clip-path:url(#SVGID_00000142888084061605026920000000390426226983532435_);fill:#231F20;" d="M1143.1,237
		c0.8,0,1.4-0.8,1.4-1.7c0-0.9-0.6-1.7-1.4-1.7c-0.8,0-1.4,0.8-1.4,1.7C1141.7,236.2,1142.3,237,1143.1,237"/>
	<path style="clip-path:url(#SVGID_00000142888084061605026920000000390426226983532435_);fill:none;stroke:#231F20;" d="
		M1143.1,237c0.8,0,1.4-0.8,1.4-1.7c0-0.9-0.6-1.7-1.4-1.7c-0.8,0-1.4,0.8-1.4,1.7C1141.7,236.2,1142.3,237,1143.1,237z"/>
	<path style="clip-path:url(#SVGID_00000142888084061605026920000000390426226983532435_);fill:#3E1115;" d="M1142.1,225.9
		c0,0,4.5,3.1,11.8,4.9c0.4,0.1,0.8,8.4,1.2,8.5c0.5,0.1-0.2-9.2,0.3-9.2c2.2-0.8,5.2-20.3-16.3-19.5c-1.5,2.3-17.1-6.8-17.1,18.8
		c0.7,1.5,1.5,9.8,1.5,9.8l1.5-10.5c0,0,3.4,3.6,11.5-8.4C1138.1,223.5,1142.1,225.9,1142.1,225.9"/>
	<path style="clip-path:url(#SVGID_00000142888084061605026920000000390426226983532435_);fill:#3E1115;" d="M1128.7,210.5
		c0,0-3.7-12,10.4-12c14.1,0,10.4,12.7,10.4,12.7s-8.2-3-11.1-0.7C1133.9,209.7,1128.7,210.5,1128.7,210.5"/>
	<path style="clip-path:url(#SVGID_00000142888084061605026920000000390426226983532435_);fill:none;stroke:#231F20;" d="
		M1130,242.7c3.5,0,6.3-2.8,6.3-6.3s-2.8-6.3-6.3-6.3c-3.5,0-6.3,2.8-6.3,6.3S1126.6,242.7,1130,242.7z"/>
	<path style="clip-path:url(#SVGID_00000142888084061605026920000000390426226983532435_);fill:none;stroke:#231F20;" d="
		M1145.3,241.9c3.5,0,6.3-2.8,6.3-6.3s-2.8-6.3-6.3-6.3c-3.5,0-6.3,2.8-6.3,6.3S1141.8,241.9,1145.3,241.9z"/>
</g>
<line class="st38" x1="1136.5" y1="235.7" x2="1138" y2="235.7"/>
<line class="st38" x1="1151.8" y1="233.1" x2="1154" y2="232.5"/>
<g>
	<defs>
		<rect id="SVGID_00000092451032685302482410000011395005896190878338_" x="1.1" y="0" width="1500" height="500"/>
	</defs>
	<clipPath id="SVGID_00000135669084265231096770000001509043207463151007_">
		<use xlink:href="#SVGID_00000092451032685302482410000011395005896190878338_"  style="overflow:visible;"/>
	</clipPath>
	<path style="clip-path:url(#SVGID_00000135669084265231096770000001509043207463151007_);fill:#3C3048;" d="M1128.4,335.9
		l-12.6,57.2l-4.7,54.3l17.1,7l11.1-57.1l5.3-23.5l-0.2-21.2l5.6,107.2l14-0.5c0,0,11.6-119.3,9.6-120.8
		C1166,333.2,1144,331.9,1128.4,335.9"/>
	<path style="clip-path:url(#SVGID_00000135669084265231096770000001509043207463151007_);fill:#7C9092;" d="M1124.5,453.6l-2,10.4
		l-22.9-6.3c0,0-4.2-6.1,13.6-5.2l1.2-3.2L1124.5,453.6z"/>
	<path style="clip-path:url(#SVGID_00000135669084265231096770000001509043207463151007_);fill:#D6E5B3;" d="M1138.5,264.7
		c0,0-16.5,3.6-19.4,7c-1.8,8-9.6,37.7-9.6,37.7s-24.7-30.4-27.8-28.5c-3,1.8-13.3,8-13.3,8s30.4,43.5,37,44.7
		c6.6,1.2,19-4.8,19-4.8l1.7,11.6c0,0,47.2,5.6,50.9,3.1c3.6-2.5,5.1-21.3,5.1-21.3s15.8-2.3,15-16.9c-1-18.3-9.9-37.6-18.7-45.4
		c-16.1-0.6-21.6,2-21.6,2S1149.3,268.4,1138.5,264.7"/>
	<path style="clip-path:url(#SVGID_00000135669084265231096770000001509043207463151007_);fill:none;stroke:#FFFFFF;" d="
		M1138.5,264.7c0,0-16.5,3.6-19.4,7c-1.8,8-9.6,37.7-9.6,37.7s-24.7-30.4-27.8-28.5c-3,1.8-13.3,8-13.3,8s30.4,43.5,37,44.7
		c6.6,1.2,19-4.8,19-4.8l1.7,11.6c0,0,47.2,5.6,50.9,3.1c3.6-2.5,5.1-21.3,5.1-21.3s15.8-2.3,15-16.9c-1-18.3-9.9-37.6-18.7-45.4
		c-16.1-0.6-21.6,2-21.6,2S1149.3,268.4,1138.5,264.7z"/>
	<path style="clip-path:url(#SVGID_00000135669084265231096770000001509043207463151007_);fill:#FC9665;" d="M1070.2,285.7l9.7-5.5
		c0,0,0.6-9.8-1.2-12.3c-1.8-2.5-6.6-5.5-9.1-3.7c-2.4,1.8,4.2,1.2,4.2,3.1s-3,3.7-4.8,1.2c-1.8-2.5-6-6.1-6-6.1s-3.6-1.2-3.6,0
		c0,1.2,1.2,4.3,1.2,4.3s-3-1.2-3,0v2.5c0,0-4.8-1.2-4.2,0.6c0.6,1.8,3,3.7,3,3.7S1055.7,277.1,1070.2,285.7"/>
	<path style="clip-path:url(#SVGID_00000135669084265231096770000001509043207463151007_);fill:none;stroke:#FFFFFF;" d="
		M1170.9,279.1c0,0,35.4,41.7-19.1,29c2.3,11.7,2.4,12.7,2.4,12.7l27.9,1.2"/>
	<path style="clip-path:url(#SVGID_00000135669084265231096770000001509043207463151007_);fill:#7C9092;" d="M1162,460.3l1.4,10.6
		l-23.7,1c0,0-5.9-4.6,11.3-9.2l0.1-3.4L1162,460.3z"/>
	<path style="clip-path:url(#SVGID_00000135669084265231096770000001509043207463151007_);fill:none;stroke:#FFFFFF;" d="
		M1124.5,280.9c0,0-2.8,38.7,0.4,48.5"/>
	<path style="clip-path:url(#SVGID_00000135669084265231096770000001509043207463151007_);fill:#DEFFFF;" d="M1056.5,247.3
		c0,0-5.8,17,6.5,21.6c12.3,4.6,16.2-10.5,14.9-17L1056.5,247.3z"/>
	<path style="clip-path:url(#SVGID_00000135669084265231096770000001509043207463151007_);fill:#A80C17;" d="M1058.5,252.6
		c1.3,0,2.6,0,6.4,7.8c3.9,7.8,6.4-1.3,7.7-1.3s2.6,1.9,2.6,1.9s-11.6,19.5-19.3-5.8C1057.9,253.3,1058.5,252.6,1058.5,252.6"/>
	<path style="clip-path:url(#SVGID_00000135669084265231096770000001509043207463151007_);fill:#DEFFFF;" d="M1062.3,269.4v9.8
		c0,0-9.1,1.3-5.8,2.6c3.2,1.3,6.5,2,6.5,2s14.2,2,1.9-3.9c0.6-9.2,0.6-9.8,0.6-9.8L1062.3,269.4z"/>
	<path style="clip-path:url(#SVGID_00000135669084265231096770000001509043207463151007_);fill:#FC9665;" d="M1152.5,318.8l-0.7-6.4
		l-1.6,0.2c0,0-1.6-3.5-5.3-3.6c-3.7-0.1-7.5-1.7-7.5-1.7s-1.9,1.4,5,4c-0.2,2.1-1.4,1.8-1.4,1.8l-10.5-2.7c0,0-4.8,0.5,5.3,3.6
		c-8.2,0-12.1,1.1-7.5,1.9c4.6,0.8,8.3,0.8,8.3,0.8s-5.6,0.5-6.8,1c-1.2,0.5,4.2,1.2,7.4,0.9c3.2-0.3-3.1,1.1-3.1,1.1
		S1148.3,321.3,1152.5,318.8"/>
	<path style="clip-path:url(#SVGID_00000135669084265231096770000001509043207463151007_);fill:#FCB482;" d="M609.7,245.6v6
		c0,0-5.1,3.9-9,0c-0.3-5.7-0.2-5.8-0.2-5.8s-11.1-1.2-10.5-12.6c-6.3-0.3-5.4-2.7-5.1-5.4c0.3-2.7,3.9-4.5,4.8-2.7
		c0.9,1.8,2.1-0.6,2.1-0.6s0.9-10.8,2.1-11.1c1.2-0.3,4.2,11.4,10.8,2.7c6.9,4.5,13.8,4.2,13.8,4.2S624.8,243.2,609.7,245.6"/>
</g>
<polygon class="st129" points="606.6,225.7 607.8,234.4 605.4,235.9 "/>
<g>
	<defs>
		<rect id="SVGID_00000079460464758822126640000016674833528120237709_" x="1.1" y="0" width="1500" height="500"/>
	</defs>
	<clipPath id="SVGID_00000083062314936562227090000011299200506426643873_">
		<use xlink:href="#SVGID_00000079460464758822126640000016674833528120237709_"  style="overflow:visible;"/>
	</clipPath>
	<path style="clip-path:url(#SVGID_00000083062314936562227090000011299200506426643873_);fill:#FFFFFF;" d="M605.3,238.9l-4.8-1.2
		C600.5,237.7,601.4,242.5,605.3,238.9"/>
	<path style="clip-path:url(#SVGID_00000083062314936562227090000011299200506426643873_);fill:#B17133;" d="M592.4,225.4
		c0,0-1.5,4.8-2.7,1.2s-3.9-14.4,6-21.3c7.8-5.4,22.2-8.4,22.2,2.7c4.8,1.8,9,8.7,2.7,11.4c-1.2,6.9-1.5,6.9-1.5,6.9
		s-0.4-4.6-2.7-5.1c-4.2-0.9-10.8-4.8-11.1-5.4c-0.9-1.8-4.5,10.2-11.4-3.3C591.2,223,592.4,225.4,592.4,225.4"/>
	<path style="clip-path:url(#SVGID_00000083062314936562227090000011299200506426643873_);fill:#231F20;" d="M614,230.4
		c-0.9,0-1.7-0.8-1.7-1.8c0-1,0.7-1.8,1.7-1.8c0.9,0,1.7,0.8,1.7,1.8C615.6,229.7,614.9,230.4,614,230.4"/>
	<path style="clip-path:url(#SVGID_00000083062314936562227090000011299200506426643873_);fill:#231F20;" d="M600.4,230.4
		c-0.9,0-1.7-0.8-1.7-1.8c0-1,0.7-1.8,1.7-1.8c0.9,0,1.7,0.8,1.7,1.8C602.1,229.7,601.3,230.4,600.4,230.4"/>
	<path style="clip-path:url(#SVGID_00000083062314936562227090000011299200506426643873_);fill:none;stroke:#231F20;" d="
		M615.2,236.9c-3.5,0-6.4-2.9-6.4-6.4c0-3.5,2.9-6.4,6.4-6.4c3.5,0,6.4,2.9,6.4,6.4C621.6,234,618.7,236.9,615.2,236.9z"/>
	<path style="clip-path:url(#SVGID_00000083062314936562227090000011299200506426643873_);fill:none;stroke:#231F20;" d="
		M599.4,236.3c-3.5,0-6.4-2.9-6.4-6.4c0-3.5,2.9-6.4,6.4-6.4c3.5,0,6.4,2.9,6.4,6.4C605.8,233.4,603,236.3,599.4,236.3z"/>
	<path style="clip-path:url(#SVGID_00000083062314936562227090000011299200506426643873_);fill:none;stroke:#231F20;" d="
		M608.2,229.7c0,0-1.3-0.2-2.3-0.1"/>
	<path style="clip-path:url(#SVGID_00000083062314936562227090000011299200506426643873_);fill:#FCB482;" d="M668.3,271.1
		c0,0,7.3-6.8,9.6-6.6c2.2,0.2,18.2,4.3,19.2,5.5c1.1,1.2,3.2,3.5-12.1-0.4c11.3,6.1,12,6.3,12,6.3s1.5,2.1-1.4,1.7
		c-2.9-0.4-10.1-3.3-10.1-3.3l8.4,5.7c0,0,2.1,2.4-1.4,1.7c-3.6-0.7-10.3-4.9-10.3-4.9s4.4,6.3,3.4,6.6s-4.9-5-6.5-4.9
		c-1.6,0.1-2.4-1.7-2.4-1.7l-3,1.8L668.3,271.1z"/>
</g>
<polygon class="st21" points="682.8,253.3 674,282.8 684.5,287 702.4,259.8 "/>
<g>
	<defs>
		<rect id="SVGID_00000056400352002243859940000011061678686591278976_" x="1.1" y="0" width="1500" height="500"/>
	</defs>
	<clipPath id="SVGID_00000005224741015272117200000010044875210327705022_">
		<use xlink:href="#SVGID_00000056400352002243859940000011061678686591278976_"  style="overflow:visible;"/>
	</clipPath>
	<path style="clip-path:url(#SVGID_00000005224741015272117200000010044875210327705022_);fill:#FFFFFF;" d="M681.8,261.5l-4.2,19.7
		l6.7,2.4l9.9-19C694.2,264.6,688.6,266.8,681.8,261.5"/>
	<path style="clip-path:url(#SVGID_00000005224741015272117200000010044875210327705022_);fill:#3C3048;" d="M580.3,331.6
		c0,0-3.8,60.1-3.8,61.4c0,1.3-2.8,63.1-2.8,63.1h19.7l5-63.1l8.1-43.6l5.4,39.1l2.5,66.4l21,1.3l-1.6-67.6l-3.6-54.3
		C630.1,334.1,620.9,326.5,580.3,331.6"/>
	<path style="clip-path:url(#SVGID_00000005224741015272117200000010044875210327705022_);fill:#D47617;" d="M611.7,251.7
		c-1,0-6,6-12,0c-9,0-20,0-23,4c-3,4-25,43-21,52c4,9,23,6,23,6l1,23c0,0,49-2,50-2c1,0-1-34-1-34v-21c0,0,14,15,18,15
		c4,0,28-18,28-18l-3-9c0,0-22,9-27,8c-4.9-1-9-17-14-21C627.9,252.5,611.7,251.7,611.7,251.7"/>
	<path style="clip-path:url(#SVGID_00000005224741015272117200000010044875210327705022_);fill:none;stroke:#FFFFFF;" d="
		M611.7,251.7c-1,0-6,6-12,0c-9,0-20,0-23,4c-3,4-25,43-21,52c4,9,23,6,23,6l1,23c0,0,49-2,50-2c1,0-1-34-1-34v-21c0,0,14,15,18,15
		c4,0,28-18,28-18l-3-9c0,0-22,9-27,8c-4.9-1-9-17-14-21C627.9,252.5,611.7,251.7,611.7,251.7z"/>
	<path style="clip-path:url(#SVGID_00000005224741015272117200000010044875210327705022_);fill:#FE9B7C;" d="M607.5,296.2l7.1-2.3
		l6.8-8.6l6.2,0.8l5.9-5.4c0,0,4.9-4.3-4.7,10.6c8.1-1.3,10.2-1.4,10.2-1.4s-0.9,3.2-13,6.7c-1.8,5.3-7,4.4-7,4.4l-4.1,0.1l-3,1.1
		L607.5,296.2z"/>
</g>
<polyline class="st140" points="578.8,313.6 614.9,303.6 612.9,291.5 576.8,291.5 579.8,278.5 579.8,290.5 "/>
<polyline class="st46" points="578.8,313.6 614.9,303.6 612.9,291.5 576.8,291.5 579.8,278.5 579.8,290.5 "/>
<g>
	<defs>
		<rect id="SVGID_00000006676796698413189480000004433904060575886979_" x="1.1" y="0" width="1500" height="500"/>
	</defs>
	<clipPath id="SVGID_00000045619767277000570510000007129822011113157552_">
		<use xlink:href="#SVGID_00000006676796698413189480000004433904060575886979_"  style="overflow:visible;"/>
	</clipPath>
	<path style="clip-path:url(#SVGID_00000045619767277000570510000007129822011113157552_);fill:#7DB258;" d="M590.7,456.2l1.5,9.9
		l-23.1,1.3c0,0-5.8-4.2,10.9-8.8l0.1-3.2L590.7,456.2z"/>
	<path style="clip-path:url(#SVGID_00000045619767277000570510000007129822011113157552_);fill:#7DB258;" d="M616.9,457.1l-1.7,9.9
		l23.1,1.6c0,0,5.9-4.1-10.7-8.9l0-3.2L616.9,457.1z"/>
	<path style="clip-path:url(#SVGID_00000045619767277000570510000007129822011113157552_);fill:#02B1AC;" d="M132.6,475l-0.9,11.4
		l25.9-0.4c0,0,6.2-5.2-12.8-9.1l-0.3-3.6L132.6,475z"/>
	<path style="clip-path:url(#SVGID_00000045619767277000570510000007129822011113157552_);fill:#02B1AC;" d="M46.6,390.7l-9.3-6.7
		l-13.2,22.2c0,0,1.3,8,14.5-6.1l3.2,1.6L46.6,390.7z"/>
	<path style="clip-path:url(#SVGID_00000045619767277000570510000007129822011113157552_);fill:#3C3048;" d="M80.5,335
		c0,0-4.5,34.3-3.4,66.5C55.3,390.6,50,386.1,50,386.1l-11.2,17.7c0,0,39.7,31.9,52.5,25.3c12.8-6.6,25.3-70.7,25.3-70.7l-3.2,21.3
		l12.2,93l20.9-1.6c0,0-5.1-132.6-6.9-129.8C133.6,350.3,90.7,353.2,80.5,335"/>
	<path style="clip-path:url(#SVGID_00000045619767277000570510000007129822011113157552_);fill:#5D89B8;" d="M73.6,317.3
		c0,0-8.8,23.1,45.6,25c34.4-6.2,30-24.4,30-24.4l1.9-48.8l-0.6,35.6c0,0,18.8,19.4,50.6-2.5c3.8-10-1.2-13.8-1.2-13.8
		s-19.4,1.9-40-30c-11.9-15-23.1-15.6-23.1-15.6s-11.9,16.3-22.5-1.9c-15,2.5-21.9-6.9-48.1,33.8c-26.3,40.6,33.1,60,50.6,31.3
		c2.5-13.1,0.6-13.1-5.6-17.5s-22.5-0.6-14.4-19.4"/>
	<path style="clip-path:url(#SVGID_00000045619767277000570510000007129822011113157552_);fill:#3A728D;" d="M76.8,330.4
		c0,0-0.6,5,1.9,6.9c2.5,1.9,18.8,12.5,38.8,11.3c20-1.3,27.5-13.8,27.5-13.8v-5C144.9,329.8,123,357.9,76.8,330.4"/>
	<path style="clip-path:url(#SVGID_00000045619767277000570510000007129822011113157552_);fill:#3A728D;" d="M118,239.1
		c0,0-13.1,7.5,5,11.3c20,1.9,10.6-8.8,9.4-10s0.6,4.4-3.1,5.6C125.5,247.2,118.6,247.2,118,239.1"/>
	<path style="clip-path:url(#SVGID_00000045619767277000570510000007129822011113157552_);fill:#FC9665;" d="M120.8,223.8l-1.2,16.9
		c0,0,1.9,8.1,13.1,1.9v-8.1c0,0,13.8,2.5,15-7.5c1.2-10,1.2-13.8,1.2-13.8s-16.5-5.8-16.9-6.3c-1.9-2.5,2.5,5-10,6.9
		c-2.5-1.9-8.1-5.6-10.6,3.1C111.4,225,122,224.4,120.8,223.8"/>
	<path style="clip-path:url(#SVGID_00000045619767277000570510000007129822011113157552_);fill:#231F20;" d="M134.9,215.8
		c0.6,0,1.1-0.5,1.1-1.1s-0.5-1.1-1.1-1.1c-0.6,0-1.1,0.5-1.1,1.1S134.3,215.8,134.9,215.8"/>
	<path style="clip-path:url(#SVGID_00000045619767277000570510000007129822011113157552_);fill:none;stroke:#231F20;" d="
		M134.9,215.8c0.6,0,1.1-0.5,1.1-1.1s-0.5-1.1-1.1-1.1c-0.6,0-1.1,0.5-1.1,1.1S134.3,215.8,134.9,215.8z"/>
	<path style="clip-path:url(#SVGID_00000045619767277000570510000007129822011113157552_);fill:#231F20;" d="M146.1,216.4
		c0.6,0,1.1-0.5,1.1-1.1s-0.5-1.1-1.1-1.1c-0.6,0-1.1,0.5-1.1,1.1S145.5,216.4,146.1,216.4"/>
	<path style="clip-path:url(#SVGID_00000045619767277000570510000007129822011113157552_);fill:none;stroke:#231F20;" d="
		M146.1,216.4c0.6,0,1.1-0.5,1.1-1.1s-0.5-1.1-1.1-1.1c-0.6,0-1.1,0.5-1.1,1.1S145.5,216.4,146.1,216.4z"/>
	<path style="clip-path:url(#SVGID_00000045619767277000570510000007129822011113157552_);fill:#FFFFFF;" d="M135.9,221.3
		c-0.1-0.6,7.3,1.2,7.3,1.2S137.7,229.9,135.9,221.3"/>
</g>
<polygon class="st7" points="141,214.5 143,218 141,218.5 "/>
<polygon class="st8" points="141,214.5 143,218 141,218.5 "/>
<g>
	<defs>
		<rect id="SVGID_00000046327471942137547110000015824578766583300484_" x="1.1" y="0" width="1500" height="500"/>
	</defs>
	<clipPath id="SVGID_00000134207298678862618720000012285869719683467179_">
		<use xlink:href="#SVGID_00000046327471942137547110000015824578766583300484_"  style="overflow:visible;"/>
	</clipPath>
	<path style="clip-path:url(#SVGID_00000134207298678862618720000012285869719683467179_);fill:#B57A42;" d="M111.7,212.3
		c0,0-5.6-12.5,5-18.8c1.9-0.6,1.9,0,1.9,0s23.1-24.4,38.1,6.9c0.6,3.8-3.1,4.4-3.1,4.4s3.8,8.1-3.8,7.5c-7.5-0.6-18.1-6.9-18.1-6.9
		s1.2,6.3-8.1,7.5C118,214.2,122.4,208.6,111.7,212.3"/>
	<path style="clip-path:url(#SVGID_00000134207298678862618720000012285869719683467179_);fill:#FC9665;" d="M118.7,293.4l9.7-1.5
		c0,0,7.5-4.8,8.5-3.8c1,1-4.5,5.8-4.5,5.8l14.6-2.5c0,0,2.2,1.4-0.2,2.6c-2.4,1.2-8.1,2.6-8.1,2.6l8.7-0.5c0,0,1.4-0.2-1,1
		c-2.4,1.2-5.7,1.4-5.7,1.4l6.5,0.1c0,0,1.8,0.6,0.4,0.8c-1.4,0.2-8.1,2.6-8.1,2.6s7.5-0.8,7.1,0.3c-0.4,1.2-16.8,5.1-28.8,3.8
		C118.6,305.8,120.8,294.7,118.7,293.4"/>
	<path style="clip-path:url(#SVGID_00000134207298678862618720000012285869719683467179_);fill:#FC9665;" d="M217.8,286.4
		c-5.2-2.3-14.8,5.1-14.8,5.1s1.6,7.1-1.9,9.9c5.5,1.1,18.6,1.4,18.6,1.4l8.8-9c0,0-0.3-7.3-1.2-6.3c-1,1-1.1,5.5-1.1,5.5
		s-1.8-6.5-2.4-4.7c-0.6,1.8-0.9,6.9-0.9,6.9s-1.4-5.7-2.8-5.5c-1.4,0.2-0.3,9.1-0.3,9.1s-2.8-5.5-3.4-3.7c-0.6,1.8,1.4,5.7,1.4,5.7
		l-2.2-5.3l2.2-2.6l-2.8-3.5c0,0-3.1,5.6-8.1,6.6c4.9-3,7.7-7.4,7.7-7.4S223,288.7,217.8,286.4"/>
	<path style="clip-path:url(#SVGID_00000134207298678862618720000012285869719683467179_);fill:#DEFFFF;" d="M206.7,272.7
		c0,0-2.5,18.1,10,18.1c12.5,0,11.9-17.5,11.9-17.5L206.7,272.7z"/>
	<path style="clip-path:url(#SVGID_00000134207298678862618720000012285869719683467179_);fill:#DEFFFF;" d="M215.4,291.4v11.3
		c0,0-11.3,3.1,1.9,3.8c13.1,0.6,3.8-4.4,1.2-3.8v-11.3C218.6,291.4,216.7,292.1,215.4,291.4"/>
	<path style="clip-path:url(#SVGID_00000134207298678862618720000012285869719683467179_);fill:#B14545;" d="M208.6,279.6
		c0,0-0.6,9.4,6.3,9.4c6.9,0,9.4-0.6,12.5-9.4c3.1-8.8-8.8-0.6-9.4,2.5C217.3,285.2,208.6,279.6,208.6,279.6"/>
	<path style="clip-path:url(#SVGID_00000134207298678862618720000012285869719683467179_);fill:#1C60B5;" d="M387.5,225.5
		c0,0,16.4-3.6,26.7,9.2c3.3,13.1,3.3,37.1-5.7,53c-7.1,7.9-51.7,3-51.7,3v-10.9l3.5,0.1l-0.5-11.6l-8.5,10.9c0,0-0.6,4.3-6.1,2.4
		c-5.5-1.8-27.4-31.6-31-37.1c12.8-10.9,13.4-11.6,13.4-11.6l17.6,17.6c0,0,8-20.6,9.7-22.8c1.7-2.2,14.7-2.2,14.7-2.2
		S378.4,234,387.5,225.5"/>
	<path style="clip-path:url(#SVGID_00000134207298678862618720000012285869719683467179_);fill:none;stroke:#FFFFFF;" d="
		M387.5,225.5c0,0,16.4-3.6,26.7,9.2c3.3,13.1,3.3,37.1-5.7,53c-7.1,7.9-51.7,3-51.7,3v-10.9l3.5,0.1l-0.5-11.6l-8.5,10.9
		c0,0-0.6,4.3-6.1,2.4c-5.5-1.8-27.4-31.6-31-37.1c12.8-10.9,13.4-11.6,13.4-11.6l17.6,17.6c0,0,8-20.6,9.7-22.8
		c1.7-2.2,14.7-2.2,14.7-2.2S378.4,234,387.5,225.5z"/>
	<path style="clip-path:url(#SVGID_00000134207298678862618720000012285869719683467179_);fill:none;stroke:#FFFFFF;" d="M399,256.9
		c0,0-9.2,25.1-38.3,22.6"/>
</g>
</svg>
