<?xml version="1.0" encoding="utf-8"?>
<!-- Generator: Adobe Illustrator 26.0.3, SVG Export Plug-In . SVG Version: 6.00 Build 0)  -->
<svg version="1.1" id="Layer_1" xmlns="http://www.w3.org/2000/svg" xmlns:xlink="http://www.w3.org/1999/xlink" x="0px" y="0px"
	 viewBox="0 0 1920 1080" style="enable-background:new 0 0 1920 1080;" xml:space="preserve">
<style type="text/css">
	.st0{fill:#F7EADE;}
	.st1{clip-path:url(#SVGID_00000039827248670251600630000003227673587098365364_);fill:#3C3048;}
	.st2{clip-path:url(#SVGID_00000039827248670251600630000003227673587098365364_);fill:#FFA303;}
	.st3{clip-path:url(#SVGID_00000039827248670251600630000003227673587098365364_);fill:#1C60B5;}
	.st4{clip-path:url(#SVGID_00000039827248670251600630000003227673587098365364_);fill:#FE9B7C;}
	.st5{clip-path:url(#SVGID_00000039827248670251600630000003227673587098365364_);fill:#FF9A7E;}
	.st6{clip-path:url(#SVGID_00000039827248670251600630000003227673587098365364_);fill:#3A1B20;}
	.st7{fill:#F0947D;}
	.st8{fill:none;stroke:#D36147;}
	.st9{clip-path:url(#SVGID_00000145038589411848667780000008682335747335030917_);fill:#FFFFFF;}
	.st10{clip-path:url(#SVGID_00000145038589411848667780000008682335747335030917_);fill:#231F20;}
	.st11{clip-path:url(#SVGID_00000145038589411848667780000008682335747335030917_);fill:none;stroke:#231F20;}
	.st12{clip-path:url(#SVGID_00000145038589411848667780000008682335747335030917_);fill:#FF9A7E;}
	.st13{clip-path:url(#SVGID_00000145038589411848667780000008682335747335030917_);fill:#3C3048;}
	.st14{clip-path:url(#SVGID_00000145038589411848667780000008682335747335030917_);fill:#1C60B5;}
	.st15{clip-path:url(#SVGID_00000145038589411848667780000008682335747335030917_);fill:#FFA303;}
	.st16{clip-path:url(#SVGID_00000145038589411848667780000008682335747335030917_);fill:#B44F31;}
	.st17{clip-path:url(#SVGID_00000029048078036754161370000017206805590839386801_);fill:#FFFFFF;}
	.st18{clip-path:url(#SVGID_00000029048078036754161370000017206805590839386801_);fill:#DBE0FE;}
	.st19{clip-path:url(#SVGID_00000029048078036754161370000017206805590839386801_);fill:#B44F31;}
	.st20{clip-path:url(#SVGID_00000029048078036754161370000017206805590839386801_);fill:none;stroke:#FFFFFF;}
	.st21{fill:#DEFFFF;}
	.st22{fill:#FFA303;}
	.st23{clip-path:url(#SVGID_00000088838414667023810810000013955680814628267965_);fill:#DEFFFF;}
	.st24{clip-path:url(#SVGID_00000088838414667023810810000013955680814628267965_);fill:#1C60B5;}
	.st25{clip-path:url(#SVGID_00000088838414667023810810000013955680814628267965_);fill:#3C3048;}
	.st26{clip-path:url(#SVGID_00000088838414667023810810000013955680814628267965_);fill:#D65011;}
	.st27{clip-path:url(#SVGID_00000088838414667023810810000013955680814628267965_);fill:none;stroke:#FFFFFF;}
	.st28{clip-path:url(#SVGID_00000088838414667023810810000013955680814628267965_);fill:#FD9D77;}
	.st29{clip-path:url(#SVGID_00000093162061781267676750000010576340641973377665_);fill:#FFFFFF;}
	.st30{clip-path:url(#SVGID_00000093162061781267676750000010576340641973377665_);fill:#FF934B;}
	.st31{clip-path:url(#SVGID_00000093162061781267676750000010576340641973377665_);fill:#231F20;}
	.st32{clip-path:url(#SVGID_00000093162061781267676750000010576340641973377665_);fill:none;stroke:#231F20;}
	.st33{clip-path:url(#SVGID_00000093162061781267676750000010576340641973377665_);fill:#FD9D77;}
	.st34{clip-path:url(#SVGID_00000093162061781267676750000010576340641973377665_);fill:none;stroke:#FFFFFF;}
	.st35{clip-path:url(#SVGID_00000093162061781267676750000010576340641973377665_);fill:#766FA7;}
	.st36{clip-path:url(#SVGID_00000093162061781267676750000010576340641973377665_);fill:#DEFFFF;}
	.st37{clip-path:url(#SVGID_00000093162061781267676750000010576340641973377665_);fill:#A80C17;}
	.st38{fill:none;stroke:#231F20;}
	.st39{clip-path:url(#SVGID_00000036216147979050227520000011796639036874629306_);fill:#7DB258;}
	.st40{clip-path:url(#SVGID_00000036216147979050227520000011796639036874629306_);fill:none;stroke:#FFFFFF;}
	.st41{clip-path:url(#SVGID_00000036216147979050227520000011796639036874629306_);fill:#FC9665;}
	.st42{clip-path:url(#SVGID_00000036216147979050227520000011796639036874629306_);fill:#230552;}
	.st43{clip-path:url(#SVGID_00000036216147979050227520000011796639036874629306_);fill:#FFFFFF;}
	.st44{clip-path:url(#SVGID_00000013153651572535727420000001942885078770656400_);fill:none;stroke:#231F20;}
	.st45{clip-path:url(#SVGID_00000013153651572535727420000001942885078770656400_);fill:#FC9665;}
	.st46{fill:none;stroke:#FFFFFF;}
	.st47{clip-path:url(#SVGID_00000074438274039576403340000014031197021786216073_);fill:#FFA303;}
	.st48{clip-path:url(#SVGID_00000074438274039576403340000014031197021786216073_);fill:#3C3048;}
	.st49{clip-path:url(#SVGID_00000074438274039576403340000014031197021786216073_);fill:#7DB258;}
	.st50{clip-path:url(#SVGID_00000074438274039576403340000014031197021786216073_);fill:#C36B2E;}
	.st51{clip-path:url(#SVGID_00000074438274039576403340000014031197021786216073_);fill:#02B1AC;}
	.st52{fill:#00B2AE;}
	.st53{clip-path:url(#SVGID_00000105427214839451078890000013962172335907808185_);fill:#029A91;}
	.st54{clip-path:url(#SVGID_00000105427214839451078890000013962172335907808185_);fill:#C36B2E;}
	.st55{clip-path:url(#SVGID_00000105427214839451078890000013962172335907808185_);fill:#231F20;}
	.st56{clip-path:url(#SVGID_00000105427214839451078890000013962172335907808185_);fill:none;stroke:#231F20;}
	.st57{clip-path:url(#SVGID_00000002364770235942745440000008456125623010651327_);fill:#FFFFFF;}
	.st58{clip-path:url(#SVGID_00000002364770235942745440000008456125623010651327_);fill:#3A1B20;}
	.st59{clip-path:url(#SVGID_00000002364770235942745440000008456125623010651327_);fill:#C36B2E;}
	.st60{clip-path:url(#SVGID_00000002364770235942745440000008456125623010651327_);fill:#02B1AC;}
	.st61{clip-path:url(#SVGID_00000002364770235942745440000008456125623010651327_);fill:#DEFFFF;}
	.st62{clip-path:url(#SVGID_00000002364770235942745440000008456125623010651327_);fill:#A80C17;}
	.st63{clip-path:url(#SVGID_00000002364770235942745440000008456125623010651327_);fill:#FFD0BE;}
	.st64{clip-path:url(#SVGID_00000002364770235942745440000008456125623010651327_);fill:none;stroke:#FFCFC1;}
	.st65{fill:#FFB598;}
	.st66{fill:none;stroke:#EAA68C;}
	.st67{clip-path:url(#SVGID_00000093857076137732677820000009056242592985788833_);fill:#FFFFFF;}
	.st68{clip-path:url(#SVGID_00000093857076137732677820000009056242592985788833_);fill:#2C355C;}
	.st69{clip-path:url(#SVGID_00000093857076137732677820000009056242592985788833_);fill:#231F20;}
	.st70{clip-path:url(#SVGID_00000093857076137732677820000009056242592985788833_);fill:none;stroke:#231F20;}
	.st71{clip-path:url(#SVGID_00000093857076137732677820000009056242592985788833_);fill:#FFD0BE;}
	.st72{clip-path:url(#SVGID_00000093857076137732677820000009056242592985788833_);fill:none;stroke:#FFCFC1;}
	.st73{clip-path:url(#SVGID_00000176725637031850026840000009108695187902760331_);fill:#FFD0BE;}
	.st74{clip-path:url(#SVGID_00000176725637031850026840000009108695187902760331_);fill:none;stroke:#FFCFC1;}
	.st75{clip-path:url(#SVGID_00000176725637031850026840000009108695187902760331_);fill:#88DCA8;}
	.st76{clip-path:url(#SVGID_00000176725637031850026840000009108695187902760331_);fill:none;stroke:#DEFFFF;stroke-width:3;}
	.st77{clip-path:url(#SVGID_00000176725637031850026840000009108695187902760331_);fill:#B14545;}
	.st78{fill:#1C60B5;}
	.st79{clip-path:url(#SVGID_00000143602752506999159310000007197628767721416356_);fill:#B14545;}
	.st80{clip-path:url(#SVGID_00000143602752506999159310000007197628767721416356_);fill:#FC9665;}
	.st81{clip-path:url(#SVGID_00000143602752506999159310000007197628767721416356_);fill:#3C3048;}
	.st82{clip-path:url(#SVGID_00000143602752506999159310000007197628767721416356_);fill:#766FA7;}
	.st83{clip-path:url(#SVGID_00000143602752506999159310000007197628767721416356_);fill:#FD9A70;}
	.st84{clip-path:url(#SVGID_00000057138741165677332250000007866311779754106255_);fill:#FFFFFF;}
	.st85{clip-path:url(#SVGID_00000057138741165677332250000007866311779754106255_);fill:#231F20;}
	.st86{clip-path:url(#SVGID_00000057138741165677332250000007866311779754106255_);fill:none;stroke:#231F20;}
	.st87{clip-path:url(#SVGID_00000057138741165677332250000007866311779754106255_);fill:#270A1E;}
	.st88{fill:#FF1E1E;}
	.st89{clip-path:url(#SVGID_00000003786700567190179200000015862690724609741963_);fill:#FF9669;}
	.st90{clip-path:url(#SVGID_00000003786700567190179200000015862690724609741963_);fill:#88DCA8;}
	.st91{clip-path:url(#SVGID_00000003786700567190179200000015862690724609741963_);fill:none;stroke:#DEFFFF;stroke-width:3;}
	.st92{clip-path:url(#SVGID_00000003786700567190179200000015862690724609741963_);fill:#B14545;}
	.st93{clip-path:url(#SVGID_00000003786700567190179200000015862690724609741963_);fill:#231F20;}
	.st94{clip-path:url(#SVGID_00000003786700567190179200000015862690724609741963_);fill:none;stroke:#231F20;}
	.st95{clip-path:url(#SVGID_00000137839309350316922560000018230453925455489183_);fill:#F5C2A7;}
	.st96{clip-path:url(#SVGID_00000137839309350316922560000018230453925455489183_);fill:#986529;}
	.st97{clip-path:url(#SVGID_00000137839309350316922560000018230453925455489183_);fill:none;stroke:#986529;}
	.st98{clip-path:url(#SVGID_00000137839309350316922560000018230453925455489183_);fill:#231F20;}
	.st99{clip-path:url(#SVGID_00000137839309350316922560000018230453925455489183_);fill:#FFFFFF;}
	.st100{clip-path:url(#SVGID_00000137839309350316922560000018230453925455489183_);fill:none;stroke:#FFFFFF;}
	.st101{fill:#F8A181;}
	.st102{fill:#C6D9EB;}
	.st103{clip-path:url(#SVGID_00000106120793516443594120000012202661672536626821_);fill:#A9BFE8;}
	.st104{clip-path:url(#SVGID_00000106120793516443594120000012202661672536626821_);fill:#FFFFFF;}
	.st105{clip-path:url(#SVGID_00000106120793516443594120000012202661672536626821_);fill:#3C3048;}
	.st106{clip-path:url(#SVGID_00000181075081092326957010000015651278295956701606_);fill:#4D5363;}
	.st107{clip-path:url(#SVGID_00000106126978344173480380000017851225254939688090_);fill:#F5C2A7;}
	.st108{clip-path:url(#SVGID_00000106126978344173480380000017851225254939688090_);fill:#88DCA8;}
	.st109{clip-path:url(#SVGID_00000106126978344173480380000017851225254939688090_);fill:none;stroke:#DEFFFF;stroke-width:3;}
	.st110{fill:#231F20;}
	.st111{font-family:'KohinoorDevanagari-Bold';}
	.st112{font-size:10px;}
	.st113{clip-path:url(#SVGID_00000096042758008548407890000005000091914105399711_);fill:#F5C2A7;}
	.st114{clip-path:url(#SVGID_00000096042758008548407890000005000091914105399711_);fill:#DEFFFF;}
	.st115{clip-path:url(#SVGID_00000096042758008548407890000005000091914105399711_);fill:#FC9665;}
	.st116{fill:#FFCE95;}
	.st117{clip-path:url(#SVGID_00000143615580560695387500000016789344499945978772_);fill:#FFFFFF;}
	.st118{clip-path:url(#SVGID_00000143615580560695387500000016789344499945978772_);fill:#231F20;}
	.st119{clip-path:url(#SVGID_00000143615580560695387500000016789344499945978772_);fill:none;stroke:#231F20;}
	.st120{clip-path:url(#SVGID_00000143615580560695387500000016789344499945978772_);fill:#3E1115;}
	.st121{clip-path:url(#SVGID_00000135650875875774225660000000388658177548777097_);fill:#3C3048;}
	.st122{clip-path:url(#SVGID_00000135650875875774225660000000388658177548777097_);fill:#7C9092;}
	.st123{clip-path:url(#SVGID_00000135650875875774225660000000388658177548777097_);fill:#D6E5B3;}
	.st124{clip-path:url(#SVGID_00000135650875875774225660000000388658177548777097_);fill:none;stroke:#FFFFFF;}
	.st125{clip-path:url(#SVGID_00000135650875875774225660000000388658177548777097_);fill:#FC9665;}
	.st126{clip-path:url(#SVGID_00000135650875875774225660000000388658177548777097_);fill:#DEFFFF;}
	.st127{clip-path:url(#SVGID_00000135650875875774225660000000388658177548777097_);fill:#A80C17;}
	.st128{clip-path:url(#SVGID_00000135650875875774225660000000388658177548777097_);fill:#FCB482;}
	.st129{fill:#FC9665;}
	.st130{clip-path:url(#SVGID_00000144329419105284415540000002261520227899590576_);fill:#FFFFFF;}
	.st131{clip-path:url(#SVGID_00000144329419105284415540000002261520227899590576_);fill:#B17133;}
	.st132{clip-path:url(#SVGID_00000144329419105284415540000002261520227899590576_);fill:#231F20;}
	.st133{clip-path:url(#SVGID_00000144329419105284415540000002261520227899590576_);fill:none;stroke:#231F20;}
	.st134{clip-path:url(#SVGID_00000144329419105284415540000002261520227899590576_);fill:#FCB482;}
	.st135{clip-path:url(#SVGID_00000098197292389872549910000006523389469993179293_);fill:#FFFFFF;}
	.st136{clip-path:url(#SVGID_00000098197292389872549910000006523389469993179293_);fill:#3C3048;}
	.st137{clip-path:url(#SVGID_00000098197292389872549910000006523389469993179293_);fill:#D47617;}
	.st138{clip-path:url(#SVGID_00000098197292389872549910000006523389469993179293_);fill:none;stroke:#FFFFFF;}
	.st139{clip-path:url(#SVGID_00000098197292389872549910000006523389469993179293_);fill:#FE9B7C;}
	.st140{fill:#D47617;}
	.st141{clip-path:url(#SVGID_00000130617600077125934850000016037262258368359614_);fill:#7DB258;}
	.st142{clip-path:url(#SVGID_00000130617600077125934850000016037262258368359614_);fill:#02B1AC;}
	.st143{clip-path:url(#SVGID_00000130617600077125934850000016037262258368359614_);fill:#3C3048;}
	.st144{clip-path:url(#SVGID_00000130617600077125934850000016037262258368359614_);fill:#5D89B8;}
	.st145{clip-path:url(#SVGID_00000130617600077125934850000016037262258368359614_);fill:#3A728D;}
	.st146{clip-path:url(#SVGID_00000130617600077125934850000016037262258368359614_);fill:#FC9665;}
	.st147{clip-path:url(#SVGID_00000130617600077125934850000016037262258368359614_);fill:#231F20;}
	.st148{clip-path:url(#SVGID_00000130617600077125934850000016037262258368359614_);fill:none;stroke:#231F20;}
	.st149{clip-path:url(#SVGID_00000130617600077125934850000016037262258368359614_);fill:#FFFFFF;}
	.st150{clip-path:url(#SVGID_00000018953625571756482000000016320695735643477695_);fill:#B57A42;}
	.st151{clip-path:url(#SVGID_00000018953625571756482000000016320695735643477695_);fill:#FC9665;}
	.st152{clip-path:url(#SVGID_00000018953625571756482000000016320695735643477695_);fill:#DEFFFF;}
	.st153{clip-path:url(#SVGID_00000018953625571756482000000016320695735643477695_);fill:#B14545;}
	.st154{clip-path:url(#SVGID_00000018953625571756482000000016320695735643477695_);fill:#1C60B5;}
	.st155{clip-path:url(#SVGID_00000018953625571756482000000016320695735643477695_);fill:none;stroke:#FFFFFF;}
</style>
<rect x="-62.3" y="-54.2" class="st0" width="2045" height="1188"/>
<g>
	<defs>
		<rect id="SVGID_1_" x="-62.3" y="-54.2" width="2045" height="1188"/>
	</defs>
	<clipPath id="SVGID_00000065072526178211541490000007697913390158664108_">
		<use xlink:href="#SVGID_1_"  style="overflow:visible;"/>
	</clipPath>
	<path style="clip-path:url(#SVGID_00000065072526178211541490000007697913390158664108_);fill:#3C3048;" d="M1277.6,834.8l-5,63.8
		l8.8,71.5l20.5-0.7l-3.5-69.7l10.5-48.3l18.4,114l25-0.3l-16.8-132.9C1335.5,832.3,1304.9,825.7,1277.6,834.8"/>
	<path style="clip-path:url(#SVGID_00000065072526178211541490000007697913390158664108_);fill:#FFA303;" d="M1332.8,967.5
		l-1.1,13.2l30.5-0.4c0,0,7.3-6.1-15.1-10.6l-0.4-4.2L1332.8,967.5z"/>
	<path style="clip-path:url(#SVGID_00000065072526178211541490000007697913390158664108_);fill:#FFA303;" d="M1298.5,971.1l3.2,12.9
		l-30.2,4.3c0,0-8.2-4.9,13.2-12.8l-0.3-4.2L1298.5,971.1z"/>
	<path style="clip-path:url(#SVGID_00000065072526178211541490000007697913390158664108_);fill:#1C60B5;" d="M1196.1,664.8
		c11.7,23,33.7,61.5,89.3,67.3c5.9,0-2.9,4.6,7.3,4.6c10.2,0,8.7-5.1,8.7-5.1s26.4-9.5,52.7,16.3c26.4,25.9,39.6,52,39.6,52
		l-16.1,10.1l-41-47.4l14.6,63.2c0,0-26.4,15.8-29.3,14.4c-2.9-1.4-45.4,10.1-55.6-4.3c-10.2-14.4-8.8-47.4-8.8-47.4l-11.7-37.4
		c0,0-52.7,7.2-68.8-77.6C1196.1,666.3,1196.1,664.8,1196.1,664.8"/>
	<path style="clip-path:url(#SVGID_00000065072526178211541490000007697913390158664108_);fill:#FE9B7C;" d="M1179,672.5l-1.8-10.3
		l-10.6-11.2l2.4-8.4l-6.4-9.3c0,0-5.1-7.8,13.8,8.7c-0.2-11.6,0.1-14.5,0.1-14.5s4.2,1.9,6.8,19.5c7,3.6,4.8,10.6,4.8,10.6
		l-0.6,5.7l1,4.4L1179,672.5z"/>
	<path style="clip-path:url(#SVGID_00000065072526178211541490000007697913390158664108_);fill:#FF9A7E;" d="M1278,693.3l-0.7,10.1
		c0,0-4.2-3.9-7.3,1.4c-2.9,5,1.3,7.2,6.6,7.2c7.3,0-2.9,2.2,10.3,10.1c1.5,0,0,10.1,0,10.1s1.9,6.7,11.7,2.9
		c3.7-1.4,0-11.5,1.5-12.9c4.4,0,8.8-10.1,8.8-10.1s7.4,6.1,8.8-2.2c1.5-8.6-5.9-7.9-7.3-5c-1.5,2.9-2.9-12.9-2.9-12.9
		s-1.5-5.8-5.9-5.8C1297,686.1,1302.9,691.9,1278,693.3"/>
	<path style="clip-path:url(#SVGID_00000065072526178211541490000007697913390158664108_);fill:#3A1B20;" d="M1272.2,691.9l1.4,9.3
		l3.6,0.7l0.7-9.3c0,0,18,0.7,22.3-7.2c5-1.4,9.4,2.2,9.4,18c2.9-0.7,2.9-1.4,2.9-1.4s7.9-28.8-9.4-25.2c-1.4-2.9-7.2-15.8-25.9-9.3
		c-4.3,2.2-1.4,10.8-1.4,10.8s-11.5-5.8-14.4,0C1258.5,684,1262.1,687.6,1272.2,691.9"/>
</g>
<polygon class="st7" points="1292.7,699.8 1292.1,705.4 1294.7,705.4 "/>
<polygon class="st8" points="1292.7,699.8 1292.1,705.4 1294.7,705.4 "/>
<g>
	<defs>
		<rect id="SVGID_00000101801920435765746640000009833071775961505698_" x="-62.3" y="-54.2" width="2045" height="1188"/>
	</defs>
	<clipPath id="SVGID_00000109736641595342992210000005675292207009828510_">
		<use xlink:href="#SVGID_00000101801920435765746640000009833071775961505698_"  style="overflow:visible;"/>
	</clipPath>
	<path style="clip-path:url(#SVGID_00000109736641595342992210000005675292207009828510_);fill:#FFFFFF;" d="M1291.3,709.9l6.3,0.7
		C1297.6,710.6,1293.4,716,1291.3,709.9"/>
	<path style="clip-path:url(#SVGID_00000109736641595342992210000005675292207009828510_);fill:#231F20;" d="M1283.6,703.9
		c0.8,0,1.4-0.6,1.4-1.4c0-0.8-0.6-1.4-1.4-1.4c-0.8,0-1.4,0.6-1.4,1.4C1282.2,703.2,1282.8,703.9,1283.6,703.9"/>
	<path style="clip-path:url(#SVGID_00000109736641595342992210000005675292207009828510_);fill:none;stroke:#231F20;" d="
		M1283.6,703.9c0.8,0,1.4-0.6,1.4-1.4c0-0.8-0.6-1.4-1.4-1.4c-0.8,0-1.4,0.6-1.4,1.4C1282.2,703.2,1282.8,703.9,1283.6,703.9z"/>
	<path style="clip-path:url(#SVGID_00000109736641595342992210000005675292207009828510_);fill:#231F20;" d="M1303.4,701
		c0.8,0,1.4-0.6,1.4-1.4s-0.6-1.4-1.4-1.4c-0.8,0-1.4,0.6-1.4,1.4S1302.6,701,1303.4,701"/>
	<path style="clip-path:url(#SVGID_00000109736641595342992210000005675292207009828510_);fill:none;stroke:#231F20;" d="
		M1303.4,701c0.8,0,1.4-0.6,1.4-1.4s-0.6-1.4-1.4-1.4c-0.8,0-1.4,0.6-1.4,1.4S1302.6,701,1303.4,701z"/>
	<path style="clip-path:url(#SVGID_00000109736641595342992210000005675292207009828510_);fill:#FF9A7E;" d="M1379.6,807.8l2.8,10.9
		c0,0-1.8,10.1-0.3,10.7c1.5,0.6,4.2-7.3,4.2-7.3l3.9,16.6c0,0,2.5,1.7,2.7-1.3c0.2-3-0.8-9.7-0.8-9.7l3.4,9.4c0,0,0.4,1.6,0.6-1.5
		s-1-6.7-1-6.7l3.1,6.9c0,0,1.4,1.6,1,0.1c-0.4-1.6-0.8-9.7-0.8-9.7s2.4,8.3,3.6,7.4c1.1-0.9-2-20-8.8-32.3
		C1393.1,802.2,1382.1,809.6,1379.6,807.8"/>
	<path style="clip-path:url(#SVGID_00000109736641595342992210000005675292207009828510_);fill:#3C3048;" d="M1151,836l21.4,61
		l-22.2,72.9l-18.5-9.7l10.3-57.3l-11.8-24.6l1.5-23.1l-8.1,118.3l-18.5,2.2c0,0-21.4-131-11.8-136.9
		C1102.9,833,1131,831.5,1151,836"/>
	<path style="clip-path:url(#SVGID_00000109736641595342992210000005675292207009828510_);fill:#1C60B5;" d="M1132.8,964.2
		l-7.6,11.5l27.2,14.7c0,0,9.5-1.9-8-17l1.8-4L1132.8,964.2z"/>
	<path style="clip-path:url(#SVGID_00000109736641595342992210000005675292207009828510_);fill:#FFA303;" d="M1130.5,755.7
		c0,0,21.9,1.4,23.9,10.3c2.1,8.9,10.9,38.5,10.9,38.5s23.2-32.3,26.6-30.3c3.4,2.1,15,8.9,15,8.9s-30.7,53-38.3,54.4
		c-7.5,1.4-25.3-9.6-25.3-9.6l-8.9,17.2c0,0-39.6,2.8-43.7,0c-4.1-2.8-5.5-6.9-5.5-6.9s-43-11.7-38.3-31.7c4.8-20,13.7-55,31.4-57.8
		c17.8-2.8,26.6,2.1,26.6,2.1S1110.7,768.7,1130.5,755.7"/>
	<path style="clip-path:url(#SVGID_00000109736641595342992210000005675292207009828510_);fill:#B44F31;" d="M1124.4,755.7
		c0,0-7.5,2.8-14.3-3.4c1.4-11.7,2.1-13.8,2.1-13.8s-8.9-3.4-8.9-12.4c-9.6-1.4-6.8-9.6-6.8-9.6s3.4-8.3,10.2,0.7
		c0-6.2,7.5-17.9,10.9-17.9c3.4,0,7.5,4.8,19.1-4.1c9.6-0.7,9.6,13.8,6.8,27.5c4.1,2.1,2.7,10.3-2.7,10.3
		c-4.1,6.9-11.6,8.3-14.3,7.6C1125.1,752.9,1124.4,755.7,1124.4,755.7"/>
	<path style="clip-path:url(#SVGID_00000109736641595342992210000005675292207009828510_);fill:none;stroke:#231F20;" d="
		M1123,716.3c0,0-4.7,1.3-7.3-3.2"/>
	<path style="clip-path:url(#SVGID_00000109736641595342992210000005675292207009828510_);fill:none;stroke:#231F20;" d="
		M1141.3,716.5c0,0-1.3,2.4-6.7,1.8"/>
</g>
<polygon class="st7" points="1129.7,713 1129.7,723.2 1127.3,723.2 "/>
<polygon class="st8" points="1129.7,713 1129.7,723.2 1127.3,723.2 "/>
<g>
	<defs>
		<rect id="SVGID_00000103226941210121284260000015901025265175634609_" x="-62.3" y="-54.2" width="2045" height="1188"/>
	</defs>
	<clipPath id="SVGID_00000097462719094662941040000013394560604214355101_">
		<use xlink:href="#SVGID_00000103226941210121284260000015901025265175634609_"  style="overflow:visible;"/>
	</clipPath>
	<path style="clip-path:url(#SVGID_00000097462719094662941040000013394560604214355101_);fill:#FFFFFF;" d="M1130.3,729.5l-7.9-3.3
		C1122.4,726.2,1121.8,736.8,1130.3,729.5"/>
	<path style="clip-path:url(#SVGID_00000097462719094662941040000013394560604214355101_);fill:#DBE0FE;" d="M1158.5,691.7
		c0,0-6.2,9.6-13.7,5.5c-7.5-4.1-8.2-5.5-14.3,0c-6.2,5.5-11.6-0.7-13.7-0.7c-2.1,0-12.3,15.1-10.9,17.9c1.4,2.8-2.1-2.1-2.1-2.1
		s-4.8-25.5,0-25.5s6.2,0.7,6.2,0.7s-3.4-11,15-4.8c12.3,2.1,13.7-6.9,19.1,1.4c5.5,8.3,8.9,2.1,8.9,2.1l-1.4,2.8L1158.5,691.7z"/>
	<path style="clip-path:url(#SVGID_00000097462719094662941040000013394560604214355101_);fill:#B44F31;" d="M1205,779.8l-10.9-6.2
		c0,0-0.7-11,1.4-13.8c2-2.8,7.5-6.2,10.2-4.1c2.7,2.1-4.8,1.4-4.8,3.4c0,2.1,3.4,4.1,5.5,1.4c2.1-2.8,6.8-6.9,6.8-6.9
		s4.1-1.4,4.1,0c0,1.4-1.4,4.8-1.4,4.8s3.4-1.4,3.4,0v2.8c0,0,5.5-1.4,4.8,0.7c-0.7,2.1-3.4,4.1-3.4,4.1S1221.4,770.1,1205,779.8"/>
	<path style="clip-path:url(#SVGID_00000097462719094662941040000013394560604214355101_);fill:none;stroke:#FFFFFF;" d="
		M1086.8,771.1c0,0-13.8,54.4,33.9,61.6c-2.6,13.1-6.7,14.5-6.7,14.5l-27.3-8.7"/>
	<path style="clip-path:url(#SVGID_00000097462719094662941040000013394560604214355101_);fill:#B44F31;" d="M1121.9,835l-3.3,9.7
		c0,0,29.4,5.2,30.8,4.5c1.4-0.7-5.5-2.7-5.5-2.7l12.9-4.2c0,0-6.2-0.6-8.2-0.6c-2,0,9.5-9,9.5-9s-9.5,6.3-13.6,4.9
		c-4.1-1.3-1.4-6.2,6.1-6.9c-6.9-4.8-8.9,0.8-17.7,2.2C1123.9,834.3,1121.9,835,1121.9,835"/>
</g>
<polygon class="st21" points="1238.5,769.8 1223.5,778.8 1211.2,751.3 1226.9,741.6 "/>
<polygon class="st22" points="1235.8,769.1 1224.8,776 1217.3,759.5 1228.3,751.9 "/>
<g>
	<defs>
		<rect id="SVGID_00000013166889514104372780000002665661836178149301_" x="-62.3" y="-54.2" width="2045" height="1188"/>
	</defs>
	<clipPath id="SVGID_00000057865896348636618010000017162856970764929453_">
		<use xlink:href="#SVGID_00000013166889514104372780000002665661836178149301_"  style="overflow:visible;"/>
	</clipPath>
	<path style="clip-path:url(#SVGID_00000057865896348636618010000017162856970764929453_);fill:#DEFFFF;" d="M1219.4,770.5
		c0,0-2.7,3.4-5.5-0.7c-2.7-4.1-5.5-8.9-5.5-8.9s-2-2.1,3.4-4.8c-0.7-1.4-0.7-2.1-0.7-2.1s-7.5,2.1-4.8,7.6s5.5,10.3,5.5,10.3
		s3.4,5.5,8.2,0.7L1219.4,770.5z"/>
	<path style="clip-path:url(#SVGID_00000057865896348636618010000017162856970764929453_);fill:#1C60B5;" d="M1107.9,976.6
		l-4.8,12.9l29.7,8.2c0,0,8.8-4-11.6-14.8l0.8-4.3L1107.9,976.6z"/>
	<path style="clip-path:url(#SVGID_00000057865896348636618010000017162856970764929453_);fill:#3C3048;" d="M1707.6,812.3
		l-21.3,60.1l22,71.8l18.3-9.5l-10.3-56.5l11.7-24.2l-1.5-22.7l8.1,116.6l18.3,2.2c0,0,21.3-129,11.7-134.9
		C1755.3,809.4,1727.4,807.9,1707.6,812.3"/>
	<path style="clip-path:url(#SVGID_00000057865896348636618010000017162856970764929453_);fill:#D65011;" d="M1717.1,705.9
		c0,0,7.3,7.3,15.4-3.7c8.1-11,110,35.9,44,87.2l8.8,30.8c0,0-8.8,9.5-44.7,1.5c-37.4-0.7-44-1.5-44-1.5l2.9-22
		c0,0-24.2,0-27.1-46.2l11-5.9l8.8,9.5C1692.2,755.7,1696.6,714.7,1717.1,705.9"/>
	<path style="clip-path:url(#SVGID_00000057865896348636618010000017162856970764929453_);fill:none;stroke:#FFFFFF;" d="M1748,744
		c0,0,30,20.5-12.4,43.2c3.7,11.7,3.7,13.9,3.7,13.9l35.1-10.2"/>
	<path style="clip-path:url(#SVGID_00000057865896348636618010000017162856970764929453_);fill:#FD9D77;" d="M1719.3,697.8l-0.7,7.3
		c0,0,5.1,5.1,12.5-2.2c0-15.4-0.7-15.4-0.7-15.4s11.7,3.7,8.8-8.8c-1.5-5.9-8.8-2.9-10.3-0.7c-1.5,2.2-13.9-5.9-12.5-11
		c-9.5,7.3-15.4,7.3-15.4,7.3S1699.6,706.6,1719.3,697.8"/>
</g>
<polygon class="st7" points="1709.1,678.5 1708.5,681.6 1711,683.5 "/>
<polygon class="st8" points="1709.1,678.5 1708.5,681.6 1711,683.5 "/>
<g>
	<defs>
		<rect id="SVGID_00000063628365743582606120000001105893979222510222_" x="-62.3" y="-54.2" width="2045" height="1188"/>
	</defs>
	<clipPath id="SVGID_00000146485718171811828680000011057499833021992342_">
		<use xlink:href="#SVGID_00000063628365743582606120000001105893979222510222_"  style="overflow:visible;"/>
	</clipPath>
	<path style="clip-path:url(#SVGID_00000146485718171811828680000011057499833021992342_);fill:#FFFFFF;" d="M1707.7,686.8l7.8-2.1
		C1715.6,684.7,1712.7,693.9,1707.7,686.8"/>
	<path style="clip-path:url(#SVGID_00000146485718171811828680000011057499833021992342_);fill:#FF934B;" d="M1700.3,673.6
		c0,0-4.4-19.8,21.3-19.8c17.6,2.2,16.1,18.3,16.1,18.3s27.9,8.8,13.9,24.9c-5.9,4.4-10.3,2.9-19.8,2.9c0.7-2.2,0-11,0-11
		s10.3,1.2,8.8-8.1c-2-11.8-11-5.1-12.5-3.7c-1.5,1.5-11-5.1-11-11.7C1715.7,664.8,1711.3,672.1,1700.3,673.6"/>
	<path style="clip-path:url(#SVGID_00000146485718171811828680000011057499833021992342_);fill:#FF934B;" d="M1702.5,692.7
		c0,0-4.4,5.9-3.7,9.5c0.7,3.7,19.1,0.7,19.1,0.7l0.7-3.7C1718.6,699.3,1709.1,703.7,1702.5,692.7"/>
	<path style="clip-path:url(#SVGID_00000146485718171811828680000011057499833021992342_);fill:#231F20;" d="M1716.3,680
		c0.9,0,1.6-0.7,1.6-1.5s-0.7-1.5-1.6-1.5c-0.9,0-1.6,0.7-1.6,1.5S1715.4,680,1716.3,680"/>
	<path style="clip-path:url(#SVGID_00000146485718171811828680000011057499833021992342_);fill:none;stroke:#231F20;" d="
		M1716.3,680c0.9,0,1.6-0.7,1.6-1.5s-0.7-1.5-1.6-1.5c-0.9,0-1.6,0.7-1.6,1.5S1715.4,680,1716.3,680z"/>
	<path style="clip-path:url(#SVGID_00000146485718171811828680000011057499833021992342_);fill:#231F20;" d="M1705.1,680.7
		c0.7,0,1.3-0.7,1.3-1.5s-0.6-1.5-1.3-1.5c-0.7,0-1.3,0.7-1.3,1.5S1704.3,680.7,1705.1,680.7"/>
	<path style="clip-path:url(#SVGID_00000146485718171811828680000011057499833021992342_);fill:none;stroke:#231F20;" d="
		M1705.1,680.7c0.7,0,1.3-0.7,1.3-1.5s-0.6-1.5-1.3-1.5c-0.7,0-1.3,0.7-1.3,1.5S1704.3,680.7,1705.1,680.7z"/>
	<path style="clip-path:url(#SVGID_00000146485718171811828680000011057499833021992342_);fill:#FD9D77;" d="M1735.4,790.6
		l-13.2-5.1c0,0-15.4,6.6-13.2,8.1c2.2,1.5,6.6-0.7,6.6-0.7s-5.1,2.9-5.9,5.9c-0.7,2.9,8.1-2.9,8.1-2.9l-3.7,5.9
		c0,0-0.7,2.9,5.9-2.2c6.6-5.1-5.1,3.7-2.9,4.4c2.2,0.7,9.5-5.9,9.5-5.9s8.1,5.1,10.3,3.7c2.2-1.5,2.2-2.2,2.2-2.2L1735.4,790.6z"/>
	<path style="clip-path:url(#SVGID_00000146485718171811828680000011057499833021992342_);fill:#FD9D77;" d="M1675.2,735.6l3.7,6.6
		l-9.5,6.6l-12.5-16.9c0,0-6.6-7.3,3.7-13.2c5.1,0,4.4,3.7,4.4,3.7s-1.5-3.7,1.5-2.9c2.9,0.7,8.8,3.7,8.8,8.1V735.6z"/>
	<path style="clip-path:url(#SVGID_00000146485718171811828680000011057499833021992342_);fill:none;stroke:#FFFFFF;" d="
		M1657,727.5c0,0,2.1,3.6,3.6,2.9c1.4-0.7-1.4-4.3-1.4-4.3s1.4,2.2,3.6,1.4c2.1-0.7-1.4-3.6-1.4-3.6v-1.4c0,0,0.7,2.9,2.8,2.9
		s0.7-2.2,0.7-2.2"/>
	<path style="clip-path:url(#SVGID_00000146485718171811828680000011057499833021992342_);fill:none;stroke:#231F20;" d="
		M1665.8,722.5c0,0,0.7,2.2,3.5,2.2c2.8,0-0.7,5.8-0.7,5.8"/>
	<path style="clip-path:url(#SVGID_00000146485718171811828680000011057499833021992342_);fill:#766FA7;" d="M1735.4,950.9
		l-4.8,12.7l29.4,8c0,0,8.7-3.9-11.5-14.5l0.8-4.2L1735.4,950.9z"/>
	<path style="clip-path:url(#SVGID_00000146485718171811828680000011057499833021992342_);fill:#766FA7;" d="M1721.4,938.7l7.5,11.3
		l-26.9,14.4c0,0-9.4-1.9,8-16.8l-1.7-3.9L1721.4,938.7z"/>
	<path style="clip-path:url(#SVGID_00000146485718171811828680000011057499833021992342_);fill:#DEFFFF;" d="M1654.8,702.2
		c0,0,0,20.5,13.2,19.1c13.2-1.5,13.2-7.3,12.5-22L1654.8,702.2z"/>
	<path style="clip-path:url(#SVGID_00000146485718171811828680000011057499833021992342_);fill:#DEFFFF;" d="M1668,722.7l1.5,13.2
		c0,0-15.4,3.7-0.7,4.4c14.7,0.7,13.9-5.9,4.4-5.1l-2.2-13.2L1668,722.7z"/>
	<path style="clip-path:url(#SVGID_00000146485718171811828680000011057499833021992342_);fill:#A80C17;" d="M1658.6,712.4
		c0,0,2.2,7.3,10.9,5.8c8.7-1.5,9.5-8,9.5-13.8c-2.9-1.5-6.5,0-9.5,7.3C1667.3,713.1,1660,706.6,1658.6,712.4"/>
</g>
<path class="st38" d="M1523.2,776"/>
<g>
	<defs>
		<rect id="SVGID_00000013181970488412324680000003442797674665626047_" x="-62.3" y="-54.2" width="2045" height="1188"/>
	</defs>
	<clipPath id="SVGID_00000132792017852332162840000018413976296535868597_">
		<use xlink:href="#SVGID_00000013181970488412324680000003442797674665626047_"  style="overflow:visible;"/>
	</clipPath>
	<path style="clip-path:url(#SVGID_00000132792017852332162840000018413976296535868597_);fill:#7DB258;" d="M1536.9,774.7
		c0,0-17-7.3-24.4,28.6c-7.5,35.9-4.8,53.8-4.8,53.8s25.1,14,54.3,2c5.4-27.9,4.8-29.2,4.8-29.2s7.5,6.6,12.9,2.7
		c5.4-4,40.7-35.9,40.7-35.9l-10.2-8c0,0-27.8,28.6-40,17.9c-6.1-5.3-4.1-4-4.1-4V792c0,0,23.1,2.7,59-75.1
		c-6.8-6.6-7.5-6.6-7.5-6.6s-17.6,21.9-31.9,40.5c-14.3,18.6-33.9,18.6-33.9,18.6S1551.2,781.3,1536.9,774.7"/>
	<path style="clip-path:url(#SVGID_00000132792017852332162840000018413976296535868597_);fill:none;stroke:#FFFFFF;" d="
		M1536.9,774.7c0,0-17-7.3-24.4,28.6c-7.5,35.9-4.8,53.8-4.8,53.8s25.1,14,54.3,2c5.4-27.9,4.8-29.2,4.8-29.2s7.5,6.6,12.9,2.7
		c5.4-4,40.7-35.9,40.7-35.9l-10.2-8c0,0-27.8,28.6-40,17.9c-6.1-5.3-4.1-4-4.1-4V792c0,0,23.1,2.7,59-75.1
		c-6.8-6.6-7.5-6.6-7.5-6.6s-17.6,21.9-31.9,40.5c-14.3,18.6-33.9,18.6-33.9,18.6S1551.2,781.3,1536.9,774.7z"/>
	<path style="clip-path:url(#SVGID_00000132792017852332162840000018413976296535868597_);fill:none;stroke:#FFFFFF;" d="
		M1522,801.3c0,0,37.3,26.5,44.8,28.5"/>
	<path style="clip-path:url(#SVGID_00000132792017852332162840000018413976296535868597_);fill:#FC9665;" d="M1612.3,788.6
		c0,0,4.1-8.6,6.1-9.3c2-0.7,17.7-2.7,19-2c1.4,0.7,4.1,2-10.9,4c12.2,1.3,12.9,1.3,12.9,1.3s2,1.3-0.7,2
		c-2.7,0.7-10.2,0.7-10.2,0.7l9.5,2c0,0,2.7,1.3-0.7,2c-3.4,0.7-10.9-0.7-10.9-0.7s6.1,4,5.4,4.7c-0.7,0.7-6.1-2.7-7.5-2
		c-1.4,0.7-2.7-0.7-2.7-0.7l-2,2.7L1612.3,788.6z"/>
	<path style="clip-path:url(#SVGID_00000132792017852332162840000018413976296535868597_);fill:#FC9665;" d="M1534.2,772.7
		c0,0,9.5,4,12.2,2c2.7-2,3.4-3.3,3.4-3.3v-12.6c0,0,15.6,1.3,17-8c1.4-9.3,0.7-27.9,0.7-27.9s-20.4,3.3-23.8-4.7
		c-4.8,10-13.6,12-13.6,12l-3.4,2.7l-2,2c0,0-6.8-7.3-8.8,4c-2,11.3,11.5,8.6,11.5,8.6s6.1,8.6,10.9,7.3
		C1534.9,772,1534.2,772.7,1534.2,772.7"/>
	<path style="clip-path:url(#SVGID_00000132792017852332162840000018413976296535868597_);fill:#230552;" d="M1544.4,716.8
		c0,0,2,9.3,23.8,3.3c3.4,29.3,0,33.9-2,35.9c-2,2-14.9,4-14.9,4v8c0,0,14.9-0.7,23.1-8c2.7-33.2,2-35.2,2-35.2s-4.1-29.3-45.5-23.3
		c-12.9,8-15.2,10.4-15.2,19.8c-4.1,5.3-10.7,7.5-8.6,22.8c-5.4,14.6-17.8,38.3,2.6,37.7c12.9,3.3,20.8-8.4,20.8-8.4l2.4-2l4.1-15.3
		c0,0-6.1,0-10.2-7.3c-9.5-0.7-14.3,0-12.2-12.6c4.8-8.6,8.8-4,9.5-3.3s4.8-3.3,4.8-3.3S1535.5,727.5,1544.4,716.8"/>
	<path style="clip-path:url(#SVGID_00000132792017852332162840000018413976296535868597_);fill:#FFFFFF;" d="M1551.8,745.4l8.2,0.7
		C1560,746.1,1555.2,754.7,1551.8,745.4"/>
</g>
<polygon class="st7" points="1556.5,730.2 1557.1,737.9 1554.8,738.5 "/>
<polygon class="st8" points="1556.5,730.2 1557.1,737.9 1554.8,738.5 "/>
<g>
	<defs>
		<rect id="SVGID_00000013183942605820457610000001594069147786709377_" x="-62.3" y="-54.2" width="2045" height="1188"/>
	</defs>
	<clipPath id="SVGID_00000165214941252187426220000014485100923509437826_">
		<use xlink:href="#SVGID_00000013183942605820457610000001594069147786709377_"  style="overflow:visible;"/>
	</clipPath>
	<path style="clip-path:url(#SVGID_00000165214941252187426220000014485100923509437826_);fill:none;stroke:#231F20;" d="
		M1536.2,735.6c0,0,6.1,1.9,11.5,0"/>
	<path style="clip-path:url(#SVGID_00000165214941252187426220000014485100923509437826_);fill:none;stroke:#231F20;" d="
		M1560.8,734.9c0,0,2.6,2.7,6,0.5"/>
	<path style="clip-path:url(#SVGID_00000165214941252187426220000014485100923509437826_);fill:#FC9665;" d="M1619.8,709.5l5.4,5.3
		l1.4-1.3c0,0,4.1,2,7.5-0.7c3.4-2.7,8.2-4,8.2-4s0.7-2.7-7.5,0c-1.4-2,0-2.7,0-2.7l11.5-5.3c0,0,4.1-4-7.5,0.7
		c7.5-6,10.2-10,5.4-7.3c-4.8,2.7-8.2,5.3-8.2,5.3s4.8-4.7,5.4-6c0.7-1.3-4.8,2-7.5,4.7c-2.7,2.7,2-3.3,2-3.3
		S1621.8,704.2,1619.8,709.5"/>
</g>
<line class="st46" x1="1554.1" y1="789.4" x2="1566.8" y2="802.9"/>
<polygon class="st21" points="1620.4,767.8 1623.1,797.1 1634,797.1 1640.1,766.5 "/>
<g>
	<defs>
		<rect id="SVGID_00000065761728189628171720000013278426275936144525_" x="-62.3" y="-54.2" width="2045" height="1188"/>
	</defs>
	<clipPath id="SVGID_00000006704052154398016750000016739016403410618525_">
		<use xlink:href="#SVGID_00000065761728189628171720000013278426275936144525_"  style="overflow:visible;"/>
	</clipPath>
	<path style="clip-path:url(#SVGID_00000006704052154398016750000016739016403410618525_);fill:#FFA303;" d="M1623.8,774.4l0.7,19.3
		l6.8,0.7l4.8-19.9C1636,774.4,1631.3,777.8,1623.8,774.4"/>
	<path style="clip-path:url(#SVGID_00000006704052154398016750000016739016403410618525_);fill:#3C3048;" d="M1562.4,859.6l4.6,58.5
		l-8.1,65.6l-18.9-0.6l3.2-63.9l-9.7-44.3l-16.9,104.6l-23-0.2l15.5-121.9C1509.2,857.3,1537.4,851.2,1562.4,859.6"/>
	<path style="clip-path:url(#SVGID_00000006704052154398016750000016739016403410618525_);fill:#7DB258;" d="M1504.8,981.4l1,12.1
		l-28-0.4c0,0-6.7-5.6,13.9-9.7l0.3-3.8L1504.8,981.4z"/>
	<path style="clip-path:url(#SVGID_00000006704052154398016750000016739016403410618525_);fill:#7DB258;" d="M1536.3,984.7
		l-2.9,11.8l27.8,3.9c0,0,7.5-4.5-12.1-11.7l0.3-3.8L1536.3,984.7z"/>
	<path style="clip-path:url(#SVGID_00000006704052154398016750000016739016403410618525_);fill:#C36B2E;" d="M278.2,687.6l-6.4-4.5
		c0,0-0.4-11.8-1.8-11.9c-1.4-0.1-1.2,7-1.2,7l-7.9-12c0,0-2.4-0.7-1.7,1.8c0.7,2.5,3.4,7.5,3.4,7.5l-5.4-6.5c0,0-0.8-1.1-0.1,1.3
		c0.7,2.5,2.8,5,2.8,5l-4.4-4.6c0,0-1.6-0.9-0.8,0.2c0.8,1.1,3.4,7.5,3.4,7.5s-4.3-5.9-4.9-4.9c-0.6,1,8.3,13.8,17.2,21.5
		C270.2,694.3,278.3,693.7,278.2,687.6"/>
	<path style="clip-path:url(#SVGID_00000006704052154398016750000016739016403410618525_);fill:#02B1AC;" d="M343.8,687.4L300.6,702
		l-23.5-17.6c0,0-1.5,7.3-6.6,10.3c-5.1,2.9,12.5,43.3,49.9,24.2c-2.2,48.4-6.1,108.9-6.1,108.9l83.5,4.8c0,0-4-146.7-26.8-142.3
		C365.1,702,353.3,703.5,343.8,687.4"/>
</g>
<polygon class="st52" points="387.8,718.9 393.7,726.2 390,729.2 "/>
<g>
	<defs>
		<rect id="SVGID_00000065785751710365287680000008451741633164219800_" x="-62.3" y="-54.2" width="2045" height="1188"/>
	</defs>
	<clipPath id="SVGID_00000006704665091865344780000007432126459915888028_">
		<use xlink:href="#SVGID_00000065785751710365287680000008451741633164219800_"  style="overflow:visible;"/>
	</clipPath>
	<path style="clip-path:url(#SVGID_00000006704665091865344780000007432126459915888028_);fill:#029A91;" d="M350.4,687.4
		c0,0,9.8,13.1,17.8,1.4c3.7,2.2,0.5,3,0.5,3s-11.2,17.6-23.7-4.4C349.4,686.6,350.4,687.4,350.4,687.4"/>
	<path style="clip-path:url(#SVGID_00000006704665091865344780000007432126459915888028_);fill:#C36B2E;" d="M352.1,689.7
		c2.9,3.7,8.8,7.3,13.9,0c1.5-7.3,0.7-8.8,0.7-8.8s16.9,8.8,13.9-22L366,648.6c0,0-5.9,13.2-13.2,13.2c-4.6,0-9.5-3.7-11,5.1
		c0,7.3,5.9,5.1,9.5,6.6C351.4,689.7,352.1,689.7,352.1,689.7"/>
	<path style="clip-path:url(#SVGID_00000006704665091865344780000007432126459915888028_);fill:#231F20;" d="M366,663.5
		c0.9,0,1.7-0.8,1.7-1.7c0-0.9-0.8-1.7-1.7-1.7c-0.9,0-1.7,0.8-1.7,1.7C364.3,662.8,365.1,663.5,366,663.5"/>
	<path style="clip-path:url(#SVGID_00000006704665091865344780000007432126459915888028_);fill:none;stroke:#231F20;" d="M366,663.5
		c0.9,0,1.7-0.8,1.7-1.7c0-0.9-0.8-1.7-1.7-1.7c-0.9,0-1.7,0.8-1.7,1.7C364.3,662.8,365.1,663.5,366,663.5z"/>
	<path style="clip-path:url(#SVGID_00000006704665091865344780000007432126459915888028_);fill:#231F20;" d="M377.8,663.5
		c0.9,0,1.7-0.8,1.7-1.7c0-0.9-0.8-1.7-1.7-1.7c-0.9,0-1.7,0.8-1.7,1.7C376.1,662.8,376.8,663.5,377.8,663.5"/>
	<path style="clip-path:url(#SVGID_00000006704665091865344780000007432126459915888028_);fill:none;stroke:#231F20;" d="
		M377.8,663.5c0.9,0,1.7-0.8,1.7-1.7c0-0.9-0.8-1.7-1.7-1.7c-0.9,0-1.7,0.8-1.7,1.7C376.1,662.8,376.8,663.5,377.8,663.5z"/>
</g>
<polygon class="st7" points="372.8,661.5 375.3,665.4 372.8,666 "/>
<polygon class="st8" points="372.8,661.5 375.3,665.4 372.8,666 "/>
<g>
	<defs>
		<rect id="SVGID_00000181801699394179938050000005932750394259939773_" x="-62.3" y="-54.2" width="2045" height="1188"/>
	</defs>
	<clipPath id="SVGID_00000092440831061323562070000003052081424063519889_">
		<use xlink:href="#SVGID_00000181801699394179938050000005932750394259939773_"  style="overflow:visible;"/>
	</clipPath>
	<path style="clip-path:url(#SVGID_00000092440831061323562070000003052081424063519889_);fill:#FFFFFF;" d="M367.6,668.5l6.4,0.7
		C374,669.2,370.4,676.2,367.6,668.5"/>
	<path style="clip-path:url(#SVGID_00000092440831061323562070000003052081424063519889_);fill:#3A1B20;" d="M351.1,684.9
		c0,0-18.3,0-19.1-2.8s3.7-47.7,33.7-46.3c19.1,4.3,16.9,11.4,19.1,14.2c2.8,3.6,2.9,35.6,2.9,35.6h-21.3l-0.7-3.6
		c0,0,20.5,5,13.9-24.2c-14.7-9.3-15.4-12.8-14.7-10.7s-5.1,16.4-12.5,14.9c-2.6-0.5-7.3-4.3-11,3.6c-4.6,9.9,10.3,8.5,10.3,8.5
		L351.1,684.9z"/>
	<path style="clip-path:url(#SVGID_00000092440831061323562070000003052081424063519889_);fill:#C36B2E;" d="M397.3,709.1
		c0,0,2.7-1,3.8-2.6c1.1-1.6,1.1-1.6-3.2-0.5c-4.3,1-6,7.8-6,7.8l-3.4,5l5.2,6.5c6-4.7,6.3-6.8,6.3-6.8s9.2-3.6,9.7-7.3
		c0.5-3.6-4.9-8.8-8.7-3.1c0.5,1.6,2.2,0.5,2.2,0.5s-2.7,1-1.6,2.1c1.1,1,3.2-0.5,3.2-0.5s-2.7,1.6-2.2,2.1c0.5,0.5,1.1,1.6,3.2,0.5
		"/>
	<path style="clip-path:url(#SVGID_00000092440831061323562070000003052081424063519889_);fill:#C36B2E;" d="M328.5,828.4l-7.3,88
		l-8.1,5.1c0,0-0.7,8.8,19.1-2.2c12.5-57.9,17.6-87.2,17.6-87.2l12.5-0.7l4.4,88.7c0,0,18.3,11,20.5,2.2c-5.9-5.9-7.3-6.6-7.3-6.6
		l7.3-82.8C387.1,832.8,331.4,829.9,328.5,828.4"/>
	<path style="clip-path:url(#SVGID_00000092440831061323562070000003052081424063519889_);fill:#02B1AC;" d="M311.5,923.5
		c0,0-9.9,5.1-7.6,6.4c2.3,1.3,30.8-1.4,30.8-1.4l-0.6-8.8C334,919.7,322.1,927.9,311.5,923.5"/>
	<path style="clip-path:url(#SVGID_00000092440831061323562070000003052081424063519889_);fill:#02B1AC;" d="M366,921l0.5,7.4
		l30.7,3.3c0,0-2.6-9.6-8.5-8.4C382.8,924.5,389.9,932.1,366,921"/>
	<path style="clip-path:url(#SVGID_00000092440831061323562070000003052081424063519889_);fill:#DEFFFF;" d="M400,685.5
		c0,0-6.6,19.1,7.3,24.2c13.9,5.1,18.3-11.7,16.9-19.1L400,685.5z"/>
	<path style="clip-path:url(#SVGID_00000092440831061323562070000003052081424063519889_);fill:#A80C17;" d="M402.3,691.5
		c1.5,0,2.9,0,7.3,8.7c4.4,8.7,7.3-1.5,8.7-1.5c1.5,0,2.9,2.2,2.9,2.2s-13.1,21.8-21.8-6.5C401.5,692.2,402.3,691.5,402.3,691.5"/>
	<path style="clip-path:url(#SVGID_00000092440831061323562070000003052081424063519889_);fill:#DEFFFF;" d="M406.6,711.2v11
		c0,0-10.3,1.5-6.6,2.9c3.7,1.5,7.3,2.2,7.3,2.2s16.1,2.2,2.2-4.4c0.7-10.3,0.7-11,0.7-11L406.6,711.2z"/>
	<path style="clip-path:url(#SVGID_00000092440831061323562070000003052081424063519889_);fill:#FFD0BE;" d="M522.6,729.1
		c0,0-8.4,9.3-16.2,0c-1.4-17.2-0.9-16.5-0.9-16.5s-16.4,4.5-16-24.2c1.5-8.5,18.6-15.9,22.9-19.5c0.7-1.4,7.1,10.9,15,10.9
		c2.9,10,3.6,9.3,3.6,9.3s7.9-2.9,7.1,6.4c-0.7,9.3-9.3,5.7-9.3,5.7s-2.9,6.4-8.6,8.6C522.3,725.7,522.6,729.1,522.6,729.1"/>
	<path style="clip-path:url(#SVGID_00000092440831061323562070000003052081424063519889_);fill:none;stroke:#FFCFC1;" d="
		M522.6,729.1c0,0-8.4,9.3-16.2,0c-1.4-17.2-0.9-16.5-0.9-16.5s-16.4,4.5-16-24.2c1.5-8.5,18.6-15.9,22.9-19.5
		c0.7-1.4,7.1,10.9,15,10.9c2.9,10,3.6,9.3,3.6,9.3s7.9-2.9,7.1,6.4c-0.7,9.3-9.3,5.7-9.3,5.7s-2.9,6.4-8.6,8.6
		C522.3,725.7,522.6,729.1,522.6,729.1z"/>
</g>
<polygon class="st65" points="507.1,694.8 503.7,695.5 501,685.7 "/>
<polygon class="st66" points="507.1,694.8 503.7,695.5 501,685.7 "/>
<g>
	<defs>
		<rect id="SVGID_00000179635800703678078920000001728228880518954885_" x="-62.3" y="-54.2" width="2045" height="1188"/>
	</defs>
	<clipPath id="SVGID_00000163792509889950715650000006518928246557491104_">
		<use xlink:href="#SVGID_00000179635800703678078920000001728228880518954885_"  style="overflow:visible;"/>
	</clipPath>
	<path style="clip-path:url(#SVGID_00000163792509889950715650000006518928246557491104_);fill:#FFFFFF;" d="M511.5,697.9l-6.9,2.8
		C504.6,700.7,511.5,709,511.5,697.9"/>
	<path style="clip-path:url(#SVGID_00000163792509889950715650000006518928246557491104_);fill:#2C355C;" d="M503.9,714.8l0.7,14
		h-11.9c0,0-7.4,12.1-15.1-35.6c-0.4-12.9,6.5-35.3,30.4-34.4c21.5,0.8,31.5,11.2,32.2,18.9c0.7,7.7,5.8,12.6,5.1,17.5
		c-0.7,4.9-0.2,14.3,1.9,17.8c2.1,3.5,15,7.4,13.6,25c-1.4,17.5-1.4,10.5-1.4,10.5s-7-20.3-33-18.2l-2.8,0.7l-2.1-20.3
		c0,0,4.9-4.2,7-7.7c4.2,0.7,9.1-0.7,9.8-6.3s-3.5-9.1-7-8.4c-3.5,0.7-3.5-9.1-3.5-9.1s-7.6,2.5-13.2-7.3c-2.2-3.3-2.2-2.5-2.2-2.5
		s-25.2,14.7-23.8,18.2C489.9,691,484.5,708.1,503.9,714.8"/>
	<path style="clip-path:url(#SVGID_00000163792509889950715650000006518928246557491104_);fill:#231F20;" d="M510.4,687.4
		c-0.8,0-1.4-0.6-1.4-1.4s0.6-1.4,1.4-1.4c0.8,0,1.4,0.6,1.4,1.4S511.2,687.4,510.4,687.4"/>
	<path style="clip-path:url(#SVGID_00000163792509889950715650000006518928246557491104_);fill:none;stroke:#231F20;" d="
		M510.4,687.4c-0.8,0-1.4-0.6-1.4-1.4s0.6-1.4,1.4-1.4c0.8,0,1.4,0.6,1.4,1.4S511.2,687.4,510.4,687.4z"/>
	<path style="clip-path:url(#SVGID_00000163792509889950715650000006518928246557491104_);fill:#231F20;" d="M495.4,692.4
		c-0.8,0-1.4-0.6-1.4-1.4s0.6-1.4,1.4-1.4c0.8,0,1.4,0.6,1.4,1.4S496.2,692.4,495.4,692.4"/>
	<path style="clip-path:url(#SVGID_00000163792509889950715650000006518928246557491104_);fill:none;stroke:#231F20;" d="
		M495.4,692.4c-0.8,0-1.4-0.6-1.4-1.4s0.6-1.4,1.4-1.4c0.8,0,1.4,0.6,1.4,1.4S496.2,692.4,495.4,692.4z"/>
	<path style="clip-path:url(#SVGID_00000163792509889950715650000006518928246557491104_);fill:#FFD0BE;" d="M488.7,794.4l-1.4,9.3
		l-17.1-3.6l0.7-2.1l-1.4-2.1l0.7-2.1c0,0-10.7-4.3-11.4-9.3c-0.7-5,11.4,5,11.4,5l-5.7-10.7c0,0-2.1-7.1,16.4,12.8
		C488,794.4,488.7,794.4,488.7,794.4"/>
	<path style="clip-path:url(#SVGID_00000163792509889950715650000006518928246557491104_);fill:none;stroke:#FFCFC1;" d="
		M488.7,794.4l-1.4,9.3l-17.1-3.6l0.7-2.1l-1.4-2.1l0.7-2.1c0,0-10.7-4.3-11.4-9.3c-0.7-5,11.4,5,11.4,5l-5.7-10.7
		c0,0-2.1-7.1,16.4,12.8C488,794.4,488.7,794.4,488.7,794.4z"/>
</g>
<path class="st38" d="M429.4,740"/>
<g>
	<defs>
		<rect id="SVGID_00000042727086144818893190000001450480642925992838_" x="-62.3" y="-54.2" width="2045" height="1188"/>
	</defs>
	<clipPath id="SVGID_00000140011879963102310600000001346271859485903535_">
		<use xlink:href="#SVGID_00000042727086144818893190000001450480642925992838_"  style="overflow:visible;"/>
	</clipPath>
	<path style="clip-path:url(#SVGID_00000140011879963102310600000001346271859485903535_);fill:#FFD0BE;" d="M450.1,739.9l-5.7,4.3
		l-2.1-2.9c0,0-2.9,3.6-15-10.7c-2.1-4.3,0.7-4.3,0.7-4.3s-0.7-2.1,0.7-2.9c1.4-0.7,1.4,0,1.4,0s-0.7-2.8,1.4-2.8
		c2.1,0,11.4,5,11.4,7.1c0,2.1,0.7,2.9,0,2.9c-0.7,0-4.3-4.3-5-2.9c-0.7,1.4,0.7,0.7,0,2.1c-0.7,1.4-1.4,1.4-1.4,1.4l0.7,1.4v1.4
		l1.4,0.7c0,0,2.1-0.7,2.8-0.7c0.7,0,2.9-0.7,2.9-2.9s1.4-4.3-0.7-5.7s-2.8-2.9-2.8-2.9s2.1-2.1,6.4,2.9c2.1,3.6,0,5,0.7,7.1
		C448.6,734.9,450.1,739.9,450.1,739.9"/>
	<path style="clip-path:url(#SVGID_00000140011879963102310600000001346271859485903535_);fill:none;stroke:#FFCFC1;" d="
		M450.1,739.9l-5.7,4.3l-2.1-2.9c0,0-2.9,3.6-15-10.7c-2.1-4.3,0.7-4.3,0.7-4.3s-0.7-2.1,0.7-2.9c1.4-0.7,1.4,0,1.4,0
		s-0.7-2.8,1.4-2.8c2.1,0,11.4,5,11.4,7.1c0,2.1,0.7,2.9,0,2.9c-0.7,0-4.3-4.3-5-2.9c-0.7,1.4,0.7,0.7,0,2.1
		c-0.7,1.4-1.4,1.4-1.4,1.4l0.7,1.4v1.4l1.4,0.7c0,0,2.1-0.7,2.8-0.7c0.7,0,2.9-0.7,2.9-2.9s1.4-4.3-0.7-5.7s-2.8-2.9-2.8-2.9
		s2.1-2.1,6.4,2.9c2.1,3.6,0,5,0.7,7.1C448.6,734.9,450.1,739.9,450.1,739.9z"/>
	<path style="clip-path:url(#SVGID_00000140011879963102310600000001346271859485903535_);fill:#88DCA8;" d="M445.3,707.9l-7.9,9.1
		l0.7,25.9c0,0,11.1,2.1,5.2,2.8c-5.9,0.7-11.1,0-11.1,0s-3.3-2.1,3.9-3.5c0-5.6-0.7-24.5-0.7-24.5l-7.9-9.1L445.3,707.9z"/>
	
		<path style="clip-path:url(#SVGID_00000140011879963102310600000001346271859485903535_);fill:none;stroke:#DEFFFF;stroke-width:3;" d="
		M445.3,707.9l-7.9,9.1l0.7,25.9c0,0,11.1,2.1,5.2,2.8c-5.9,0.7-11.1,0-11.1,0s-3.3-2.1,3.9-3.5c0-5.6-0.7-24.5-0.7-24.5l-7.9-9.1
		L445.3,707.9z"/>
	<path style="clip-path:url(#SVGID_00000140011879963102310600000001346271859485903535_);fill:#FFD0BE;" d="M542.5,869.6l2.5,70
		l6.7,5.1c0,0,0.5,8.6-16-2.4c-9.5-56.6-11.4-70.7-11.4-70.7l-12.9-0.2l-4.8,71.1c0,0-15.6,10.4-17.4,1.8c5-5.6,6.3-6.3,6.3-6.3
		l-4-67C491.5,871,540,871,542.5,869.6"/>
	<path style="clip-path:url(#SVGID_00000140011879963102310600000001346271859485903535_);fill:none;stroke:#FFCFC1;" d="
		M542.5,869.6l2.5,70l6.7,5.1c0,0,0.5,8.6-16-2.4c-9.5-56.6-11.4-70.7-11.4-70.7l-12.9-0.2l-4.8,71.1c0,0-15.6,10.4-17.4,1.8
		c5-5.6,6.3-6.3,6.3-6.3l-4-67C491.5,871,540,871,542.5,869.6z"/>
	<path style="clip-path:url(#SVGID_00000140011879963102310600000001346271859485903535_);fill:#B14545;" d="M553.2,946.7
		c0,0,8.3,5.1,6.4,6.4c-2,1.2-26-1.8-26-1.8l0.7-8.6C534.2,942.7,544.1,950.8,553.2,946.7"/>
	<path style="clip-path:url(#SVGID_00000140011879963102310600000001346271859485903535_);fill:#B14545;" d="M507,943.4l-0.5,7.2
		l-26,2.7c0,0,2.4-9.4,7.3-8C492.8,946.6,486.7,953.9,507,943.4"/>
</g>
<polygon class="st78" points="548.3,803.1 552.4,880 486,877.7 494.1,805.5 "/>
<g>
	<defs>
		<rect id="SVGID_00000111888238087885236200000000550068378723636144_" x="-62.3" y="-54.2" width="2045" height="1188"/>
	</defs>
	<clipPath id="SVGID_00000144313555380795981710000009192412713825377207_">
		<use xlink:href="#SVGID_00000111888238087885236200000000550068378723636144_"  style="overflow:visible;"/>
	</clipPath>
	<path style="clip-path:url(#SVGID_00000144313555380795981710000009192412713825377207_);fill:#B14545;" d="M636.6,960.2l0.8,9.5
		l-21.8-0.3c0,0-5.2-4.4,10.8-7.6l0.3-3L636.6,960.2z"/>
	<path style="clip-path:url(#SVGID_00000144313555380795981710000009192412713825377207_);fill:#FC9665;" d="M728.7,707.8l8.2-7.9
		c0,0,3.9-9.5,5.5-9.3c1.6,0.2-0.4,8.4-0.4,8.4l12.2-12.2c0,0,3-0.2,1.6,2.5s-5.9,7.9-5.9,7.9l8-6.3c0,0,1.2-1.1-0.3,1.6
		c-1.4,2.7-4.5,5.2-4.5,5.2l6.3-4.3c0,0,2.1-0.7,0.9,0.5c-1.2,1.1-5.9,7.9-5.9,7.9s6.6-5.9,7-4.5c0.4,1.4-12.5,16-24.9,23.1
		C737,719.3,731.7,707.5,728.7,707.8"/>
	<path style="clip-path:url(#SVGID_00000144313555380795981710000009192412713825377207_);fill:#3C3048;" d="M677.5,843.7
		c0,0,3.8,28.9,2.8,56c18.5-9.2,22.9-13,22.9-13l9.5,14.9c0,0-33.5,26.9-44.3,21.3c-10.8-5.6-21.3-59.6-21.3-59.6l2.7,17.9
		l-10.3,78.4l-17.6-1.4c0,0,4.3-111.7,5.9-109.4C632.7,856.5,668.9,859,677.5,843.7"/>
	<path style="clip-path:url(#SVGID_00000144313555380795981710000009192412713825377207_);fill:#766FA7;" d="M612.8,782.9
		c0,0-11.7,69.6,8.8,72.6c20.5,2.9,59.4-3.7,63.8-5.9c4.4-2.2,3.7-39.6-11-66c23-23.9,35.3-36.2,67-60.8
		c-7-13.2-11.4-19.3-11.4-19.3s-17.6,36.9-70.9,50c-7.3,14.7-24.9,4.4-24.2,1.5c0.7-2.9-1.5-5.1-1.5-5.1s-37.4-4.4-42.5-17.6
		c-5.1-13.2-8.6-50.5-13.2-44.7c-2.9,3.7,0,5.1-13.9,4.4c-13.9-0.7,11.7,80.6,51.3,84.3C614.2,780,612.8,782.9,612.8,782.9"/>
	<path style="clip-path:url(#SVGID_00000144313555380795981710000009192412713825377207_);fill:#FD9A70;" d="M636.2,746.3l0.7,8.8
		c0,0,5.9,8.1,16.1,2.2c-0.7-16.1-1.5-18.3-1.5-18.3s5.1-0.7,9.5-7.3c7.3,0.7,8.8-1.5,8.8-5.1s-5.1-6.6-9.5-4.4s-4.4-0.7-4.4-0.7
		s16.9-29.3-16.1-24.9c-2.9-7.3-11-7.3-19.1,15.4C610.6,742.6,639.2,747,636.2,746.3"/>
</g>
<polygon class="st7" points="636.1,713.3 633.4,723.3 635.4,724.1 "/>
<polygon class="st8" points="636.1,713.3 633.4,723.3 635.4,724.1 "/>
<g>
	<defs>
		<rect id="SVGID_00000027588962896748610300000013217561985220887168_" x="-62.3" y="-54.2" width="2045" height="1188"/>
	</defs>
	<clipPath id="SVGID_00000139998776371017076720000009666424053334020233_">
		<use xlink:href="#SVGID_00000027588962896748610300000013217561985220887168_"  style="overflow:visible;"/>
	</clipPath>
	<path style="clip-path:url(#SVGID_00000139998776371017076720000009666424053334020233_);fill:#FFFFFF;" d="M631.2,728.7
		c0,0,6.5-0.7,7.2,2.9S630.4,741,631.2,728.7"/>
	<path style="clip-path:url(#SVGID_00000139998776371017076720000009666424053334020233_);fill:#231F20;" d="M644.3,717.7
		c1.2,0,2.3-0.9,2.3-2c0-1.1-1-2-2.3-2c-1.2,0-2.3,0.9-2.3,2C642,716.8,643,717.7,644.3,717.7"/>
	<path style="clip-path:url(#SVGID_00000139998776371017076720000009666424053334020233_);fill:none;stroke:#231F20;" d="
		M644.3,717.7c1.2,0,2.3-0.9,2.3-2c0-1.1-1-2-2.3-2c-1.2,0-2.3,0.9-2.3,2C642,716.8,643,717.7,644.3,717.7z"/>
	<path style="clip-path:url(#SVGID_00000139998776371017076720000009666424053334020233_);fill:#270A1E;" d="M623.8,700.8
		c0,0-4.4-11,12.4-16.1c16.8-5.1,18.3,0.7,19.8,0.7c1.5,0,2.9,2.9,2.9,2.9s5.1-0.7,9.5,7.3c4.4,8.1,3.7,16.1-2.2,24.2
		c-5.9,1.5-9.5,1.5-9.5,1.5s17.6-29.3-15.4-26.4C636.9,690.5,634,686.1,623.8,700.8"/>
	<path style="clip-path:url(#SVGID_00000139998776371017076720000009666424053334020233_);fill:#270A1E;" d="M662.6,686.9
		c0,0,11.7,12.5,15.4,9.5c3.7-2.9,8.1-11.7-8.1-14.7C662.6,681.7,662.6,686.9,662.6,686.9"/>
</g>
<polygon class="st88" points="661.2,687.7 662,687.7 675,697.7 670.7,697 "/>
<polyline class="st38" points="661.2,687.7 662,687.7 675,697.7 670.7,697 661.2,687.7 "/>
<g>
	<defs>
		<rect id="SVGID_00000165923741117702322410000013161733582325737880_" x="-62.3" y="-54.2" width="2045" height="1188"/>
	</defs>
	<clipPath id="SVGID_00000111176203589637342570000017750074976557889931_">
		<use xlink:href="#SVGID_00000165923741117702322410000013161733582325737880_"  style="overflow:visible;"/>
	</clipPath>
	<path style="clip-path:url(#SVGID_00000111176203589637342570000017750074976557889931_);fill:#FF9669;" d="M563.9,691.5l12.4-5.3
		c0,0,2-11.6,0.1-14.7c-1.9-3.1-7.3-7.4-10.5-5.5c-3.1,1.9,5,2,4.7,4.2c-0.2,2.2-4.1,4-6,0.8c-1.9-3.1-6.5-8.1-6.5-8.1
		s-4.2-1.9-4.4-0.5c-0.2,1.5,0.9,5.3,0.9,5.3s-3.5-1.8-3.6-0.4l-0.3,2.9c0,0-5.7-2.1-5.2,0.2c0.5,2.3,3.2,4.8,3.2,4.8
		S547.5,679.4,563.9,691.5"/>
	<path style="clip-path:url(#SVGID_00000111176203589637342570000017750074976557889931_);fill:#88DCA8;" d="M557.5,654.3l8.1,9.3
		l-0.7,26.6c0,0-11.5,2.2-5.4,2.9c6.1,0.7,11.5,0,11.5,0s3.4-2.2-4.1-3.6c0-5.7,0.7-25.1,0.7-25.1l8.1-9.3L557.5,654.3z"/>
	
		<path style="clip-path:url(#SVGID_00000111176203589637342570000017750074976557889931_);fill:none;stroke:#DEFFFF;stroke-width:3;" d="
		M557.5,654.3l8.1,9.3l-0.7,26.6c0,0-11.5,2.2-5.4,2.9c6.1,0.7,11.5,0,11.5,0s3.4-2.2-4.1-3.6c0-5.7,0.7-25.1,0.7-25.1l8.1-9.3
		L557.5,654.3z"/>
	<path style="clip-path:url(#SVGID_00000111176203589637342570000017750074976557889931_);fill:#B14545;" d="M706.3,888.9l7.8-5.7
		l11.1,18.7c0,0-1.1,6.7-12.2-5.1l-2.7,1.4L706.3,888.9z"/>
	<path style="clip-path:url(#SVGID_00000111176203589637342570000017750074976557889931_);fill:#231F20;" d="M629.2,715.3
		c1.2,0,2.3-0.9,2.3-2c0-1.1-1-2-2.3-2c-1.2,0-2.3,0.9-2.3,2C626.9,714.4,627.9,715.3,629.2,715.3"/>
	<path style="clip-path:url(#SVGID_00000111176203589637342570000017750074976557889931_);fill:none;stroke:#231F20;" d="
		M629.2,715.3c1.2,0,2.3-0.9,2.3-2c0-1.1-1-2-2.3-2c-1.2,0-2.3,0.9-2.3,2C626.9,714.4,627.9,715.3,629.2,715.3z"/>
</g>
<path class="st38" d="M1031.1,803.4"/>
<g>
	<defs>
		<rect id="SVGID_00000142169581491601401220000007276111757187243686_" x="-62.3" y="-54.2" width="2045" height="1188"/>
	</defs>
	<clipPath id="SVGID_00000169539172017987179470000008967376671466749320_">
		<use xlink:href="#SVGID_00000142169581491601401220000007276111757187243686_"  style="overflow:visible;"/>
	</clipPath>
	<path style="clip-path:url(#SVGID_00000169539172017987179470000008967376671466749320_);fill:#F5C2A7;" d="M985.2,687l2.5-13.3
		c0,0,3.2-2.1,3.5-7.2c8.6-0.6,6.9-2.8,7.9-4.6c1-1.8-1.5-6.8-5.6-4.2c-4,2.6-4.1-0.7-4.1-0.7s3-19.7-3.2-16.8
		c-6.2,2.9-12.4,5.8-22.2,1.6c-8.6,4.5-15.9,34-1.2,38.9c-0.3,5.2,0,3.3,0,3.3v1.6l9.8,3.3L985.2,687z"/>
	<path style="clip-path:url(#SVGID_00000169539172017987179470000008967376671466749320_);fill:#986529;" d="M970.3,624.6
		c0,0-10.4-4.3-11.4,4.6c-1,8.9,1.5,10.6,2.9,10.9c1.4,0.2,12.8,6.6,24.9-1.8c3-0.8,3.3,1.2,3.3,1.2s3.3,8.3,0.2,17.6
		c2.8-0.2,4.6-1.9,4.6-1.9s7-4.5,2.6-18.2c-2.8-2.7-2.8-1.9-4.9-2.7c-3.6-1.5-5.1-3-15.5-3.4C973.3,631,970.3,624.6,970.3,624.6"/>
	<path style="clip-path:url(#SVGID_00000169539172017987179470000008967376671466749320_);fill:none;stroke:#986529;" d="
		M970.3,624.6c0,0-10.4-4.3-11.4,4.6c-1,8.9,1.5,10.6,2.9,10.9c1.4,0.2,12.8,6.6,24.9-1.8c3-0.8,3.3,1.2,3.3,1.2s3.3,8.3,0.2,17.6
		c2.8-0.2,4.6-1.9,4.6-1.9s7-4.5,2.6-18.2c-2.8-2.7-2.8-1.9-4.9-2.7c-3.6-1.5-5.1-3-15.5-3.4C973.3,631,970.3,624.6,970.3,624.6z"/>
	<path style="clip-path:url(#SVGID_00000169539172017987179470000008967376671466749320_);fill:#231F20;" d="M977.1,658.9
		c1.5,0.2,2.9-0.7,3.2-2.1c0.3-1.4-0.7-2.7-2.3-3c-1.5-0.2-3,0.7-3.2,2.1C974.6,657.4,975.6,658.7,977.1,658.9"/>
	<path style="clip-path:url(#SVGID_00000169539172017987179470000008967376671466749320_);fill:#231F20;" d="M964.7,657.5
		c1.5,0.2,2.9-0.7,3.2-2.1c0.3-1.4-0.7-2.7-2.3-3c-1.5-0.2-3,0.7-3.2,2.1C962.2,656,963.2,657.3,964.7,657.5"/>
	<path style="clip-path:url(#SVGID_00000169539172017987179470000008967376671466749320_);fill:#FFFFFF;" d="M966.9,666.9
		c0,0,5.1,2.1,7.4,1.2C976.5,667.2,969.1,673.5,966.9,666.9"/>
	<path style="clip-path:url(#SVGID_00000169539172017987179470000008967376671466749320_);fill:none;stroke:#FFFFFF;" d="
		M966.9,666.9c0,0,5.1,2.1,7.4,1.2C976.5,667.2,969.1,673.5,966.9,666.9z"/>
</g>
<polygon class="st101" points="971.2,652.8 968.7,662.1 971.8,664.6 "/>
<polygon class="st102" points="961.3,684 971.1,688.9 985.8,687.2 992.4,692.2 980.9,702 974.4,692.2 966.2,700.3 956.4,690.5 "/>
<g>
	<defs>
		<rect id="SVGID_00000010993829764655838500000013050233630688966543_" x="-62.3" y="-54.2" width="2045" height="1188"/>
	</defs>
	<clipPath id="SVGID_00000132784333292449050820000010908029133406993317_">
		<use xlink:href="#SVGID_00000010993829764655838500000013050233630688966543_"  style="overflow:visible;"/>
	</clipPath>
	<path style="clip-path:url(#SVGID_00000132784333292449050820000010908029133406993317_);fill:#A9BFE8;" d="M954.8,688.9h-8.2
		L924.6,659l-8.5-35.4h-19.3c0,0,6.5,43.4,9.8,49.9c3.3,6.5,28.7,53,28.7,53l-9.8,71.9c0,0,0,4.9,6.5,1.6c6.5-3.3,57.2-3.3,62.1,1.6
		c4.9,4.9,8.2,0,8.2-1.6c0-1.6-4.9-73.5-4.9-73.5l37.3-33.5l29.9-46.7l-15.8-6.3l-26.3,40.5l-23.4,11.7H994l-13.1,11.4l-6.5-9.8
		l-8.2,8.2L954.8,688.9z"/>
	<path style="clip-path:url(#SVGID_00000132784333292449050820000010908029133406993317_);fill:#FFFFFF;" d="M972.9,700.5
		c0.9,0,1.7-0.8,1.7-1.7c0-1-0.8-1.7-1.7-1.7c-0.9,0-1.7,0.8-1.7,1.7C971.1,699.7,971.9,700.5,972.9,700.5"/>
	<path style="clip-path:url(#SVGID_00000132784333292449050820000010908029133406993317_);fill:#FFFFFF;" d="M972.9,711.9
		c0.9,0,1.7-0.8,1.7-1.7c0-1-0.8-1.7-1.7-1.7c-0.9,0-1.7,0.8-1.7,1.7C971.1,711.2,971.9,711.9,972.9,711.9"/>
	<path style="clip-path:url(#SVGID_00000132784333292449050820000010908029133406993317_);fill:#3C3048;" d="M931.9,801.6
		c0,0-13.1,75.2-13.1,76.8c0,1.6,4.9,83.3,4.9,83.3h24.5l1.6-81.7l14.7-55.6l8.2,50.7l1.6,85l26.1,1.6l1.6-86.6l-8.2-70.3
		C994,804.9,982.6,795.1,931.9,801.6"/>
</g>
<polygon class="st102" points="895.9,622.3 896.6,616.5 917.1,613.8 917.1,621.1 "/>
<polygon class="st102" points="1052.8,634.3 1051.3,639.2 1067.4,644.9 1069.9,638.6 "/>
<g>
	<defs>
		<rect id="SVGID_00000118386880331729574780000000495786822390581139_" x="-62.3" y="-54.2" width="2045" height="1188"/>
	</defs>
	<clipPath id="SVGID_00000011027189309629381180000007017462137508685192_">
		<use xlink:href="#SVGID_00000118386880331729574780000000495786822390581139_"  style="overflow:visible;"/>
	</clipPath>
	<path style="clip-path:url(#SVGID_00000011027189309629381180000007017462137508685192_);fill:#4D5363;" d="M925.4,963.4v4.9
		c0,0-18-3.3-19.6,9.8h37.6v-14.7H925.4z"/>
	<path style="clip-path:url(#SVGID_00000011027189309629381180000007017462137508685192_);fill:#4D5363;" d="M997.3,963.4v4.9
		c0,0,18-3.3,19.6,9.8h-37.6v-14.7H997.3z"/>
</g>
<polygon class="st21" points="1096.7,621.3 1082.7,631.7 1067.6,605.6 1082.2,594.4 "/>
<g>
	<defs>
		<rect id="SVGID_00000045608506965875539250000012819006655354869919_" x="-62.3" y="-54.2" width="2045" height="1188"/>
	</defs>
	<clipPath id="SVGID_00000058560792663859960410000017978479260939930289_">
		<use xlink:href="#SVGID_00000045608506965875539250000012819006655354869919_"  style="overflow:visible;"/>
	</clipPath>
	<path style="clip-path:url(#SVGID_00000058560792663859960410000017978479260939930289_);fill:#F5C2A7;" d="M900.1,615.8l12.8-4
		c0,0,3.2-11.3,1.6-14.6c-1.5-3.3-6.5-8.1-9.8-6.6s4.7,2.5,4.3,4.7c-0.5,2.2-4.5,3.5-6,0.2c-1.5-3.3-5.6-8.7-5.6-8.7s-4-2.3-4.3-0.9
		c-0.3,1.4,0.4,5.3,0.4,5.3s-3.3-2.2-3.6-0.8c-0.3,1.4-0.6,2.9-0.6,2.9s-5.4-2.7-5.2-0.3c0.3,2.3,2.7,5.1,2.7,5.1
		S885,602.2,900.1,615.8"/>
	<path style="clip-path:url(#SVGID_00000058560792663859960410000017978479260939930289_);fill:#88DCA8;" d="M897.4,578.2l7.2,10.1
		l-3.4,26.3c0,0-11.8,0.9-5.7,2.3c6,1.4,11.6,1.2,11.6,1.2s3.6-1.8-3.7-4c0.6-5.7,3.3-24.9,3.3-24.9l9.1-8.4L897.4,578.2z"/>
	
		<path style="clip-path:url(#SVGID_00000058560792663859960410000017978479260939930289_);fill:none;stroke:#DEFFFF;stroke-width:3;" d="
		M897.4,578.2l7.2,10.1l-3.4,26.3c0,0-11.8,0.9-5.7,2.3c6,1.4,11.6,1.2,11.6,1.2s3.6-1.8-3.7-4c0.6-5.7,3.3-24.9,3.3-24.9l9.1-8.4
		L897.4,578.2z"/>
</g>
<line class="st46" x1="927" y1="792.1" x2="1001.3" y2="792.8"/>
<line class="st46" x1="931.3" y1="759.8" x2="998.6" y2="760.5"/>
<line class="st46" x1="928.8" y1="781.2" x2="1000.4" y2="782"/>
<line class="st46" x1="929.6" y1="774.1" x2="1000.4" y2="774.8"/>
<line class="st46" x1="931" y1="766.9" x2="999.9" y2="767.7"/>
<line class="st46" x1="931.9" y1="752.6" x2="999.1" y2="753.4"/>
<line class="st46" x1="933.2" y1="746.3" x2="997.7" y2="746.4"/>
<line class="st46" x1="935" y1="739.3" x2="997.7" y2="740"/>
<line class="st46" x1="935.4" y1="731.9" x2="996.8" y2="732.7"/>
<line class="st46" x1="936.3" y1="725" x2="997.7" y2="725.7"/>
<line class="st46" x1="898.5" y1="626.1" x2="915" y2="626.1"/>
<line class="st46" x1="898.5" y1="631.8" x2="916.9" y2="631.8"/>
<line class="st46" x1="899.5" y1="636.5" x2="919" y2="635.7"/>
<line class="st46" x1="901.1" y1="641.8" x2="917.6" y2="641"/>
<line class="st46" x1="901.1" y1="647.9" x2="920.7" y2="647.2"/>
<line class="st46" x1="902" y1="652.7" x2="921.6" y2="651.7"/>
<line class="st46" x1="903.7" y1="657.5" x2="921.6" y2="656.5"/>
<line class="st46" x1="905.6" y1="664.4" x2="925.2" y2="661"/>
<line class="st46" x1="907.7" y1="671.6" x2="927.9" y2="666.1"/>
<line class="st46" x1="909.4" y1="676.9" x2="929.8" y2="670.5"/>
<line class="st46" x1="911.8" y1="681.3" x2="933.2" y2="673.8"/>
<line class="st46" x1="914.3" y1="685.7" x2="936.2" y2="677.4"/>
<line class="st46" x1="916.9" y1="691" x2="939.8" y2="680.4"/>
<line class="st46" x1="919.6" y1="697" x2="942.4" y2="685.7"/>
<line class="st46" x1="924.9" y1="705" x2="945.2" y2="690"/>
<line class="st46" x1="930" y1="715.6" x2="945.9" y2="693"/>
<line class="st46" x1="933.4" y1="720.8" x2="946.2" y2="693.7"/>
<line class="st46" x1="995.1" y1="721.7" x2="937.9" y2="721.1"/>
<line class="st46" x1="939.8" y1="714.7" x2="994.4" y2="714.7"/>
<line class="st46" x1="940.6" y1="710.2" x2="970.6" y2="710.2"/>
<line class="st46" x1="975.8" y1="709.8" x2="991.8" y2="709.8"/>
<line class="st46" x1="945" y1="705.4" x2="991.8" y2="705.4"/>
<line class="st46" x1="1047.8" y1="643.6" x2="1060.5" y2="648.7"/>
<line class="st46" x1="1045.2" y1="647.6" x2="1058.2" y2="653.1"/>
<line class="st46" x1="1043.4" y1="651.3" x2="1055.5" y2="656.9"/>
<line class="st46" x1="1040.8" y1="655.1" x2="1053.3" y2="660.5"/>
<line class="st46" x1="1038.2" y1="658.7" x2="1051.2" y2="664.8"/>
<line class="st46" x1="1035.5" y1="661.8" x2="1048.6" y2="668.2"/>
<line class="st46" x1="1032.9" y1="666.1" x2="1045.9" y2="672.1"/>
<line class="st46" x1="1030.2" y1="670.5" x2="1043.3" y2="676.1"/>
<line class="st46" x1="1028.5" y1="674.4" x2="1042" y2="679.9"/>
<line class="st46" x1="1027.6" y1="677.6" x2="1040.1" y2="685.2"/>
<line class="st46" x1="1025.9" y1="681.5" x2="1035.2" y2="689.6"/>
<line class="st46" x1="1023.3" y1="683.1" x2="1030" y2="695.2"/>
<line class="st46" x1="1018.9" y1="682.9" x2="1026.6" y2="698.7"/>
<line class="st46" x1="1013.6" y1="687.5" x2="1020.4" y2="700.5"/>
<line class="st46" x1="1008.3" y1="689.2" x2="1014.5" y2="709.3"/>
<line class="st46" x1="1004.8" y1="691.4" x2="1007.6" y2="714.3"/>
<line class="st46" x1="1002.1" y1="693.5" x2="1001.4" y2="718.7"/>
<line class="st46" x1="999.3" y1="694" x2="997.8" y2="721.4"/>
<line class="st46" x1="984.6" y1="702" x2="994.4" y2="702"/>
<line class="st46" x1="989.5" y1="697.5" x2="995.1" y2="697.5"/>
<line class="st46" x1="992.3" y1="694" x2="996.8" y2="694"/>
<line class="st46" x1="946.7" y1="701.5" x2="964.3" y2="701.5"/>
<line class="st46" x1="968.4" y1="701.5" x2="977.6" y2="701.5"/>
<line class="st46" x1="947.7" y1="695.5" x2="960.2" y2="695.5"/>
<polygon class="st22" points="1094.5,620.2 1084.3,628.2 1075.1,612.6 1085.2,603.9 "/>
<line class="st46" x1="947.7" y1="690.9" x2="954.5" y2="690.9"/>
<text transform="matrix(1 0 0 1 946.5978 720.8562)" class="st110 st111 st112">JIM</text>
<g>
	<defs>
		<rect id="SVGID_00000076597175695102087480000010550284639545699749_" x="-62.3" y="-54.2" width="2045" height="1188"/>
	</defs>
	<clipPath id="SVGID_00000012429938265060195920000001645505995534629527_">
		<use xlink:href="#SVGID_00000076597175695102087480000010550284639545699749_"  style="overflow:visible;"/>
	</clipPath>
	<path style="clip-path:url(#SVGID_00000012429938265060195920000001645505995534629527_);fill:#F5C2A7;" d="M1067.9,638l-11.5-5
		c0,0-1.8-10.9-0.1-13.8c1.8-3,6.8-6.9,9.8-5.2c2.9,1.8-4.6,1.9-4.4,3.9c0.2,2.1,3.8,3.7,5.6,0.8c1.8-3,6.1-7.6,6.1-7.6
		s3.9-1.8,4.1-0.4c0.1,1.4-0.9,4.9-0.9,4.9s3.3-1.7,3.4-0.4c0.1,1.4,0.3,2.7,0.3,2.7s5.3-1.9,4.8,0.2c-0.5,2.1-3,4.5-3,4.5
		S1083.2,626.7,1067.9,638"/>
	<path style="clip-path:url(#SVGID_00000012429938265060195920000001645505995534629527_);fill:#DEFFFF;" d="M1081.2,627.4
		c0,0-2.4,3.7-5.5-0.1c-3.1-3.8-6.4-8.3-6.4-8.3s-2.3-1.8,2.9-5.1c-0.8-1.3-0.9-2-0.9-2s-7.3,2.8-4,8c3.3,5.2,6.5,9.7,6.5,9.7
		s4,5.1,8.2-0.2L1081.2,627.4z"/>
	<path style="clip-path:url(#SVGID_00000012429938265060195920000001645505995534629527_);fill:#FC9665;" d="M1404.8,764.1l3.8,12.4
		c0,0,10.1-0.3,17-2.9c-2.1-8.7-3.8-13.4-3.8-13.4s4.2-0.7,3.8-9.5c4.7-1.9,5.7-4.9,5.7-5.7c0-0.9,0.9-6.7-5.4-6.5
		c0.9-2.6,0-2.6,0-2.6s-16.3-2.4-22-11.9c-8.6,10.4-12.5,10.2-12.5,10.2l-2.6,1.7l0.9,2.6c0,0-4.6-1.2-4.6,4.2
		c0,4.3,1.1,6.5,5.4,7.6C1392.1,755.6,1390.8,763,1404.8,764.1"/>
</g>
<polygon class="st116" points="1404.8,741.9 1403.1,750.7 1407.6,750.5 "/>
<g>
	<defs>
		<rect id="SVGID_00000131334519420130990040000000643196862932356799_" x="-62.3" y="-54.2" width="2045" height="1188"/>
	</defs>
	<clipPath id="SVGID_00000082367908380530240980000000063731556635091358_">
		<use xlink:href="#SVGID_00000131334519420130990040000000643196862932356799_"  style="overflow:visible;"/>
	</clipPath>
	<path style="clip-path:url(#SVGID_00000082367908380530240980000000063731556635091358_);fill:#FFFFFF;" d="M1401.9,753l7.9-0.9
		C1409.7,752.1,1407.1,760.9,1401.9,753"/>
	<path style="clip-path:url(#SVGID_00000082367908380530240980000000063731556635091358_);fill:#231F20;" d="M1395.8,743.8
		c1,0,1.8-0.9,1.8-2.1c0-1.1-0.8-2.1-1.8-2.1c-1,0-1.8,0.9-1.8,2.1C1394,742.9,1394.8,743.8,1395.8,743.8"/>
	<path style="clip-path:url(#SVGID_00000082367908380530240980000000063731556635091358_);fill:none;stroke:#231F20;" d="
		M1395.8,743.8c1,0,1.8-0.9,1.8-2.1c0-1.1-0.8-2.1-1.8-2.1c-1,0-1.8,0.9-1.8,2.1C1394,742.9,1394.8,743.8,1395.8,743.8z"/>
	<path style="clip-path:url(#SVGID_00000082367908380530240980000000063731556635091358_);fill:#231F20;" d="M1411.6,742.9
		c1,0,1.8-0.9,1.8-2.1c0-1.1-0.8-2.1-1.8-2.1c-1,0-1.8,0.9-1.8,2.1C1409.8,741.9,1410.6,742.9,1411.6,742.9"/>
	<path style="clip-path:url(#SVGID_00000082367908380530240980000000063731556635091358_);fill:none;stroke:#231F20;" d="
		M1411.6,742.9c1,0,1.8-0.9,1.8-2.1c0-1.1-0.8-2.1-1.8-2.1c-1,0-1.8,0.9-1.8,2.1C1409.8,741.9,1410.6,742.9,1411.6,742.9z"/>
	<path style="clip-path:url(#SVGID_00000082367908380530240980000000063731556635091358_);fill:#3E1115;" d="M1410.4,729.8
		c0,0,5.2,3.7,13.9,5.8c0.5,0.1,0.9,9.9,1.4,10c0.6,0.1-0.3-10.8,0.3-10.8c2.6-0.9,6.1-23.8-19.2-22.9c-1.7,2.6-20-7.9-20,22
		c0.9,1.8,1.7,11.5,1.7,11.5l1.7-12.3c0,0,3.9,4.3,13.5-9.8C1405.7,726.9,1410.4,729.8,1410.4,729.8"/>
	<path style="clip-path:url(#SVGID_00000082367908380530240980000000063731556635091358_);fill:#3E1115;" d="M1394.7,711.7
		c0,0-4.4-14.1,12.2-14.1c16.5,0,12.2,14.9,12.2,14.9s-9.6-3.5-13.1-0.9C1400.8,710.8,1394.7,711.7,1394.7,711.7"/>
	<path style="clip-path:url(#SVGID_00000082367908380530240980000000063731556635091358_);fill:none;stroke:#231F20;" d="
		M1396.2,749.6c4.1,0,7.4-3.4,7.4-7.5c0-4.2-3.3-7.5-7.4-7.5c-4.1,0-7.4,3.4-7.4,7.5C1388.8,746.2,1392.1,749.6,1396.2,749.6z"/>
	<path style="clip-path:url(#SVGID_00000082367908380530240980000000063731556635091358_);fill:none;stroke:#231F20;" d="
		M1414.1,748.6c4.1,0,7.4-3.4,7.4-7.5c0-4.2-3.3-7.5-7.4-7.5c-4.1,0-7.4,3.4-7.4,7.5C1406.7,745.3,1410,748.6,1414.1,748.6z"/>
</g>
<line class="st38" x1="1403.9" y1="741.2" x2="1405.6" y2="741.2"/>
<line class="st38" x1="1421.8" y1="738.3" x2="1424.3" y2="737.4"/>
<g>
	<defs>
		<rect id="SVGID_00000017490431637446238310000011836039467540384640_" x="-62.3" y="-54.2" width="2045" height="1188"/>
	</defs>
	<clipPath id="SVGID_00000170972638716032332950000001265241610191409339_">
		<use xlink:href="#SVGID_00000017490431637446238310000011836039467540384640_"  style="overflow:visible;"/>
	</clipPath>
	<path style="clip-path:url(#SVGID_00000170972638716032332950000001265241610191409339_);fill:#3C3048;" d="M1394.4,858.8
		l-14.8,67.1l-5.5,63.7l20,8.2l13-67l6.2-27.5l-0.2-24.9l6.5,125.8l16.4-0.6c0,0,13.6-139.9,11.2-141.7
		C1438.4,855.7,1412.7,854.1,1394.4,858.8"/>
	<path style="clip-path:url(#SVGID_00000170972638716032332950000001265241610191409339_);fill:#7C9092;" d="M1389.7,996.9
		l-2.4,12.2l-26.9-7.4c0,0-4.9-7.2,16-6.1l1.4-3.7L1389.7,996.9z"/>
	<path style="clip-path:url(#SVGID_00000170972638716032332950000001265241610191409339_);fill:#D6E5B3;" d="M1406.2,775.2
		c0,0-19.4,4.2-22.7,8.2c-2.1,9.4-11.3,44.3-11.3,44.3s-29.1-35.7-32.6-33.5c-3.5,2.2-15.6,9.4-15.6,9.4s35.7,51.1,43.5,52.6
		c7.8,1.4,22.3-5.7,22.3-5.7l1.9,13.6c0,0,55.5,6.5,59.7,3.6c4.2-2.9,6-25,6-25s18.6-2.6,17.6-19.8c-1.2-21.5-11.6-44.2-21.9-53.3
		c-18.9-0.7-25.3,2.4-25.3,2.4S1418.9,779.5,1406.2,775.2"/>
	<path style="clip-path:url(#SVGID_00000170972638716032332950000001265241610191409339_);fill:none;stroke:#FFFFFF;" d="
		M1406.2,775.2c0,0-19.4,4.2-22.7,8.2c-2.1,9.4-11.3,44.3-11.3,44.3s-29.1-35.7-32.6-33.5c-3.5,2.2-15.6,9.4-15.6,9.4
		s35.7,51.1,43.5,52.6c7.8,1.4,22.3-5.7,22.3-5.7l1.9,13.6c0,0,55.5,6.5,59.7,3.6c4.2-2.9,6-25,6-25s18.6-2.6,17.6-19.8
		c-1.2-21.5-11.6-44.2-21.9-53.3c-18.9-0.7-25.3,2.4-25.3,2.4S1418.9,779.5,1406.2,775.2z"/>
	<path style="clip-path:url(#SVGID_00000170972638716032332950000001265241610191409339_);fill:#FC9665;" d="M1326.1,799.9l11.3-6.5
		c0,0,0.7-11.5-1.4-14.4c-2.1-2.9-7.8-6.5-10.6-4.3c-2.8,2.2,5,1.4,5,3.6c0,2.2-3.5,4.3-5.7,1.4c-2.1-2.9-7.1-7.2-7.1-7.2
		s-4.2-1.4-4.2,0c0,1.4,1.4,5,1.4,5s-3.5-1.4-3.5,0v2.9c0,0-5.7-1.4-5,0.7s3.5,4.3,3.5,4.3S1309.1,789.8,1326.1,799.9"/>
	<path style="clip-path:url(#SVGID_00000170972638716032332950000001265241610191409339_);fill:none;stroke:#FFFFFF;" d="
		M1444.2,792.1c0,0,41.7,49.1-22.6,34.2c2.7,13.7,2.9,14.9,2.9,14.9l33,1.4"/>
	<path style="clip-path:url(#SVGID_00000170972638716032332950000001265241610191409339_);fill:#7C9092;" d="M1433.8,1004.7
		l1.6,12.4l-27.7,1.1c0,0-6.9-5.4,13.2-10.7l0.1-4L1433.8,1004.7z"/>
	<path style="clip-path:url(#SVGID_00000170972638716032332950000001265241610191409339_);fill:none;stroke:#FFFFFF;" d="
		M1389.8,794.2c0,0-3.7,45.4,0.5,56.9"/>
	<path style="clip-path:url(#SVGID_00000170972638716032332950000001265241610191409339_);fill:#DEFFFF;" d="M1310,754.9
		c0,0-6.8,20,7.6,25.4c14.4,5.4,19-12.3,17.5-20L1310,754.9z"/>
	<path style="clip-path:url(#SVGID_00000170972638716032332950000001265241610191409339_);fill:#A80C17;" d="M1312.3,761.1
		c1.5,0,3,0,7.5,9.1c4.5,9.1,7.5-1.5,9-1.5c1.5,0,3,2.3,3,2.3s-13.6,22.9-22.6-6.9L1312.3,761.1z"/>
	<path style="clip-path:url(#SVGID_00000170972638716032332950000001265241610191409339_);fill:#DEFFFF;" d="M1316.8,780.8v11.5
		c0,0-10.6,1.5-6.8,3.1c3.8,1.5,7.6,2.3,7.6,2.3s16.7,2.3,2.3-4.6c0.8-10.8,0.8-11.5,0.8-11.5L1316.8,780.8z"/>
	<path style="clip-path:url(#SVGID_00000170972638716032332950000001265241610191409339_);fill:#FC9665;" d="M1422.6,838.8l-0.9-7.6
		l-1.9,0.2c0,0-1.9-4.1-6.2-4.2c-4.3-0.1-8.8-2-8.8-2s-2.2,1.6,5.8,4.7c-0.2,2.4-1.7,2.1-1.7,2.1l-12.3-3.1c0,0-5.7,0.5,6.2,4.2
		c-9.6-0.1-14.2,1.3-8.8,2.3c5.4,0.9,9.7,1,9.7,1s-6.6,0.6-8,1.2c-1.4,0.6,5,1.4,8.7,1.1c3.8-0.4-3.7,1.3-3.7,1.3
		S1417.7,841.6,1422.6,838.8"/>
	<path style="clip-path:url(#SVGID_00000170972638716032332950000001265241610191409339_);fill:#FCB482;" d="M786,752.9v7.1
		c0,0-6,4.6-10.6,0c-0.4-6.7-0.3-6.8-0.3-6.8s-13-1.4-12.3-14.8c-7.4-0.4-6.3-3.2-6-6.3c0.4-3.2,4.6-5.3,5.6-3.2
		c1.1,2.1,2.5-0.7,2.5-0.7s1.1-12.7,2.5-13c1.4-0.4,4.9,13.4,12.7,3.2c8.1,5.3,16.2,4.9,16.2,4.9S803.6,750,786,752.9"/>
</g>
<polygon class="st129" points="782.4,729.5 783.8,739.7 781,741.5 "/>
<g>
	<defs>
		<rect id="SVGID_00000052790351499625461980000012872890977393878671_" x="-62.3" y="-54.2" width="2045" height="1188"/>
	</defs>
	<clipPath id="SVGID_00000175319837790529365280000005821582260799660981_">
		<use xlink:href="#SVGID_00000052790351499625461980000012872890977393878671_"  style="overflow:visible;"/>
	</clipPath>
	<path style="clip-path:url(#SVGID_00000175319837790529365280000005821582260799660981_);fill:#FFFFFF;" d="M780.8,745l-5.6-1.4
		C775.1,743.6,776.2,749.2,780.8,745"/>
	<path style="clip-path:url(#SVGID_00000175319837790529365280000005821582260799660981_);fill:#B17133;" d="M765.6,729.2
		c0,0-1.8,5.6-3.2,1.4c-1.4-4.2-4.6-16.9,7-25c9.2-6.3,26.1-9.9,26.1,3.2c5.6,2.1,10.6,10.2,3.2,13.4c-1.4,8.1-1.8,8.1-1.8,8.1
		s-0.5-5.4-3.2-6c-4.9-1.1-12.7-5.6-13-6.3c-1.1-2.1-5.3,12-13.4-3.9C764.2,726.4,765.6,729.2,765.6,729.2"/>
	<path style="clip-path:url(#SVGID_00000175319837790529365280000005821582260799660981_);fill:#231F20;" d="M791,735.1
		c-1.1,0-1.9-0.9-1.9-2.1s0.9-2.1,1.9-2.1c1.1,0,1.9,0.9,1.9,2.1S792,735.1,791,735.1"/>
	<path style="clip-path:url(#SVGID_00000175319837790529365280000005821582260799660981_);fill:#231F20;" d="M775.1,735.1
		c-1.1,0-1.9-0.9-1.9-2.1s0.9-2.1,1.9-2.1c1.1,0,1.9,0.9,1.9,2.1S776.1,735.1,775.1,735.1"/>
	
		<ellipse transform="matrix(3.744745e-03 -1 1 3.744745e-03 54.2785 1524.8069)" style="clip-path:url(#SVGID_00000175319837790529365280000005821582260799660981_);fill:none;stroke:#231F20;" cx="792.4" cy="735.2" rx="7.6" ry="7.6"/>
	
		<ellipse transform="matrix(3.744745e-03 -1 1 3.744745e-03 36.5656 1505.6194)" style="clip-path:url(#SVGID_00000175319837790529365280000005821582260799660981_);fill:none;stroke:#231F20;" cx="773.9" cy="734.5" rx="7.6" ry="7.6"/>
	<path style="clip-path:url(#SVGID_00000175319837790529365280000005821582260799660981_);fill:none;stroke:#231F20;" d="
		M784.1,734.4c0,0-1.4-0.5-2.5-0.2"/>
	<path style="clip-path:url(#SVGID_00000175319837790529365280000005821582260799660981_);fill:#FCB482;" d="M854.6,782.8
		c0,0,8.6-8,11.2-7.8c2.6,0.2,21.3,5.1,22.5,6.5c1.2,1.4,3.7,4.1-14.2-0.5c13.3,7.1,14.1,7.4,14.1,7.4s1.7,2.4-1.7,2
		c-3.4-0.5-11.9-3.9-11.9-3.9l9.9,6.6c0,0,2.5,2.8-1.7,2c-4.2-0.8-12.1-5.8-12.1-5.8s5.1,7.3,4,7.8c-1.1,0.4-5.7-5.8-7.6-5.7
		c-1.9,0.1-2.8-2-2.8-2l-3.5,2.1L854.6,782.8z"/>
</g>
<polygon class="st21" points="871.7,762 861.3,796.5 873.7,801.5 894.7,769.5 "/>
<g>
	<defs>
		<rect id="SVGID_00000127024218377325069990000000286869530928294567_" x="-62.3" y="-54.2" width="2045" height="1188"/>
	</defs>
	<clipPath id="SVGID_00000123420196778525720980000000144227585279740571_">
		<use xlink:href="#SVGID_00000127024218377325069990000000286869530928294567_"  style="overflow:visible;"/>
	</clipPath>
	<path style="clip-path:url(#SVGID_00000123420196778525720980000000144227585279740571_);fill:#FFFFFF;" d="M870.5,771.5l-4.9,23.2
		l7.9,2.8l11.6-22.3C885.1,775.2,878.4,777.7,870.5,771.5"/>
	<path style="clip-path:url(#SVGID_00000123420196778525720980000000144227585279740571_);fill:#3C3048;" d="M751.5,853.7
		c0,0-4.4,70.5-4.4,72s-3.2,74-3.2,74h23l5.8-74l9.5-51.1l6.3,45.8l2.9,77.8l24.6,1.5l-1.9-79.3l-4.2-63.7
		C809.8,856.7,799.1,847.7,751.5,853.7"/>
	<path style="clip-path:url(#SVGID_00000123420196778525720980000000144227585279740571_);fill:#D47617;" d="M788.4,760
		c-1.2,0-7.1,7.1-14.1,0c-10.6,0-23.5,0-27,4.7c-3.5,4.7-29.4,50.5-24.7,61.1c4.7,10.6,27,7.1,27,7.1l1.2,27c0,0,57.6-2.4,58.8-2.4
		c1.2,0-1.2-40-1.2-40v-24.7c0,0,16.5,17.6,21.2,17.6c4.7,0,32.9-21.2,32.9-21.2l-3.5-10.6c0,0-25.9,10.6-31.7,9.4
		c-5.8-1.2-10.6-20-16.5-24.7C807.4,760.9,788.4,760,788.4,760"/>
	<path style="clip-path:url(#SVGID_00000123420196778525720980000000144227585279740571_);fill:none;stroke:#FFFFFF;" d="M788.4,760
		c-1.2,0-7.1,7.1-14.1,0c-10.6,0-23.5,0-27,4.7c-3.5,4.7-29.4,50.5-24.7,61.1c4.7,10.6,27,7.1,27,7.1l1.2,27c0,0,57.6-2.4,58.8-2.4
		c1.2,0-1.2-40-1.2-40v-24.7c0,0,16.5,17.6,21.2,17.6c4.7,0,32.9-21.2,32.9-21.2l-3.5-10.6c0,0-25.9,10.6-31.7,9.4
		c-5.8-1.2-10.6-20-16.5-24.7C807.4,760.9,788.4,760,788.4,760z"/>
	<path style="clip-path:url(#SVGID_00000123420196778525720980000000144227585279740571_);fill:#FE9B7C;" d="M783.3,812.2l8.3-2.7
		l8-10.1l7.2,1l6.9-6.4c0,0,5.8-5.1-5.5,12.4c9.5-1.5,11.9-1.6,11.9-1.6s-1.1,3.7-15.3,7.9c-2.2,6.2-8.2,5.2-8.2,5.2l-4.8,0.2
		l-3.5,1.3L783.3,812.2z"/>
</g>
<polyline class="st140" points="749.6,832.7 792.2,820.9 789.8,806.8 747.3,806.8 750.8,791.4 750.8,805.6 "/>
<polyline class="st46" points="749.6,832.7 792.2,820.9 789.8,806.8 747.3,806.8 750.8,791.4 750.8,805.6 "/>
<g>
	<defs>
		<rect id="SVGID_00000019675475372710032240000003840768085943593618_" x="-62.3" y="-54.2" width="2045" height="1188"/>
	</defs>
	<clipPath id="SVGID_00000125585067582616996160000015127101485497844623_">
		<use xlink:href="#SVGID_00000019675475372710032240000003840768085943593618_"  style="overflow:visible;"/>
	</clipPath>
	<path style="clip-path:url(#SVGID_00000125585067582616996160000015127101485497844623_);fill:#7DB258;" d="M763.7,999.8l1.8,11.6
		l-27.1,1.5c0,0-6.8-4.9,12.7-10.3l0.1-3.7L763.7,999.8z"/>
	<path style="clip-path:url(#SVGID_00000125585067582616996160000015127101485497844623_);fill:#7DB258;" d="M794.3,1000.9l-2,11.6
		l27.1,1.9c0,0,6.9-4.8-12.5-10.5l0-3.7L794.3,1000.9z"/>
	<path style="clip-path:url(#SVGID_00000125585067582616996160000015127101485497844623_);fill:#02B1AC;" d="M226.3,1021.9
		l-1.1,13.3l30.4-0.4c0,0,7.2-6.1-15-10.7l-0.4-4.2L226.3,1021.9z"/>
	<path style="clip-path:url(#SVGID_00000125585067582616996160000015127101485497844623_);fill:#02B1AC;" d="M125.5,923.1l-10.9-7.9
		l-15.5,26.1c0,0,1.5,9.4,17-7.2l3.8,1.9L125.5,923.1z"/>
	<path style="clip-path:url(#SVGID_00000125585067582616996160000015127101485497844623_);fill:#3C3048;" d="M165.3,857.8
		c0,0-5.3,40.3-4,78c-25.7-12.8-31.9-18.1-31.9-18.1l-13.2,20.8c0,0,46.6,37.5,61.6,29.7c15-7.8,29.7-83,29.7-83l-3.8,25l14.3,109.1
		l24.5-1.9c0,0-6-155.5-8.1-152.3C227.5,875.6,177.2,879,165.3,857.8"/>
	<path style="clip-path:url(#SVGID_00000125585067582616996160000015127101485497844623_);fill:#5D89B8;" d="M157.2,836.9
		c0,0-10.3,27.1,53.5,29.3c40.3-7.3,35.2-28.6,35.2-28.6l2.2-57.2l-0.7,41.8c0,0,22,22.7,59.4-2.9c4.4-11.7-1.5-16.1-1.5-16.1
		s-22.7,2.2-46.9-35.2c-13.9-17.6-27.1-18.3-27.1-18.3s-13.9,19.1-26.4-2.2c-17.6,2.9-25.7-8.1-56.5,39.6
		c-30.8,47.7,38.9,70.4,59.4,36.7c2.9-15.4,0.7-15.4-6.6-20.5s-26.4-0.7-16.9-22.7"/>
	<path style="clip-path:url(#SVGID_00000125585067582616996160000015127101485497844623_);fill:#3A728D;" d="M160.9,852.3
		c0,0-0.7,5.9,2.2,8.1c2.9,2.2,22,14.7,45.5,13.2c23.5-1.5,32.3-16.1,32.3-16.1v-5.9C240.8,851.6,215.1,884.6,160.9,852.3"/>
	<path style="clip-path:url(#SVGID_00000125585067582616996160000015127101485497844623_);fill:#3A728D;" d="M209.3,745.3
		c0,0-15.4,8.8,5.9,13.2c23.5,2.2,12.5-10.3,11-11.7c-1.5-1.5,0.7,5.1-3.7,6.6C218.1,754.8,210,754.8,209.3,745.3"/>
	<path style="clip-path:url(#SVGID_00000125585067582616996160000015127101485497844623_);fill:#FC9665;" d="M212.5,727.3l-1.5,19.8
		c0,0,2.2,9.5,15.4,2.2v-9.5c0,0,16.1,2.9,17.6-8.8c1.5-11.7,1.5-16.1,1.5-16.1s-19.4-6.8-19.8-7.3c-2.2-2.9,2.9,5.9-11.7,8.1
		c-2.9-2.2-9.5-6.6-12.5,3.7C201.5,728.8,214,728,212.5,727.3"/>
	<path style="clip-path:url(#SVGID_00000125585067582616996160000015127101485497844623_);fill:#231F20;" d="M229,718
		c0.7,0,1.3-0.6,1.3-1.3c0-0.7-0.6-1.3-1.3-1.3c-0.7,0-1.3,0.6-1.3,1.3C227.7,717.4,228.3,718,229,718"/>
	<path style="clip-path:url(#SVGID_00000125585067582616996160000015127101485497844623_);fill:none;stroke:#231F20;" d="M229,718
		c0.7,0,1.3-0.6,1.3-1.3c0-0.7-0.6-1.3-1.3-1.3c-0.7,0-1.3,0.6-1.3,1.3C227.7,717.4,228.3,718,229,718z"/>
	<path style="clip-path:url(#SVGID_00000125585067582616996160000015127101485497844623_);fill:#231F20;" d="M242.2,718.7
		c0.7,0,1.3-0.6,1.3-1.3c0-0.7-0.6-1.3-1.3-1.3c-0.7,0-1.3,0.6-1.3,1.3C240.9,718.1,241.5,718.7,242.2,718.7"/>
	<path style="clip-path:url(#SVGID_00000125585067582616996160000015127101485497844623_);fill:none;stroke:#231F20;" d="
		M242.2,718.7c0.7,0,1.3-0.6,1.3-1.3c0-0.7-0.6-1.3-1.3-1.3c-0.7,0-1.3,0.6-1.3,1.3C240.9,718.1,241.5,718.7,242.2,718.7z"/>
	<path style="clip-path:url(#SVGID_00000125585067582616996160000015127101485497844623_);fill:#FFFFFF;" d="M230.2,724.4
		c-0.2-0.7,8.6,1.4,8.6,1.4S232.3,734.4,230.2,724.4"/>
</g>
<polygon class="st7" points="236.1,716.1 238.7,720.6 236.1,721.3 "/>
<polygon class="st8" points="236.1,716.1 238.7,720.6 236.1,721.3 "/>
<g>
	<defs>
		<rect id="SVGID_00000123424877185178310200000014682498475856041908_" x="-62.3" y="-54.2" width="2045" height="1188"/>
	</defs>
	<clipPath id="SVGID_00000111188129747867966600000013096688035813820299_">
		<use xlink:href="#SVGID_00000123424877185178310200000014682498475856041908_"  style="overflow:visible;"/>
	</clipPath>
	<path style="clip-path:url(#SVGID_00000111188129747867966600000013096688035813820299_);fill:#B57A42;" d="M201.9,713.9
		c0,0-6.6-14.7,5.9-22c2.2-0.7,2.2,0,2.2,0s27.1-28.6,44.7,8.1c0.7,4.4-3.7,5.1-3.7,5.1s4.4,9.5-4.4,8.8s-21.3-8.1-21.3-8.1
		s1.5,7.3-9.5,8.8C209.2,716.1,214.4,709.5,201.9,713.9"/>
	<path style="clip-path:url(#SVGID_00000111188129747867966600000013096688035813820299_);fill:#FC9665;" d="M210,808.9l11.3-1.7
		c0,0,8.8-5.6,9.9-4.5c1.2,1.2-5.3,6.8-5.3,6.8l17.1-2.9c0,0,2.6,1.6-0.2,3c-2.8,1.4-9.5,3.1-9.5,3.1l10.2-0.5c0,0,1.6-0.2-1.2,1.2
		c-2.8,1.4-6.7,1.7-6.7,1.7l7.7,0.2c0,0,2.1,0.7,0.5,0.9c-1.6,0.2-9.5,3.1-9.5,3.1s8.8-1,8.3,0.4c-0.5,1.4-19.7,5.9-33.8,4.4
		C209.9,823.5,212.6,810.5,210,808.9"/>
	<path style="clip-path:url(#SVGID_00000111188129747867966600000013096688035813820299_);fill:#FC9665;" d="M326.3,800.7
		c-6-2.7-17.3,5.9-17.3,5.9s1.9,8.3-2.2,11.6c6.5,1.3,21.8,1.7,21.8,1.7l10.4-10.5c0,0-0.3-8.6-1.4-7.4c-1.2,1.2-1.3,6.5-1.3,6.5
		s-2.1-7.6-2.8-5.5c-0.7,2.1-1.1,8.1-1.1,8.1s-1.7-6.7-3.3-6.5s-0.4,10.7-0.4,10.7s-3.3-6.5-4-4.4c-0.7,2.1,1.7,6.7,1.7,6.7
		l-2.6-6.2l2.5-3l-3.3-4.1c0,0-3.7,6.5-9.4,7.7c5.8-3.5,9-8.6,9-8.6S332.4,803.4,326.3,800.7"/>
	<path style="clip-path:url(#SVGID_00000111188129747867966600000013096688035813820299_);fill:#DEFFFF;" d="M313.3,784.6
		c0,0-2.9,21.3,11.7,21.3c14.7,0,13.9-20.5,13.9-20.5L313.3,784.6z"/>
	<path style="clip-path:url(#SVGID_00000111188129747867966600000013096688035813820299_);fill:#DEFFFF;" d="M323.5,806.6v13.2
		c0,0-13.2,3.7,2.2,4.4c15.4,0.7,4.4-5.1,1.5-4.4v-13.2C327.2,806.6,325,807.4,323.5,806.6"/>
	<path style="clip-path:url(#SVGID_00000111188129747867966600000013096688035813820299_);fill:#B14545;" d="M315.5,792.7
		c0,0-0.7,11,7.3,11c8.1,0,11-0.7,14.7-11c3.7-10.3-10.3-0.7-11,2.9C325.7,799.3,315.5,792.7,315.5,792.7"/>
	<path style="clip-path:url(#SVGID_00000111188129747867966600000013096688035813820299_);fill:#1C60B5;" d="M525.4,729.2
		c0,0,19.3-4.2,31.4,10.8c3.9,15.5,3.9,43.6-6.7,62.3c-8.4,9.3-60.8,3.6-60.8,3.6V793l4.1,0.1l-0.6-13.7l-10,12.9c0,0-0.7,5-7.1,2.9
		c-6.4-2.1-32.2-37.2-36.5-43.6c15-12.9,15.7-13.6,15.7-13.6l20.7,20.7c0,0,9.4-24.2,11.4-26.8c2.1-2.6,17.3-2.6,17.3-2.6
		S514.7,739.2,525.4,729.2"/>
	<path style="clip-path:url(#SVGID_00000111188129747867966600000013096688035813820299_);fill:none;stroke:#FFFFFF;" d="
		M525.4,729.2c0,0,19.3-4.2,31.4,10.8c3.9,15.5,3.9,43.6-6.7,62.3c-8.4,9.3-60.8,3.6-60.8,3.6V793l4.1,0.1l-0.6-13.7l-10,12.9
		c0,0-0.7,5-7.1,2.9c-6.4-2.1-32.2-37.2-36.5-43.6c15-12.9,15.7-13.6,15.7-13.6l20.7,20.7c0,0,9.4-24.2,11.4-26.8
		c2.1-2.6,17.3-2.6,17.3-2.6S514.7,739.2,525.4,729.2z"/>
	<path style="clip-path:url(#SVGID_00000111188129747867966600000013096688035813820299_);fill:none;stroke:#FFFFFF;" d="
		M538.9,766.1c0,0-10.8,29.6-45,26.6"/>
</g>
</svg>
