<?xml version="1.0" encoding="utf-8"?>
<!-- Generator: Adobe Illustrator 26.0.3, SVG Export Plug-In . SVG Version: 6.00 Build 0)  -->
<svg version="1.1" id="Layer_1" xmlns="http://www.w3.org/2000/svg" xmlns:xlink="http://www.w3.org/1999/xlink" x="0px" y="0px"
	 viewBox="0 0 216 216" style="enable-background:new 0 0 216 216;" xml:space="preserve">
<style type="text/css">
	.st0{fill:#FFFFFF;}
	.st1{font-family:'DINCondensed-Bold';}
	.st2{font-size:21px;}
	.st3{font-size:21.0001px;}
	.st4{clip-path:url(#SVGID_00000041982078196762752350000014566961731878089366_);fill:none;stroke:#FFFFFF;stroke-width:2;}
	.st5{clip-path:url(#SVGID_00000041982078196762752350000014566961731878089366_);fill:#D9BB27;}
	.st6{clip-path:url(#SVGID_00000041982078196762752350000014566961731878089366_);fill:#E28E72;}
	
		.st7{clip-path:url(#SVGID_00000041982078196762752350000014566961731878089366_);fill:none;stroke:#FFFFFF;stroke-width:2;stroke-linejoin:round;}
	
		.st8{clip-path:url(#SVGID_00000041982078196762752350000014566961731878089366_);fill:none;stroke:#FFFFFF;stroke-width:2;stroke-linecap:round;stroke-linejoin:bevel;}
	.st9{fill:none;stroke:#FFFFFF;stroke-width:2;stroke-linejoin:round;}
</style>
<text transform="matrix(0.6177 -0.7864 0.7864 0.6177 44.1621 65.5768)" class="st0 st1 st2">B</text>
<text transform="matrix(0.7687 -0.6396 0.6396 0.7687 54.7111 52.2654)" class="st0 st1 st2">O</text>
<text transform="matrix(0.8738 -0.4863 0.4863 0.8738 67.5967 41.6231)" class="st0 st1 st2">T</text>
<text transform="matrix(0.9491 -0.3149 0.3149 0.9491 80.6934 34.3149)" class="st0 st1 st2">T</text>
<text transform="matrix(0.9918 -0.1278 0.1278 0.9918 94.665 29.5696)" class="st0 st1 st2">O</text>
<text transform="matrix(0.9925 0.1224 -0.1224 0.9925 111.5487 27.2598)" class="st0 st1 st2">M</text>
<text transform="matrix(0.936 0.3519 -0.3519 0.936 131.0655 29.9613)" class="st0 st1 st2">S</text>
<text transform="matrix(0.8393 0.5437 -0.5437 0.8393 146.4344 36.0612)" class="st0 st1 st2"> </text>
<text transform="matrix(0.7237 0.6901 -0.6901 0.7237 156.5791 42.3723)" class="st0 st1 st2">U</text>
<text transform="matrix(0.5452 0.8383 -0.8383 0.5452 168.7529 54.2123)" class="st0 st1 st3">P</text>
<text transform="matrix(0.4143 0.9101 -0.9101 0.4143 177.3552 68.3145)" class="st0 st1 st3">!</text>
<g>
	<defs>
		<rect id="SVGID_1_" x="-26.1" y="-28.5" width="268.2" height="272.3"/>
	</defs>
	<clipPath id="SVGID_00000081628185090084035940000000116453999724741281_">
		<use xlink:href="#SVGID_1_"  style="overflow:visible;"/>
	</clipPath>
	
		<path style="clip-path:url(#SVGID_00000081628185090084035940000000116453999724741281_);fill:none;stroke:#FFFFFF;stroke-width:2;" d="
		M123.2,107.4c5.9-5.4,9.6-10.9,8.4-12.3c-1.2-1.4-7,1.9-12.9,7.3c-5.9,5.4-9.3,9.5-8.1,10.9S117.3,112.8,123.2,107.4z"/>
	
		<path style="clip-path:url(#SVGID_00000081628185090084035940000000116453999724741281_);fill:none;stroke:#FFFFFF;stroke-width:2;" d="
		M165,157.8l1.2,1.2c0,0,4.2,5.1-1.8,17.1c2.3,0.9,7.7-3.7,11.2-6.5c8.8-7.3,9.3-12.9,9.3-12.9s-12.4,6.3-17.3,1.4
		C167.3,157.8,165,157.8,165,157.8z"/>
	
		<path style="clip-path:url(#SVGID_00000081628185090084035940000000116453999724741281_);fill:none;stroke:#FFFFFF;stroke-width:2;" d="
		M111.6,115.4c0,0,22.2,29.9,34.2,18.6c12-11.3-13-36.8-13-36.8S126.2,110.9,111.6,115.4z"/>
	<path style="clip-path:url(#SVGID_00000081628185090084035940000000116453999724741281_);fill:#D9BB27;" d="M118.2,119.6
		c0,0,20.5,21.5,26.9,11.5c5.1-7.8-0.8-12.8-0.8-12.8s-9.5-1-10.3,1.7c-0.8,2.7-9.1,1.7-9.1,1.7S118.3,118.1,118.2,119.6"/>
	
		<path style="clip-path:url(#SVGID_00000081628185090084035940000000116453999724741281_);fill:none;stroke:#FFFFFF;stroke-width:2;" d="
		M118.2,119.6c0,0,20.5,21.5,26.9,11.5c5.1-7.8-0.8-12.8-0.8-12.8s-9.5-1-10.3,1.7c-0.8,2.7-9.1,1.7-9.1,1.7
		S118.3,118.1,118.2,119.6z"/>
	
		<path style="clip-path:url(#SVGID_00000081628185090084035940000000116453999724741281_);fill:none;stroke:#FFFFFF;stroke-width:2;" d="
		M94.9,97.6c7.3,3.1,13.9,4.2,14.6,2.5c0.7-1.7-4.7-5.6-12-8.6C90.2,88.4,82.7,85,82,86.7S87.6,94.6,94.9,97.6z"/>
	
		<path style="clip-path:url(#SVGID_00000081628185090084035940000000116453999724741281_);fill:none;stroke:#FFFFFF;stroke-width:2;" d="
		M81.5,87.9c0,0-15,29.9,0.7,40.6c15.1,5.8,25.2-22.7,27.2-25.9C111.3,99.4,98.1,105.8,81.5,87.9z"/>
	
		<path style="clip-path:url(#SVGID_00000081628185090084035940000000116453999724741281_);fill:none;stroke:#FFFFFF;stroke-width:2;" d="
		M72.1,149.9l-1.5,3.7l-7.1,1.9l-5,1.7c0,0,14.1,9.8,24.1,9.3c-4.5-4.9-11-11.9-11-11.9l1.7-4.9L72.1,149.9z"/>
	<path style="clip-path:url(#SVGID_00000081628185090084035940000000116453999724741281_);fill:#E28E72;" d="M77.4,110.5
		c0,0-1.6,13.1,5.5,15.5c7.1,2.4,13.6,0.8,21.2-16.6c-1.7,0.2-3.2,0.4-3.2,0.4s-1.5-0.2-8-0.6C85.7,111.5,87.9,112.4,77.4,110.5"/>
	
		<path style="clip-path:url(#SVGID_00000081628185090084035940000000116453999724741281_);fill:none;stroke:#FFFFFF;stroke-width:2;stroke-linejoin:round;" d="
		M77.4,110.5c0,0-1.6,13.1,5.5,15.5c7.1,2.4,13.6,0.8,21.2-16.6c-1.7,0.2-3.2,0.4-3.2,0.4s-1.5-0.2-8-0.6
		C85.7,111.5,87.9,112.4,77.4,110.5z"/>
	
		<path style="clip-path:url(#SVGID_00000081628185090084035940000000116453999724741281_);fill:none;stroke:#FFFFFF;stroke-width:2;stroke-linecap:round;stroke-linejoin:bevel;" d="
		M142.8,138.6c0,0-1.4,1.2,2,3.7s5.4,4,7.1,3c1.7-1-2.7-4.6-2.7-4.6s-3.9-0.3-4.1-3.6C143,138.4,143.3,138.1,142.8,138.6z"/>
	
		<path style="clip-path:url(#SVGID_00000081628185090084035940000000116453999724741281_);fill:none;stroke:#FFFFFF;stroke-width:2;stroke-linecap:round;stroke-linejoin:bevel;" d="
		M146.4,145.5c0,0-0.5,1.9,0.4,2.8c0.9,0.8,7.1,2,7.1,2s1.7,0.3,5.8-1.1c4.1-1.5-4.9-2.2-5.8-2.4C153,146.6,152.8,148.9,146.4,145.5
		z"/>
	
		<path style="clip-path:url(#SVGID_00000081628185090084035940000000116453999724741281_);fill:none;stroke:#FFFFFF;stroke-width:2;stroke-linecap:round;stroke-linejoin:bevel;" d="
		M151.4,151.7c0,0-0.9,2.7,5.3,2.2c6.1-0.4,4.1,0,4.1,0s4.7,0.4,7.3-4.6c-1.9-1.9-7.8,1.6-7.8,1.6S154.6,152.6,151.4,151.7z"/>
	
		<path style="clip-path:url(#SVGID_00000081628185090084035940000000116453999724741281_);fill:none;stroke:#FFFFFF;stroke-width:2;stroke-linecap:round;stroke-linejoin:bevel;" d="
		M157.3,155.5c0,0,0.5,1.6,5.4,1c4.8-0.5,10.4-3.7,10.4-3.7s1.1-2-5-0.8C163.5,154.8,161.8,155.9,157.3,155.5z"/>
	
		<path style="clip-path:url(#SVGID_00000081628185090084035940000000116453999724741281_);fill:none;stroke:#FFFFFF;stroke-width:2;stroke-linecap:round;stroke-linejoin:bevel;" d="
		M180.5,130.4c-5.2,1.4-11.9,3.7-15.4,4.2c-3.4,0.4-8-0.7-9.1-0.6c-1.1,0.1-10.2,1.5-9.3,1.7c0,0,1.2,5.9,8.8,3.8
		c4.7,2,9.4,0.8,9.4,0.8l-2.8,0.9c0,0,2.8,3.3,5.2,3.9c2.3,0.6,12.5,8.8,25.5,6.5c5.3-0.6,9.3-1.1,11.8-5.7"/>
	
		<path style="clip-path:url(#SVGID_00000081628185090084035940000000116453999724741281_);fill:none;stroke:#FFFFFF;stroke-width:2;stroke-linecap:round;stroke-linejoin:bevel;" d="
		M11.5,138.1c3.6,8.1,7.4,12.1,17.5,16.1s26.9,3.8,33.7-0.6c6.8-4.4,7.9-4.5,7.9-4.5s3.9-1.7,4.6-2.9c0.7-1.3-4.8-0.6-4.8-0.6
		s6.1-0.2,8.3-1.4c2.2-1.2,1.4-2.5,1.4-2.5l-8.7-1.5c0,0,16.7,4.3,14.1-2.4c-12.9-4.2-14.2-5.2-14.6-6.2c-0.4-1,4.6,4.2,15.7,5.8
		c2.4-1.8-2.7-5.2-2.7-5.2s-1.6-1.3-7.4-3.2c-5.9-1.9-5.5-4.5-12.1-2.6c-11.3,6.6-19.6,2.3-22.8,1c-8.5-3.4-10.1-9.3-10.1-9.3"/>
</g>
<line class="st9" x1="71.2" y1="61.3" x2="76.5" y2="81.5"/>
<line class="st9" x1="113.6" y1="89.2" x2="116.5" y2="61.2"/>
<line class="st9" x1="144.8" y1="89.1" x2="157.7" y2="71.5"/>
</svg>
