<?xml version="1.0" encoding="utf-8"?>
<!-- Generator: Adobe Illustrator 26.0.3, SVG Export Plug-In . SVG Version: 6.00 Build 0)  -->
<svg version="1.1" id="Layer_1" xmlns="http://www.w3.org/2000/svg" xmlns:xlink="http://www.w3.org/1999/xlink" x="0px" y="0px"
	 viewBox="0 0 216 216" style="enable-background:new 0 0 216 216;" xml:space="preserve">
<style type="text/css">
	.st0{clip-path:url(#SVGID_00000073719941756429768150000017309201874071866288_);fill:#FFE264;}
	.st1{fill:#231F20;}
	.st2{font-family:'DINCondensed-Bold';}
	.st3{font-size:21px;}
	.st4{font-size:20.9999px;}
	.st5{font-size:21.0001px;}
	.st6{clip-path:url(#SVGID_00000047017781091610937950000001364139818375910562_);fill:none;stroke:#231F20;stroke-width:2;}
	.st7{clip-path:url(#SVGID_00000047017781091610937950000001364139818375910562_);}
	.st8{clip-path:url(#SVGID_00000047017781091610937950000001364139818375910562_);fill:#020100;}
	
		.st9{clip-path:url(#SVGID_00000047017781091610937950000001364139818375910562_);fill:none;stroke:#231F20;stroke-width:2;stroke-linejoin:round;}
	.st10{fill:none;stroke:#231F20;}
	.st11{clip-path:url(#SVGID_00000051347923033022732030000003569725542407843490_);fill:#FFFFFF;}
	.st12{fill:none;stroke:#231F20;stroke-linecap:round;stroke-linejoin:bevel;}
	
		.st13{clip-path:url(#SVGID_00000049922344420359495690000014054106600829139842_);fill:none;stroke:#231F20;stroke-width:2;stroke-linecap:round;stroke-linejoin:bevel;}
	.st14{fill:none;stroke:#231F20;stroke-width:2;stroke-linejoin:round;}
	.st15{clip-path:url(#SVGID_00000128460015012258473700000017428970360754923166_);fill:none;stroke:#231F20;stroke-width:2;}
</style>
<g>
	<defs>
		<rect id="SVGID_1_" x="-24.1" y="-22.9" width="264.1" height="261.1"/>
	</defs>
	<clipPath id="SVGID_00000005962685472742031790000011150396953563495300_">
		<use xlink:href="#SVGID_1_"  style="overflow:visible;"/>
	</clipPath>
	<path style="clip-path:url(#SVGID_00000005962685472742031790000011150396953563495300_);fill:#FFE264;" d="M104.9,188.7
		c44.9,0,81.3-35.5,81.3-79.3S149.8,30,104.9,30s-81.3,35.5-81.3,79.3S60,188.7,104.9,188.7"/>
</g>
<text transform="matrix(0.6575 -0.7535 0.7535 0.6575 38.4311 61.6466)" class="st1 st2 st3">B</text>
<text transform="matrix(0.7912 -0.6116 0.6116 0.7912 49.6084 48.8731)" class="st1 st2 st4">O</text>
<text transform="matrix(0.8927 -0.4507 0.4507 0.8927 62.9369 38.8039)" class="st1 st2 st3">T</text>
<text transform="matrix(0.9614 -0.2751 0.2751 0.9614 76.3305 32.0571)" class="st1 st2 st3">T</text>
<text transform="matrix(0.9961 -8.848589e-02 8.848589e-02 0.9961 90.4668 27.7735)" class="st1 st2 st3">O</text>
<text transform="matrix(0.9917 0.1288 -0.1288 0.9917 107.4053 25.9345)" class="st1 st2 st3">M</text>
<text transform="matrix(0.9474 0.3201 -0.3201 0.9474 126.9345 28.5495)" class="st1 st2 st3">S</text>
<text transform="matrix(0.8785 0.4777 -0.4777 0.8785 142.5367 34.001)" class="st1 st2 st3"> </text>
<text transform="matrix(0.7848 0.6198 -0.6198 0.7848 153.1564 39.4699)" class="st1 st2 st3">U</text>
<text transform="matrix(0.6518 0.7584 -0.7584 0.6518 166.4471 50.0238)" class="st1 st2 st3">P</text>
<text transform="matrix(0.5365 0.8439 -0.8439 0.5365 176.9029 62.8155)" class="st1 st2 st5">!</text>
<g>
	<defs>
		<rect id="SVGID_00000169556047642754742590000008598012983097190305_" x="-24.1" y="-22.9" width="264.1" height="261.1"/>
	</defs>
	<clipPath id="SVGID_00000093895412971280270090000007136238133290661310_">
		<use xlink:href="#SVGID_00000169556047642754742590000008598012983097190305_"  style="overflow:visible;"/>
	</clipPath>
	
		<path style="clip-path:url(#SVGID_00000093895412971280270090000007136238133290661310_);fill:none;stroke:#231F20;stroke-width:2;" d="
		M123.1,90.8c5.9-5.4,9.6-10.9,8.4-12.3c-1.2-1.4-7,1.9-12.9,7.3c-5.9,5.4-9.3,9.5-8.1,10.9S117.2,96.2,123.1,90.8z"/>
	
		<path style="clip-path:url(#SVGID_00000093895412971280270090000007136238133290661310_);fill:none;stroke:#231F20;stroke-width:2;" d="
		M111.5,98.9c0,0,22.2,29.9,34.2,18.6c12-11.3-13-36.8-13-36.8S126.1,94.3,111.5,98.9z"/>
	<path style="clip-path:url(#SVGID_00000093895412971280270090000007136238133290661310_);" d="M118.1,103c0,0,20.5,21.5,26.9,11.5
		c5.1-7.8-0.8-12.8-0.8-12.8s-9.5-1-10.3,1.7c-0.8,2.7-9.1,1.7-9.1,1.7S118.2,101.6,118.1,103"/>
	
		<path style="clip-path:url(#SVGID_00000093895412971280270090000007136238133290661310_);fill:none;stroke:#231F20;stroke-width:2;" d="
		M118.1,103c0,0,20.5,21.5,26.9,11.5c5.1-7.8-0.8-12.8-0.8-12.8s-9.5-1-10.3,1.7c-0.8,2.7-9.1,1.7-9.1,1.7S118.2,101.6,118.1,103z"
		/>
	
		<path style="clip-path:url(#SVGID_00000093895412971280270090000007136238133290661310_);fill:none;stroke:#231F20;stroke-width:2;" d="
		M94.8,81.1c7.3,3.1,13.9,4.2,14.6,2.5c0.7-1.7-4.7-5.6-12-8.6c-7.3-3.1-14.8-6.5-15.6-4.8S87.5,78,94.8,81.1z"/>
	
		<path style="clip-path:url(#SVGID_00000093895412971280270090000007136238133290661310_);fill:none;stroke:#231F20;stroke-width:2;" d="
		M81.3,71.4c0,0-15,29.9,0.7,40.6c15.1,5.8,25.2-22.7,27.2-25.9C111.2,82.8,98,89.3,81.3,71.4z"/>
	
		<path style="clip-path:url(#SVGID_00000093895412971280270090000007136238133290661310_);fill:none;stroke:#231F20;stroke-width:2;" d="
		M72,133.3l-1.5,3.7l-7.1,1.9l-5,1.7c0,0,14.1,9.8,24.1,9.3c-4.5-4.9-11-11.9-11-11.9l1.7-4.9L72,133.3z"/>
	<path style="clip-path:url(#SVGID_00000093895412971280270090000007136238133290661310_);fill:#020100;" d="M77.2,93.9
		c0,0-1.6,13.1,5.5,15.5c7.1,2.4,13.6,0.8,21.2-16.6c-1.7,0.2-3.2,0.4-3.2,0.4s-1.5-0.2-8-0.6C85.6,94.9,87.8,95.8,77.2,93.9"/>
	
		<path style="clip-path:url(#SVGID_00000093895412971280270090000007136238133290661310_);fill:none;stroke:#231F20;stroke-width:2;stroke-linejoin:round;" d="
		M77.2,93.9c0,0-1.6,13.1,5.5,15.5c7.1,2.4,13.6,0.8,21.2-16.6c-1.7,0.2-3.2,0.4-3.2,0.4s-1.5-0.2-8-0.6
		C85.6,94.9,87.8,95.8,77.2,93.9z"/>
</g>
<path class="st10" d="M185.2,149.9"/>
<g>
	<defs>
		<rect id="SVGID_00000100358562954848217880000009098549304538283966_" x="-24.1" y="-22.9" width="264.1" height="261.1"/>
	</defs>
	<clipPath id="SVGID_00000104680288719056773930000008724018828799062403_">
		<use xlink:href="#SVGID_00000100358562954848217880000009098549304538283966_"  style="overflow:visible;"/>
	</clipPath>
	<path style="clip-path:url(#SVGID_00000104680288719056773930000008724018828799062403_);fill:#FFFFFF;" d="M187,149.3"/>
</g>
<path class="st12" d="M187,149.3"/>
<g>
	<defs>
		<rect id="SVGID_00000076604310458468799010000010139956469593109632_" x="-24.1" y="-22.9" width="264.1" height="261.1"/>
	</defs>
	<clipPath id="SVGID_00000114049081746421278260000000270127564988640391_">
		<use xlink:href="#SVGID_00000076604310458468799010000010139956469593109632_"  style="overflow:visible;"/>
	</clipPath>
	
		<path style="clip-path:url(#SVGID_00000114049081746421278260000000270127564988640391_);fill:none;stroke:#231F20;stroke-width:2;stroke-linecap:round;stroke-linejoin:bevel;" d="
		M142.7,122.1c0,0-1.4,1.2,2,3.7c3.4,2.4,5.4,4,7.1,3c1.7-1-2.7-4.6-2.7-4.6s-3.9-0.3-4.1-3.6C142.9,121.8,143.2,121.5,142.7,122.1z
		"/>
	
		<path style="clip-path:url(#SVGID_00000114049081746421278260000000270127564988640391_);fill:none;stroke:#231F20;stroke-width:2;stroke-linecap:round;stroke-linejoin:bevel;" d="
		M146.3,129c0,0-0.5,1.9,0.4,2.8c0.9,0.8,7.1,2,7.1,2s1.7,0.3,5.8-1.1c4.1-1.5-4.9-2.2-5.8-2.4C152.9,130.1,152.7,132.4,146.3,129z"
		/>
	
		<path style="clip-path:url(#SVGID_00000114049081746421278260000000270127564988640391_);fill:none;stroke:#231F20;stroke-width:2;stroke-linecap:round;stroke-linejoin:bevel;" d="
		M151.3,135.1c0,0-0.9,2.7,5.3,2.2c6.1-0.4,4.1,0,4.1,0s4.7,0.4,7.3-4.6c-1.9-1.9-7.8,1.6-7.8,1.6S154.5,136,151.3,135.1z"/>
	
		<path style="clip-path:url(#SVGID_00000114049081746421278260000000270127564988640391_);fill:none;stroke:#231F20;stroke-width:2;stroke-linecap:round;stroke-linejoin:bevel;" d="
		M157.2,138.9c0,0,0.5,1.6,5.4,1c4.8-0.5,10.4-3.7,10.4-3.7s1.1-2-5-0.8C163.4,138.2,161.7,139.3,157.2,138.9z"/>
	
		<path style="clip-path:url(#SVGID_00000114049081746421278260000000270127564988640391_);fill:none;stroke:#231F20;stroke-width:2;stroke-linecap:round;stroke-linejoin:bevel;" d="
		M180.3,113.9c-5.2,1.4-11.9,3.7-15.4,4.2c-3.4,0.4-8-0.7-9.1-0.6c-1.1,0.1-10.2,1.5-9.3,1.7c0,0,1.2,5.9,8.8,3.8
		c4.7,2,9.4,0.8,9.4,0.8l-2.8,0.9c0,0,2.8,3.3,5.2,3.9c2.3,0.6,12.5,8.8,25.5,6.5c5.3-0.6,9.3-1.1,11.8-5.7"/>
	
		<path style="clip-path:url(#SVGID_00000114049081746421278260000000270127564988640391_);fill:none;stroke:#231F20;stroke-width:2;stroke-linecap:round;stroke-linejoin:bevel;" d="
		M11.4,121.6c3.6,8.1,7.4,12.1,17.5,16.1s26.9,3.8,33.7-0.6c6.8-4.4,7.9-4.5,7.9-4.5s3.9-1.7,4.6-2.9c0.7-1.3-4.8-0.6-4.8-0.6
		s6.1-0.2,8.3-1.4c2.2-1.2,1.4-2.5,1.4-2.5l-8.7-1.5c0,0,16.7,4.3,14.1-2.4c-12.9-4.2-14.2-5.2-14.6-6.2c-0.4-1,4.6,4.2,15.7,5.8
		c2.4-1.8-2.7-5.2-2.7-5.2s-1.6-1.3-7.4-3.2c-5.9-1.9-5.5-4.5-12.1-2.6c-11.3,6.6-19.6,2.3-22.8,1c-8.5-3.4-10.1-9.3-10.1-9.3"/>
</g>
<line class="st14" x1="71.1" y1="44.7" x2="76.4" y2="65"/>
<line class="st14" x1="113.5" y1="72.6" x2="116.4" y2="44.6"/>
<line class="st14" x1="144.7" y1="72.6" x2="157.6" y2="55"/>
<g>
	<defs>
		<rect id="SVGID_00000018947225126338113580000016948727718851327675_" x="-24.1" y="-22.9" width="264.1" height="261.1"/>
	</defs>
	<clipPath id="SVGID_00000065795257473851757770000010812953946449038223_">
		<use xlink:href="#SVGID_00000018947225126338113580000016948727718851327675_"  style="overflow:visible;"/>
	</clipPath>
	
		<path style="clip-path:url(#SVGID_00000065795257473851757770000010812953946449038223_);fill:none;stroke:#231F20;stroke-width:2;" d="
		M164.9,141l1.3,1.2c0,0,4.5,4.8-0.9,17.1c2.4,0.8,7.4-4.1,10.8-7.1c8.5-7.7,8.6-13.4,8.6-13.4s-12.1,7-17.2,2.3
		C167.2,140.8,164.9,141,164.9,141z"/>
</g>
</svg>
